{"glyphs":{"0":{"ha":779,"x_min":0,"x_max":0,"o":"m 511 582 l 403 582 l 422 532 l 435 538 l 435 485 b 372 503 417 496 394 503 b 283 390 306 503 283 446 b 363 278 283 346 306 278 b 435 342 399 278 428 311 b 501 278 435 293 468 278 b 540 288 518 278 532 282 b 511 336 533 288 511 292 z m 749 576 l 749 571 l 746 571 l 746 575 l 742 575 l 742 571 l 739 571 l 739 576 l 736 576 l 736 567 l 751 567 l 751 576 z m 675 317 b 658 314 669 314 664 314 b 624 382 631 314 624 343 l 624 464 l 711 464 l 711 499 l 624 499 l 624 501 b 558 563 624 551 589 563 b 518 554 542 563 526 560 b 547 513 526 554 547 547 l 547 499 l 524 499 l 524 464 l 547 464 l 547 360 b 636 275 547 296 596 275 b 685 288 653 275 669 278 l 718 349 l 671 349 z m 746 546 l 746 549 b 740 554 746 553 743 554 b 736 549 739 554 736 553 l 736 543 l 751 543 l 751 546 z m 751 525 l 746 525 l 736 531 l 736 526 l 743 524 l 736 521 l 736 515 l 746 521 l 751 521 z m 751 497 l 751 501 l 739 501 l 739 506 l 736 506 l 736 493 l 739 493 l 739 497 z m 183 503 b 121 485 160 503 139 496 l 121 499 l 14 499 l 33 449 l 44 453 l 44 253 b 15 203 44 208 24 203 b 54 194 24 199 39 194 b 121 257 88 194 121 208 l 121 339 b 193 278 128 310 157 278 b 272 390 251 278 272 346 b 183 503 272 446 250 503 z m 743 467 b 751 475 749 467 751 469 b 746 482 751 478 750 481 l 746 478 b 749 475 749 478 749 475 b 743 469 749 472 747 469 b 739 475 740 469 739 472 b 742 478 739 475 740 478 l 742 482 b 736 475 738 481 736 478 b 743 467 736 469 739 467 z m 435 385 b 397 338 433 371 419 338 b 364 399 375 338 364 371 b 403 457 364 432 378 457 b 435 449 414 457 425 453 z m 158 338 b 121 385 136 338 122 371 l 121 449 b 151 457 131 453 142 457 b 192 399 178 457 192 432 b 158 338 192 371 181 338 z m 736 454 l 736 450 l 746 450 b 749 447 747 450 749 450 b 746 444 749 446 747 444 l 736 444 l 736 442 l 746 442 b 751 447 750 442 751 444 b 746 454 751 451 750 454 z m 743 429 b 736 421 739 429 736 426 l 736 415 l 751 415 l 751 421 b 743 429 751 426 749 429 z m 739 418 l 739 421 b 743 425 739 424 740 425 b 749 421 747 425 749 424 l 749 418 z m 743 386 b 751 394 749 386 751 390 b 743 403 751 399 749 403 b 736 394 739 403 736 399 b 743 386 736 390 739 386 z m 751 375 l 746 371 b 740 375 744 374 743 375 b 736 368 739 375 736 374 l 736 363 l 751 363 l 751 367 l 746 367 l 751 371 z m 740 350 b 736 344 739 350 736 349 l 736 339 l 751 339 l 751 342 l 746 342 l 746 344 b 740 350 746 349 743 350 z m 743 325 b 719 301 729 325 719 315 b 743 279 719 288 729 279 b 765 301 757 279 765 288 b 743 325 765 315 757 325 z "},"1":{"ha":779,"x_min":0,"x_max":0,"o":"m 511 582 l 403 582 l 422 532 l 435 538 l 435 485 b 372 503 417 496 394 503 b 283 390 306 503 283 446 b 363 278 283 346 306 278 b 435 342 399 278 428 311 b 501 278 435 293 468 278 b 540 288 518 278 532 282 b 511 336 533 288 511 292 z m 749 576 l 749 571 l 746 571 l 746 575 l 742 575 l 742 571 l 739 571 l 739 576 l 736 576 l 736 567 l 751 567 l 751 576 z m 675 317 b 658 314 669 314 664 314 b 624 382 631 314 624 343 l 624 464 l 711 464 l 711 499 l 624 499 l 624 501 b 558 563 624 551 589 563 b 518 554 542 563 526 560 b 547 513 526 554 547 547 l 547 499 l 524 499 l 524 464 l 547 464 l 547 360 b 636 275 547 296 596 275 b 685 288 653 275 669 278 l 718 349 l 671 349 z m 746 546 l 746 549 b 740 554 746 553 743 554 b 736 549 739 554 736 553 l 736 543 l 751 543 l 751 546 z m 751 525 l 746 525 l 736 531 l 736 526 l 743 524 l 736 521 l 736 515 l 746 521 l 751 521 z m 751 497 l 751 501 l 739 501 l 739 506 l 736 506 l 736 493 l 739 493 l 739 497 z m 183 503 b 121 485 160 503 139 496 l 121 499 l 14 499 l 33 449 l 44 453 l 44 253 b 15 203 44 208 24 203 b 54 194 24 199 39 194 b 121 257 88 194 121 208 l 121 339 b 193 278 128 310 157 278 b 272 390 251 278 272 346 b 183 503 272 446 250 503 z m 743 467 b 751 475 749 467 751 469 b 746 482 751 478 750 481 l 746 478 b 749 475 749 478 749 475 b 743 469 749 472 747 469 b 739 475 740 469 739 472 b 742 478 739 475 740 478 l 742 482 b 736 475 738 481 736 478 b 743 467 736 469 739 467 z m 435 385 b 397 338 433 371 419 338 b 364 399 375 338 364 371 b 403 457 364 432 378 457 b 435 449 414 457 425 453 z m 158 338 b 121 385 136 338 122 371 l 121 449 b 151 457 131 453 142 457 b 192 399 178 457 192 432 b 158 338 192 371 181 338 z m 736 454 l 736 450 l 746 450 b 749 447 747 450 749 450 b 746 444 749 446 747 444 l 736 444 l 736 442 l 746 442 b 751 447 750 442 751 444 b 746 454 751 451 750 454 z m 743 429 b 736 421 739 429 736 426 l 736 415 l 751 415 l 751 421 b 743 429 751 426 749 429 z m 739 418 l 739 421 b 743 425 739 424 740 425 b 749 421 747 425 749 424 l 749 418 z m 743 386 b 751 394 749 386 751 390 b 743 403 751 399 749 403 b 736 394 739 403 736 399 b 743 386 736 390 739 386 z m 751 375 l 746 371 b 740 375 744 374 743 375 b 736 368 739 375 736 374 l 736 363 l 751 363 l 751 367 l 746 367 l 751 371 z m 740 350 b 736 344 739 350 736 349 l 736 339 l 751 339 l 751 342 l 746 342 l 746 344 b 740 350 746 349 743 350 z m 743 325 b 719 301 729 325 719 315 b 743 279 719 288 729 279 b 765 301 757 279 765 288 b 743 325 765 315 757 325 z "},"2":{"ha":779,"x_min":0,"x_max":0,"o":"m 511 582 l 403 582 l 422 532 l 435 538 l 435 485 b 372 503 417 496 394 503 b 283 390 306 503 283 446 b 363 278 283 346 306 278 b 435 342 399 278 428 311 b 501 278 435 293 468 278 b 540 288 518 278 532 282 b 511 336 533 288 511 292 z m 749 576 l 749 571 l 746 571 l 746 575 l 742 575 l 742 571 l 739 571 l 739 576 l 736 576 l 736 567 l 751 567 l 751 576 z m 675 317 b 658 314 669 314 664 314 b 624 382 631 314 624 343 l 624 464 l 711 464 l 711 499 l 624 499 l 624 501 b 558 563 624 551 589 563 b 518 554 542 563 526 560 b 547 513 526 554 547 547 l 547 499 l 524 499 l 524 464 l 547 464 l 547 360 b 636 275 547 296 596 275 b 685 288 653 275 669 278 l 718 349 l 671 349 z m 746 546 l 746 549 b 740 554 746 553 743 554 b 736 549 739 554 736 553 l 736 543 l 751 543 l 751 546 z m 751 525 l 746 525 l 736 531 l 736 526 l 743 524 l 736 521 l 736 515 l 746 521 l 751 521 z m 751 497 l 751 501 l 739 501 l 739 506 l 736 506 l 736 493 l 739 493 l 739 497 z m 183 503 b 121 485 160 503 139 496 l 121 499 l 14 499 l 33 449 l 44 453 l 44 253 b 15 203 44 208 24 203 b 54 194 24 199 39 194 b 121 257 88 194 121 208 l 121 339 b 193 278 128 310 157 278 b 272 390 251 278 272 346 b 183 503 272 446 250 503 z m 743 467 b 751 475 749 467 751 469 b 746 482 751 478 750 481 l 746 478 b 749 475 749 478 749 475 b 743 469 749 472 747 469 b 739 475 740 469 739 472 b 742 478 739 475 740 478 l 742 482 b 736 475 738 481 736 478 b 743 467 736 469 739 467 z m 435 385 b 397 338 433 371 419 338 b 364 399 375 338 364 371 b 403 457 364 432 378 457 b 435 449 414 457 425 453 z m 158 338 b 121 385 136 338 122 371 l 121 449 b 151 457 131 453 142 457 b 192 399 178 457 192 432 b 158 338 192 371 181 338 z m 736 454 l 736 450 l 746 450 b 749 447 747 450 749 450 b 746 444 749 446 747 444 l 736 444 l 736 442 l 746 442 b 751 447 750 442 751 444 b 746 454 751 451 750 454 z m 743 429 b 736 421 739 429 736 426 l 736 415 l 751 415 l 751 421 b 743 429 751 426 749 429 z m 739 418 l 739 421 b 743 425 739 424 740 425 b 749 421 747 425 749 424 l 749 418 z m 743 386 b 751 394 749 386 751 390 b 743 403 751 399 749 403 b 736 394 739 403 736 399 b 743 386 736 390 739 386 z m 751 375 l 746 371 b 740 375 744 374 743 375 b 736 368 739 375 736 374 l 736 363 l 751 363 l 751 367 l 746 367 l 751 371 z m 740 350 b 736 344 739 350 736 349 l 736 339 l 751 339 l 751 342 l 746 342 l 746 344 b 740 350 746 349 743 350 z m 743 325 b 719 301 729 325 719 315 b 743 279 719 288 729 279 b 765 301 757 279 765 288 b 743 325 765 315 757 325 z "},"3":{"ha":779,"x_min":0,"x_max":0,"o":"m 511 582 l 403 582 l 422 532 l 435 538 l 435 485 b 372 503 417 496 394 503 b 283 390 306 503 283 446 b 363 278 283 346 306 278 b 435 342 399 278 428 311 b 501 278 435 293 468 278 b 540 288 518 278 532 282 b 511 336 533 288 511 292 z m 749 576 l 749 571 l 746 571 l 746 575 l 742 575 l 742 571 l 739 571 l 739 576 l 736 576 l 736 567 l 751 567 l 751 576 z m 675 317 b 658 314 669 314 664 314 b 624 382 631 314 624 343 l 624 464 l 711 464 l 711 499 l 624 499 l 624 501 b 558 563 624 551 589 563 b 518 554 542 563 526 560 b 547 513 526 554 547 547 l 547 499 l 524 499 l 524 464 l 547 464 l 547 360 b 636 275 547 296 596 275 b 685 288 653 275 669 278 l 718 349 l 671 349 z m 746 546 l 746 549 b 740 554 746 553 743 554 b 736 549 739 554 736 553 l 736 543 l 751 543 l 751 546 z m 751 525 l 746 525 l 736 531 l 736 526 l 743 524 l 736 521 l 736 515 l 746 521 l 751 521 z m 751 497 l 751 501 l 739 501 l 739 506 l 736 506 l 736 493 l 739 493 l 739 497 z m 183 503 b 121 485 160 503 139 496 l 121 499 l 14 499 l 33 449 l 44 453 l 44 253 b 15 203 44 208 24 203 b 54 194 24 199 39 194 b 121 257 88 194 121 208 l 121 339 b 193 278 128 310 157 278 b 272 390 251 278 272 346 b 183 503 272 446 250 503 z m 743 467 b 751 475 749 467 751 469 b 746 482 751 478 750 481 l 746 478 b 749 475 749 478 749 475 b 743 469 749 472 747 469 b 739 475 740 469 739 472 b 742 478 739 475 740 478 l 742 482 b 736 475 738 481 736 478 b 743 467 736 469 739 467 z m 435 385 b 397 338 433 371 419 338 b 364 399 375 338 364 371 b 403 457 364 432 378 457 b 435 449 414 457 425 453 z m 158 338 b 121 385 136 338 122 371 l 121 449 b 151 457 131 453 142 457 b 192 399 178 457 192 432 b 158 338 192 371 181 338 z m 736 454 l 736 450 l 746 450 b 749 447 747 450 749 450 b 746 444 749 446 747 444 l 736 444 l 736 442 l 746 442 b 751 447 750 442 751 444 b 746 454 751 451 750 454 z m 743 429 b 736 421 739 429 736 426 l 736 415 l 751 415 l 751 421 b 743 429 751 426 749 429 z m 739 418 l 739 421 b 743 425 739 424 740 425 b 749 421 747 425 749 424 l 749 418 z m 743 386 b 751 394 749 386 751 390 b 743 403 751 399 749 403 b 736 394 739 403 736 399 b 743 386 736 390 739 386 z m 751 375 l 746 371 b 740 375 744 374 743 375 b 736 368 739 375 736 374 l 736 363 l 751 363 l 751 367 l 746 367 l 751 371 z m 740 350 b 736 344 739 350 736 349 l 736 339 l 751 339 l 751 342 l 746 342 l 746 344 b 740 350 746 349 743 350 z m 743 325 b 719 301 729 325 719 315 b 743 279 719 288 729 279 b 765 301 757 279 765 288 b 743 325 765 315 757 325 z "},"4":{"ha":779,"x_min":0,"x_max":0,"o":"m 511 582 l 403 582 l 422 532 l 435 538 l 435 485 b 372 503 417 496 394 503 b 283 390 306 503 283 446 b 363 278 283 346 306 278 b 435 342 399 278 428 311 b 501 278 435 293 468 278 b 540 288 518 278 532 282 b 511 336 533 288 511 292 z m 749 576 l 749 571 l 746 571 l 746 575 l 742 575 l 742 571 l 739 571 l 739 576 l 736 576 l 736 567 l 751 567 l 751 576 z m 675 317 b 658 314 669 314 664 314 b 624 382 631 314 624 343 l 624 464 l 711 464 l 711 499 l 624 499 l 624 501 b 558 563 624 551 589 563 b 518 554 542 563 526 560 b 547 513 526 554 547 547 l 547 499 l 524 499 l 524 464 l 547 464 l 547 360 b 636 275 547 296 596 275 b 685 288 653 275 669 278 l 718 349 l 671 349 z m 746 546 l 746 549 b 740 554 746 553 743 554 b 736 549 739 554 736 553 l 736 543 l 751 543 l 751 546 z m 751 525 l 746 525 l 736 531 l 736 526 l 743 524 l 736 521 l 736 515 l 746 521 l 751 521 z m 751 497 l 751 501 l 739 501 l 739 506 l 736 506 l 736 493 l 739 493 l 739 497 z m 183 503 b 121 485 160 503 139 496 l 121 499 l 14 499 l 33 449 l 44 453 l 44 253 b 15 203 44 208 24 203 b 54 194 24 199 39 194 b 121 257 88 194 121 208 l 121 339 b 193 278 128 310 157 278 b 272 390 251 278 272 346 b 183 503 272 446 250 503 z m 743 467 b 751 475 749 467 751 469 b 746 482 751 478 750 481 l 746 478 b 749 475 749 478 749 475 b 743 469 749 472 747 469 b 739 475 740 469 739 472 b 742 478 739 475 740 478 l 742 482 b 736 475 738 481 736 478 b 743 467 736 469 739 467 z m 435 385 b 397 338 433 371 419 338 b 364 399 375 338 364 371 b 403 457 364 432 378 457 b 435 449 414 457 425 453 z m 158 338 b 121 385 136 338 122 371 l 121 449 b 151 457 131 453 142 457 b 192 399 178 457 192 432 b 158 338 192 371 181 338 z m 736 454 l 736 450 l 746 450 b 749 447 747 450 749 450 b 746 444 749 446 747 444 l 736 444 l 736 442 l 746 442 b 751 447 750 442 751 444 b 746 454 751 451 750 454 z m 743 429 b 736 421 739 429 736 426 l 736 415 l 751 415 l 751 421 b 743 429 751 426 749 429 z m 739 418 l 739 421 b 743 425 739 424 740 425 b 749 421 747 425 749 424 l 749 418 z m 743 386 b 751 394 749 386 751 390 b 743 403 751 399 749 403 b 736 394 739 403 736 399 b 743 386 736 390 739 386 z m 751 375 l 746 371 b 740 375 744 374 743 375 b 736 368 739 375 736 374 l 736 363 l 751 363 l 751 367 l 746 367 l 751 371 z m 740 350 b 736 344 739 350 736 349 l 736 339 l 751 339 l 751 342 l 746 342 l 746 344 b 740 350 746 349 743 350 z m 743 325 b 719 301 729 325 719 315 b 743 279 719 288 729 279 b 765 301 757 279 765 288 b 743 325 765 315 757 325 z "},"5":{"ha":779,"x_min":0,"x_max":0,"o":"m 511 582 l 403 582 l 422 532 l 435 538 l 435 485 b 372 503 417 496 394 503 b 283 390 306 503 283 446 b 363 278 283 346 306 278 b 435 342 399 278 428 311 b 501 278 435 293 468 278 b 540 288 518 278 532 282 b 511 336 533 288 511 292 z m 749 576 l 749 571 l 746 571 l 746 575 l 742 575 l 742 571 l 739 571 l 739 576 l 736 576 l 736 567 l 751 567 l 751 576 z m 675 317 b 658 314 669 314 664 314 b 624 382 631 314 624 343 l 624 464 l 711 464 l 711 499 l 624 499 l 624 501 b 558 563 624 551 589 563 b 518 554 542 563 526 560 b 547 513 526 554 547 547 l 547 499 l 524 499 l 524 464 l 547 464 l 547 360 b 636 275 547 296 596 275 b 685 288 653 275 669 278 l 718 349 l 671 349 z m 746 546 l 746 549 b 740 554 746 553 743 554 b 736 549 739 554 736 553 l 736 543 l 751 543 l 751 546 z m 751 525 l 746 525 l 736 531 l 736 526 l 743 524 l 736 521 l 736 515 l 746 521 l 751 521 z m 751 497 l 751 501 l 739 501 l 739 506 l 736 506 l 736 493 l 739 493 l 739 497 z m 183 503 b 121 485 160 503 139 496 l 121 499 l 14 499 l 33 449 l 44 453 l 44 253 b 15 203 44 208 24 203 b 54 194 24 199 39 194 b 121 257 88 194 121 208 l 121 339 b 193 278 128 310 157 278 b 272 390 251 278 272 346 b 183 503 272 446 250 503 z m 743 467 b 751 475 749 467 751 469 b 746 482 751 478 750 481 l 746 478 b 749 475 749 478 749 475 b 743 469 749 472 747 469 b 739 475 740 469 739 472 b 742 478 739 475 740 478 l 742 482 b 736 475 738 481 736 478 b 743 467 736 469 739 467 z m 435 385 b 397 338 433 371 419 338 b 364 399 375 338 364 371 b 403 457 364 432 378 457 b 435 449 414 457 425 453 z m 158 338 b 121 385 136 338 122 371 l 121 449 b 151 457 131 453 142 457 b 192 399 178 457 192 432 b 158 338 192 371 181 338 z m 736 454 l 736 450 l 746 450 b 749 447 747 450 749 450 b 746 444 749 446 747 444 l 736 444 l 736 442 l 746 442 b 751 447 750 442 751 444 b 746 454 751 451 750 454 z m 743 429 b 736 421 739 429 736 426 l 736 415 l 751 415 l 751 421 b 743 429 751 426 749 429 z m 739 418 l 739 421 b 743 425 739 424 740 425 b 749 421 747 425 749 424 l 749 418 z m 743 386 b 751 394 749 386 751 390 b 743 403 751 399 749 403 b 736 394 739 403 736 399 b 743 386 736 390 739 386 z m 751 375 l 746 371 b 740 375 744 374 743 375 b 736 368 739 375 736 374 l 736 363 l 751 363 l 751 367 l 746 367 l 751 371 z m 740 350 b 736 344 739 350 736 349 l 736 339 l 751 339 l 751 342 l 746 342 l 746 344 b 740 350 746 349 743 350 z m 743 325 b 719 301 729 325 719 315 b 743 279 719 288 729 279 b 765 301 757 279 765 288 b 743 325 765 315 757 325 z "},"6":{"ha":779,"x_min":0,"x_max":0,"o":"m 511 582 l 403 582 l 422 532 l 435 538 l 435 485 b 372 503 417 496 394 503 b 283 390 306 503 283 446 b 363 278 283 346 306 278 b 435 342 399 278 428 311 b 501 278 435 293 468 278 b 540 288 518 278 532 282 b 511 336 533 288 511 292 z m 749 576 l 749 571 l 746 571 l 746 575 l 742 575 l 742 571 l 739 571 l 739 576 l 736 576 l 736 567 l 751 567 l 751 576 z m 675 317 b 658 314 669 314 664 314 b 624 382 631 314 624 343 l 624 464 l 711 464 l 711 499 l 624 499 l 624 501 b 558 563 624 551 589 563 b 518 554 542 563 526 560 b 547 513 526 554 547 547 l 547 499 l 524 499 l 524 464 l 547 464 l 547 360 b 636 275 547 296 596 275 b 685 288 653 275 669 278 l 718 349 l 671 349 z m 746 546 l 746 549 b 740 554 746 553 743 554 b 736 549 739 554 736 553 l 736 543 l 751 543 l 751 546 z m 751 525 l 746 525 l 736 531 l 736 526 l 743 524 l 736 521 l 736 515 l 746 521 l 751 521 z m 751 497 l 751 501 l 739 501 l 739 506 l 736 506 l 736 493 l 739 493 l 739 497 z m 183 503 b 121 485 160 503 139 496 l 121 499 l 14 499 l 33 449 l 44 453 l 44 253 b 15 203 44 208 24 203 b 54 194 24 199 39 194 b 121 257 88 194 121 208 l 121 339 b 193 278 128 310 157 278 b 272 390 251 278 272 346 b 183 503 272 446 250 503 z m 743 467 b 751 475 749 467 751 469 b 746 482 751 478 750 481 l 746 478 b 749 475 749 478 749 475 b 743 469 749 472 747 469 b 739 475 740 469 739 472 b 742 478 739 475 740 478 l 742 482 b 736 475 738 481 736 478 b 743 467 736 469 739 467 z m 435 385 b 397 338 433 371 419 338 b 364 399 375 338 364 371 b 403 457 364 432 378 457 b 435 449 414 457 425 453 z m 158 338 b 121 385 136 338 122 371 l 121 449 b 151 457 131 453 142 457 b 192 399 178 457 192 432 b 158 338 192 371 181 338 z m 736 454 l 736 450 l 746 450 b 749 447 747 450 749 450 b 746 444 749 446 747 444 l 736 444 l 736 442 l 746 442 b 751 447 750 442 751 444 b 746 454 751 451 750 454 z m 743 429 b 736 421 739 429 736 426 l 736 415 l 751 415 l 751 421 b 743 429 751 426 749 429 z m 739 418 l 739 421 b 743 425 739 424 740 425 b 749 421 747 425 749 424 l 749 418 z m 743 386 b 751 394 749 386 751 390 b 743 403 751 399 749 403 b 736 394 739 403 736 399 b 743 386 736 390 739 386 z m 751 375 l 746 371 b 740 375 744 374 743 375 b 736 368 739 375 736 374 l 736 363 l 751 363 l 751 367 l 746 367 l 751 371 z m 740 350 b 736 344 739 350 736 349 l 736 339 l 751 339 l 751 342 l 746 342 l 746 344 b 740 350 746 349 743 350 z m 743 325 b 719 301 729 325 719 315 b 743 279 719 288 729 279 b 765 301 757 279 765 288 b 743 325 765 315 757 325 z "},"7":{"ha":779,"x_min":0,"x_max":0,"o":"m 511 582 l 403 582 l 422 532 l 435 538 l 435 485 b 372 503 417 496 394 503 b 283 390 306 503 283 446 b 363 278 283 346 306 278 b 435 342 399 278 428 311 b 501 278 435 293 468 278 b 540 288 518 278 532 282 b 511 336 533 288 511 292 z m 749 576 l 749 571 l 746 571 l 746 575 l 742 575 l 742 571 l 739 571 l 739 576 l 736 576 l 736 567 l 751 567 l 751 576 z m 675 317 b 658 314 669 314 664 314 b 624 382 631 314 624 343 l 624 464 l 711 464 l 711 499 l 624 499 l 624 501 b 558 563 624 551 589 563 b 518 554 542 563 526 560 b 547 513 526 554 547 547 l 547 499 l 524 499 l 524 464 l 547 464 l 547 360 b 636 275 547 296 596 275 b 685 288 653 275 669 278 l 718 349 l 671 349 z m 746 546 l 746 549 b 740 554 746 553 743 554 b 736 549 739 554 736 553 l 736 543 l 751 543 l 751 546 z m 751 525 l 746 525 l 736 531 l 736 526 l 743 524 l 736 521 l 736 515 l 746 521 l 751 521 z m 751 497 l 751 501 l 739 501 l 739 506 l 736 506 l 736 493 l 739 493 l 739 497 z m 183 503 b 121 485 160 503 139 496 l 121 499 l 14 499 l 33 449 l 44 453 l 44 253 b 15 203 44 208 24 203 b 54 194 24 199 39 194 b 121 257 88 194 121 208 l 121 339 b 193 278 128 310 157 278 b 272 390 251 278 272 346 b 183 503 272 446 250 503 z m 743 467 b 751 475 749 467 751 469 b 746 482 751 478 750 481 l 746 478 b 749 475 749 478 749 475 b 743 469 749 472 747 469 b 739 475 740 469 739 472 b 742 478 739 475 740 478 l 742 482 b 736 475 738 481 736 478 b 743 467 736 469 739 467 z m 435 385 b 397 338 433 371 419 338 b 364 399 375 338 364 371 b 403 457 364 432 378 457 b 435 449 414 457 425 453 z m 158 338 b 121 385 136 338 122 371 l 121 449 b 151 457 131 453 142 457 b 192 399 178 457 192 432 b 158 338 192 371 181 338 z m 736 454 l 736 450 l 746 450 b 749 447 747 450 749 450 b 746 444 749 446 747 444 l 736 444 l 736 442 l 746 442 b 751 447 750 442 751 444 b 746 454 751 451 750 454 z m 743 429 b 736 421 739 429 736 426 l 736 415 l 751 415 l 751 421 b 743 429 751 426 749 429 z m 739 418 l 739 421 b 743 425 739 424 740 425 b 749 421 747 425 749 424 l 749 418 z m 743 386 b 751 394 749 386 751 390 b 743 403 751 399 749 403 b 736 394 739 403 736 399 b 743 386 736 390 739 386 z m 751 375 l 746 371 b 740 375 744 374 743 375 b 736 368 739 375 736 374 l 736 363 l 751 363 l 751 367 l 746 367 l 751 371 z m 740 350 b 736 344 739 350 736 349 l 736 339 l 751 339 l 751 342 l 746 342 l 746 344 b 740 350 746 349 743 350 z m 743 325 b 719 301 729 325 719 315 b 743 279 719 288 729 279 b 765 301 757 279 765 288 b 743 325 765 315 757 325 z "},"8":{"ha":779,"x_min":0,"x_max":0,"o":"m 511 582 l 403 582 l 422 532 l 435 538 l 435 485 b 372 503 417 496 394 503 b 283 390 306 503 283 446 b 363 278 283 346 306 278 b 435 342 399 278 428 311 b 501 278 435 293 468 278 b 540 288 518 278 532 282 b 511 336 533 288 511 292 z m 749 576 l 749 571 l 746 571 l 746 575 l 742 575 l 742 571 l 739 571 l 739 576 l 736 576 l 736 567 l 751 567 l 751 576 z m 675 317 b 658 314 669 314 664 314 b 624 382 631 314 624 343 l 624 464 l 711 464 l 711 499 l 624 499 l 624 501 b 558 563 624 551 589 563 b 518 554 542 563 526 560 b 547 513 526 554 547 547 l 547 499 l 524 499 l 524 464 l 547 464 l 547 360 b 636 275 547 296 596 275 b 685 288 653 275 669 278 l 718 349 l 671 349 z m 746 546 l 746 549 b 740 554 746 553 743 554 b 736 549 739 554 736 553 l 736 543 l 751 543 l 751 546 z m 751 525 l 746 525 l 736 531 l 736 526 l 743 524 l 736 521 l 736 515 l 746 521 l 751 521 z m 751 497 l 751 501 l 739 501 l 739 506 l 736 506 l 736 493 l 739 493 l 739 497 z m 183 503 b 121 485 160 503 139 496 l 121 499 l 14 499 l 33 449 l 44 453 l 44 253 b 15 203 44 208 24 203 b 54 194 24 199 39 194 b 121 257 88 194 121 208 l 121 339 b 193 278 128 310 157 278 b 272 390 251 278 272 346 b 183 503 272 446 250 503 z m 743 467 b 751 475 749 467 751 469 b 746 482 751 478 750 481 l 746 478 b 749 475 749 478 749 475 b 743 469 749 472 747 469 b 739 475 740 469 739 472 b 742 478 739 475 740 478 l 742 482 b 736 475 738 481 736 478 b 743 467 736 469 739 467 z m 435 385 b 397 338 433 371 419 338 b 364 399 375 338 364 371 b 403 457 364 432 378 457 b 435 449 414 457 425 453 z m 158 338 b 121 385 136 338 122 371 l 121 449 b 151 457 131 453 142 457 b 192 399 178 457 192 432 b 158 338 192 371 181 338 z m 736 454 l 736 450 l 746 450 b 749 447 747 450 749 450 b 746 444 749 446 747 444 l 736 444 l 736 442 l 746 442 b 751 447 750 442 751 444 b 746 454 751 451 750 454 z m 743 429 b 736 421 739 429 736 426 l 736 415 l 751 415 l 751 421 b 743 429 751 426 749 429 z m 739 418 l 739 421 b 743 425 739 424 740 425 b 749 421 747 425 749 424 l 749 418 z m 743 386 b 751 394 749 386 751 390 b 743 403 751 399 749 403 b 736 394 739 403 736 399 b 743 386 736 390 739 386 z m 751 375 l 746 371 b 740 375 744 374 743 375 b 736 368 739 375 736 374 l 736 363 l 751 363 l 751 367 l 746 367 l 751 371 z m 740 350 b 736 344 739 350 736 349 l 736 339 l 751 339 l 751 342 l 746 342 l 746 344 b 740 350 746 349 743 350 z m 743 325 b 719 301 729 325 719 315 b 743 279 719 288 729 279 b 765 301 757 279 765 288 b 743 325 765 315 757 325 z "},"9":{"ha":779,"x_min":0,"x_max":0,"o":"m 511 582 l 403 582 l 422 532 l 435 538 l 435 485 b 372 503 417 496 394 503 b 283 390 306 503 283 446 b 363 278 283 346 306 278 b 435 342 399 278 428 311 b 501 278 435 293 468 278 b 540 288 518 278 532 282 b 511 336 533 288 511 292 z m 749 576 l 749 571 l 746 571 l 746 575 l 742 575 l 742 571 l 739 571 l 739 576 l 736 576 l 736 567 l 751 567 l 751 576 z m 675 317 b 658 314 669 314 664 314 b 624 382 631 314 624 343 l 624 464 l 711 464 l 711 499 l 624 499 l 624 501 b 558 563 624 551 589 563 b 518 554 542 563 526 560 b 547 513 526 554 547 547 l 547 499 l 524 499 l 524 464 l 547 464 l 547 360 b 636 275 547 296 596 275 b 685 288 653 275 669 278 l 718 349 l 671 349 z m 746 546 l 746 549 b 740 554 746 553 743 554 b 736 549 739 554 736 553 l 736 543 l 751 543 l 751 546 z m 751 525 l 746 525 l 736 531 l 736 526 l 743 524 l 736 521 l 736 515 l 746 521 l 751 521 z m 751 497 l 751 501 l 739 501 l 739 506 l 736 506 l 736 493 l 739 493 l 739 497 z m 183 503 b 121 485 160 503 139 496 l 121 499 l 14 499 l 33 449 l 44 453 l 44 253 b 15 203 44 208 24 203 b 54 194 24 199 39 194 b 121 257 88 194 121 208 l 121 339 b 193 278 128 310 157 278 b 272 390 251 278 272 346 b 183 503 272 446 250 503 z m 743 467 b 751 475 749 467 751 469 b 746 482 751 478 750 481 l 746 478 b 749 475 749 478 749 475 b 743 469 749 472 747 469 b 739 475 740 469 739 472 b 742 478 739 475 740 478 l 742 482 b 736 475 738 481 736 478 b 743 467 736 469 739 467 z m 435 385 b 397 338 433 371 419 338 b 364 399 375 338 364 371 b 403 457 364 432 378 457 b 435 449 414 457 425 453 z m 158 338 b 121 385 136 338 122 371 l 121 449 b 151 457 131 453 142 457 b 192 399 178 457 192 432 b 158 338 192 371 181 338 z m 736 454 l 736 450 l 746 450 b 749 447 747 450 749 450 b 746 444 749 446 747 444 l 736 444 l 736 442 l 746 442 b 751 447 750 442 751 444 b 746 454 751 451 750 454 z m 743 429 b 736 421 739 429 736 426 l 736 415 l 751 415 l 751 421 b 743 429 751 426 749 429 z m 739 418 l 739 421 b 743 425 739 424 740 425 b 749 421 747 425 749 424 l 749 418 z m 743 386 b 751 394 749 386 751 390 b 743 403 751 399 749 403 b 736 394 739 403 736 399 b 743 386 736 390 739 386 z m 751 375 l 746 371 b 740 375 744 374 743 375 b 736 368 739 375 736 374 l 736 363 l 751 363 l 751 367 l 746 367 l 751 371 z m 740 350 b 736 344 739 350 736 349 l 736 339 l 751 339 l 751 342 l 746 342 l 746 344 b 740 350 746 349 743 350 z m 743 325 b 719 301 729 325 719 315 b 743 279 719 288 729 279 b 765 301 757 279 765 288 b 743 325 765 315 757 325 z "},"\u0000":{"ha":0,"x_min":0,"x_max":0,"o":""},"\r":{"ha":740,"x_min":0,"x_max":0,"o":""}," ":{"ha":278,"x_min":0,"x_max":0,"o":""},"A":{"ha":740,"x_min":0,"x_max":0,"o":"m 107 -35 b 132 61 119 -1 125 26 b 132 49 132 57 132 53 l 131 24 b 131 11 131 19 131 15 b 142 0 131 4 136 0 b 153 10 150 0 151 4 b 183 188 156 18 183 186 b 181 194 183 190 183 193 l 181 199 b 203 231 181 221 186 222 l 164 3 l 160 -3 b 157 -21 158 -12 157 -11 b 168 -32 157 -28 163 -32 b 189 17 182 -32 189 6 b 199 13 192 14 194 13 b 210 24 206 13 208 17 b 231 243 218 83 224 183 b 386 303 281 265 336 279 b 390 308 389 304 390 306 b 382 314 389 313 386 314 b 250 264 379 314 263 269 b 501 372 331 306 418 338 b 594 1 528 257 558 111 b 606 -8 596 -4 599 -8 b 617 3 611 -8 617 -3 b 597 83 617 6 608 39 b 621 14 606 54 614 29 b 631 7 622 10 626 7 b 643 19 639 7 643 13 b 639 33 643 21 639 31 b 615 115 631 61 622 88 l 618 113 b 644 43 622 101 636 43 b 650 50 647 44 650 46 b 629 158 650 81 635 126 l 633 153 b 689 -4 639 131 674 -4 b 700 6 694 -4 700 0 b 693 28 700 14 696 21 b 703 22 696 25 699 22 b 714 33 708 22 714 28 b 690 119 714 58 694 93 b 639 442 674 226 654 333 b 644 450 642 443 644 447 b 636 463 644 456 640 460 l 635 464 b 635 465 635 465 635 465 l 635 475 b 635 476 635 475 635 476 l 633 478 b 669 493 640 482 669 486 b 664 499 669 494 665 499 b 632 490 656 499 639 493 b 665 508 639 494 667 501 b 660 514 665 511 663 514 b 631 504 653 514 638 507 b 624 611 625 540 624 575 b 608 672 624 624 624 672 b 597 660 601 672 597 667 l 597 654 b 608 496 604 601 601 549 l 601 492 b 558 917 588 632 558 775 b 564 961 558 932 564 947 b 551 974 564 969 561 974 b 540 957 542 974 535 967 b 538 924 538 946 538 935 b 536 965 536 938 536 951 b 536 978 536 969 536 974 l 540 1004 b 540 1017 540 1008 540 1013 b 524 1038 540 1028 536 1038 b 510 1025 518 1038 510 1032 b 518 1014 510 1019 514 1015 b 515 915 514 981 513 950 b 496 997 508 942 496 969 b 501 1019 496 1006 501 1013 b 496 1024 501 1022 497 1024 l 486 1014 l 476 1015 b 471 1035 476 1021 479 1035 l 465 1031 l 465 1024 b 469 949 465 999 467 974 l 465 946 b 457 996 461 963 458 979 b 464 1007 461 997 464 1001 b 449 1017 464 1015 456 1017 b 436 1006 442 1017 438 1011 l 432 1006 b 426 992 429 1006 426 993 b 417 1000 426 996 422 1003 b 411 1006 417 1003 414 1006 l 407 1001 b 406 993 406 999 406 996 b 418 932 406 975 413 949 b 407 896 410 922 407 908 b 481 467 407 803 458 567 b 258 396 406 446 332 422 b 332 739 282 510 306 625 b 374 894 343 788 353 850 b 383 921 379 907 383 904 b 372 936 383 928 382 936 b 325 803 353 936 331 824 b 372 953 331 833 350 936 b 401 976 381 958 401 964 b 389 986 401 983 396 988 b 368 1029 388 997 383 1029 b 342 1004 353 1029 349 1015 b 294 892 313 979 304 926 l 294 899 b 288 910 294 903 292 908 b 324 1025 293 936 308 1007 b 332 1031 328 1024 332 1026 l 326 1036 l 322 1036 b 307 1028 315 1036 310 1031 l 308 1029 b 304 1036 308 1033 307 1035 b 294 1044 304 1040 299 1044 b 279 1008 288 1044 282 1014 b 240 868 274 996 239 875 b 217 800 229 847 222 824 b 114 342 179 649 149 496 l 110 342 b 108 340 110 340 110 340 l 93 335 b 92 333 93 335 92 335 l 88 333 b 133 608 99 425 115 517 b 149 658 135 618 149 656 b 144 665 149 661 147 665 b 140 664 143 665 142 665 b 75 328 122 653 79 363 b 46 306 67 325 40 319 b 10 299 33 301 24 299 b -3 286 3 299 -3 294 b 11 275 -3 278 4 275 b 107 300 38 275 81 292 b 100 265 104 289 101 276 b -37 192 82 258 -37 204 b -18 183 -37 181 -26 181 l -18 182 l -19 181 b -8 168 -19 174 -14 168 b 13 181 -3 168 8 178 b 92 226 38 199 64 213 l 89 218 b 31 172 78 211 32 185 l 33 168 l 50 169 b 24 149 42 165 24 158 b 25 146 24 147 24 146 b 82 172 32 146 72 168 b 61 10 74 133 61 50 b 76 -10 61 0 67 -10 b 90 4 83 -10 90 -4 b 83 15 90 8 88 13 b 106 183 88 60 97 140 l 114 188 b 96 -33 104 124 96 31 b 101 -39 96 -36 99 -39 z m 297 1029 l 290 1004 b 297 1029 292 1013 294 1021 z m 224 1003 b 218 1010 224 1007 222 1010 l 213 1006 b 138 776 200 971 138 800 b 142 771 138 774 139 771 b 147 776 144 771 146 774 b 196 928 167 825 179 878 b 224 1003 200 940 224 996 z m 358 986 l 367 985 l 369 978 b 344 953 360 972 351 963 b 358 986 350 964 354 975 z m 488 974 l 492 953 l 489 951 b 489 957 489 953 489 956 l 488 968 b 488 974 488 969 488 972 z m 449 914 b 451 904 450 911 451 908 z m 475 910 b 481 876 478 899 479 888 b 475 906 478 886 475 896 z m 214 383 b 240 544 214 403 242 543 b 246 581 240 557 247 569 b 325 899 269 688 288 796 b 285 711 307 838 297 774 b 243 481 269 635 256 557 b 228 386 240 469 229 389 b 217 382 226 383 219 382 b 214 383 215 382 214 382 z m 429 890 b 454 807 438 864 450 835 b 508 475 467 694 483 586 l 501 472 b 429 890 472 610 444 750 z m 283 872 b 286 861 285 868 286 865 b 203 563 286 858 211 597 b 283 872 219 668 239 775 z m 490 833 b 494 861 503 833 494 856 l 494 863 l 496 858 l 503 858 b 531 676 524 778 526 758 b 521 715 528 690 524 703 l 500 794 b 490 833 497 807 494 821 z m 726 339 b 704 414 726 343 707 401 b 669 581 689 468 679 525 b 624 849 653 668 654 767 b 618 856 622 851 621 854 b 614 850 617 854 614 850 b 614 843 614 847 614 846 b 632 765 618 818 628 792 b 654 601 640 711 644 657 b 715 336 668 513 685 421 b 721 329 717 333 718 331 b 726 339 725 331 726 335 z m 478 794 b 517 644 490 744 503 694 l 513 642 l 511 636 l 506 640 l 500 636 b 478 794 490 689 482 742 z m 365 750 l 361 747 b 285 472 351 726 285 486 b 290 464 285 469 285 464 b 296 469 293 464 294 467 b 332 611 311 514 319 565 b 371 742 343 654 360 697 b 365 750 371 746 371 750 z m 524 618 b 547 511 535 582 540 547 b 524 618 538 546 529 582 z m 536 482 b 518 588 529 517 524 553 b 544 479 526 551 535 515 z m 169 490 b 151 358 163 446 157 403 l 140 354 z m 604 467 l 613 471 b 613 468 613 469 613 469 l 614 461 b 614 458 614 460 614 460 l 606 456 b 604 467 606 460 606 463 z m 206 469 b 189 372 201 436 196 404 l 186 369 b 206 469 192 403 199 436 z m 507 450 l 513 451 b 514 449 514 450 514 449 l 514 442 b 515 439 515 440 515 439 l 510 435 b 507 450 508 440 507 444 z m 254 371 b 483 444 329 397 407 422 l 488 428 b 251 365 408 410 329 388 z m 608 432 l 618 436 b 640 292 625 388 632 340 b 615 375 633 319 621 347 b 608 432 611 393 611 413 z m 556 421 l 558 417 l 549 417 l 549 418 b 556 421 549 421 553 421 z m 553 392 l 561 396 b 564 344 564 378 564 363 b 553 392 561 351 558 372 z m 526 389 b 567 201 533 351 549 276 b 519 389 546 285 525 367 z m 499 383 b 233 267 422 350 299 310 b 238 286 235 272 232 282 b 499 383 244 290 485 379 z m 247 340 b 376 376 290 353 333 365 b 242 318 331 358 286 338 z m 210 354 b 224 360 214 357 219 358 l 224 357 b 210 353 221 354 214 353 z m 201 301 b 203 308 203 304 203 306 l 204 321 b 206 328 204 324 206 326 l 219 332 b 217 307 219 326 219 311 z m 579 267 b 568 315 574 282 571 299 b 579 267 572 299 576 282 z m 131 307 l 136 308 b 129 276 133 297 131 288 l 124 275 b 131 307 126 285 131 297 z m 554 -37 b 500 231 554 -15 510 186 b 489 279 497 246 489 264 b 499 288 493 281 499 282 l 494 292 l 490 292 b 476 279 482 292 476 288 b 481 263 476 274 479 268 b 511 114 494 214 501 163 b 540 -22 521 68 533 24 b 549 -43 542 -28 542 -43 b 554 -37 551 -43 554 -40 z m 729 263 b 733 268 732 264 733 265 b 724 279 733 274 729 279 b 715 268 718 279 715 274 b 725 256 715 264 719 256 b 729 263 728 257 729 260 z m 194 265 l 210 272 l 206 246 l 189 238 b 194 265 190 244 190 260 z m 233 257 b 232 258 233 257 233 257 z m 169 251 l 171 250 b 165 225 168 242 167 233 z m 121 240 b 115 235 121 238 118 235 l 115 236 b 121 240 115 238 119 240 z m 136 211 l 136 215 l 138 219 l 138 221 l 139 222 l 139 221 b 136 211 139 219 138 211 z m 113 218 l 119 222 l 115 201 l 110 199 b 113 218 110 206 111 211 z m 589 217 b 599 183 593 207 596 194 b 589 217 594 196 590 208 z m 57 176 l 53 181 b 86 203 64 189 75 196 l 83 185 l 57 172 z m 132 181 l 135 196 l 138 199 l 136 179 z m 272 174 b 261 188 272 179 267 188 b 256 182 258 188 256 185 b 267 169 256 178 263 169 b 272 174 269 169 272 171 z m 656 158 b 668 108 660 142 665 125 z m 232 -61 b 264 108 239 -49 256 79 b 267 113 265 110 267 111 b 260 121 267 117 263 119 l 254 117 b 222 -65 251 107 222 -58 b 226 -68 222 -67 225 -68 b 232 -61 231 -68 233 -65 z m 674 92 l 675 90 b 690 36 681 72 686 54 z "},"B":{"ha":846,"x_min":0,"x_max":0,"o":"m 292 1043 b 286 1050 292 1046 289 1050 b 65 931 264 1051 65 956 b 69 928 65 929 68 928 b 81 935 76 928 78 931 b 265 1032 106 960 226 1018 b 292 1043 271 1033 292 1036 z m 531 -10 b 539 -18 532 -12 536 -18 l 543 -18 b 689 60 574 -18 664 39 b 779 193 732 93 758 143 b 790 251 793 192 790 240 b 774 358 790 288 788 324 l 774 367 b 578 551 774 479 676 533 b 681 651 592 578 656 624 b 775 853 724 703 775 782 b 700 958 775 938 707 947 b 604 986 689 976 625 985 b 358 963 522 993 436 978 b 438 992 383 975 410 985 b 546 1006 474 1001 511 999 b 556 1017 551 1007 556 1010 b 547 1028 556 1021 553 1028 b 414 1011 504 1032 456 1018 l 407 1018 l 404 1018 b 157 924 364 1021 157 947 b 165 921 158 919 163 919 l 165 918 b 14 831 107 899 60 871 b 8 822 11 828 8 826 b 19 810 8 817 14 810 b 28 813 22 810 25 811 b 164 894 79 840 103 874 b 54 804 144 883 51 825 b 44 793 49 803 44 799 b 57 782 44 786 50 782 b 122 824 72 781 106 815 b 13 722 108 814 13 732 b 21 713 13 718 17 714 b 35 699 22 706 28 699 b 69 726 49 697 60 718 b 143 782 76 726 132 774 l 144 782 b 60 669 136 779 60 678 b 65 661 60 668 61 661 b 111 714 76 660 104 703 b 65 556 106 694 65 563 b 81 536 65 546 71 536 b 94 579 96 535 90 565 b 161 718 111 633 151 681 l 167 719 b 104 557 144 668 131 608 b 85 526 100 549 85 533 b 96 515 85 521 89 515 b 103 517 99 515 100 515 b 183 700 142 550 157 651 b 293 831 211 750 250 794 b 407 879 308 843 383 869 b 519 893 442 892 481 896 b 606 874 549 890 578 885 b 611 853 610 867 611 860 b 363 549 611 767 419 597 b 372 736 365 611 372 674 b 360 772 372 746 375 772 b 369 807 363 782 369 799 b 358 818 369 813 364 818 b 339 781 344 819 340 790 b 326 767 331 781 325 775 b 317 743 314 768 317 750 b 307 682 317 721 311 701 b 315 783 310 714 315 751 b 311 790 315 786 313 789 b 328 788 318 792 322 788 b 340 799 335 786 340 792 b 319 814 340 810 328 813 b 293 807 311 814 300 813 b 243 460 258 779 246 510 b 206 440 231 453 219 444 b 199 568 203 482 199 526 b 203 593 199 578 203 585 b 197 599 203 596 199 599 b 188 572 189 599 188 578 b 194 438 188 528 192 482 b 181 429 189 436 182 435 b 90 383 167 422 90 394 b 100 371 90 378 94 372 b 140 388 106 371 135 383 b 111 356 132 381 111 368 b 122 343 111 350 117 343 l 129 346 b 196 392 151 365 168 376 b 197 385 197 390 197 386 b 117 322 197 375 117 336 b 128 310 117 315 122 310 b 199 354 133 308 190 347 l 199 344 b 118 279 186 335 118 289 b 129 268 118 272 124 268 b 199 313 143 267 189 313 b 203 307 200 313 203 308 b 208 213 204 276 204 243 b 214 207 208 210 210 207 b 219 213 217 208 219 210 b 214 308 219 243 215 278 b 240 339 224 318 229 329 b 240 336 240 338 240 338 l 242 329 b 242 325 242 328 242 328 l 240 322 b 215 299 233 318 215 307 b 226 285 215 292 221 285 b 242 293 233 285 239 293 l 242 292 b 279 175 246 269 244 178 l 286 178 b 296 200 292 181 296 193 b 285 214 296 207 292 213 b 276 210 282 214 278 211 b 264 308 267 243 264 275 l 268 311 b 286 247 269 299 271 250 b 296 254 290 247 294 249 b 313 200 297 242 296 201 b 336 236 324 200 336 228 b 335 260 336 243 335 251 b 347 236 338 247 340 236 b 360 247 354 236 360 240 b 354 314 360 268 354 293 b 354 329 354 319 354 325 l 356 358 b 356 372 356 364 356 368 b 539 418 401 399 483 422 b 628 372 572 415 603 394 b 621 364 624 371 621 368 b 628 314 621 349 628 331 b 601 211 628 278 615 243 b 501 128 571 179 538 151 b 368 90 478 114 397 88 b 243 117 326 93 282 97 b 185 163 239 126 197 149 b 132 225 167 182 153 208 b 118 232 128 229 124 232 b 100 219 110 233 101 228 b 90 225 97 222 93 225 b 72 214 82 225 72 222 b 97 176 72 203 89 186 b 43 199 88 181 51 197 b 32 189 38 199 33 194 l 28 189 b 18 176 21 189 18 182 b 46 140 18 167 39 149 l 51 128 b 10 158 40 136 18 157 b 7 135 -1 160 -1 143 b 43 108 18 125 32 115 b 286 -12 121 60 197 4 b 318 -17 297 -15 308 -15 b 496 13 379 -21 442 -11 b 506 6 499 10 503 7 b 425 -18 490 1 425 -6 b 433 -31 425 -24 428 -31 b 531 -10 453 -33 511 -17 z m 329 993 b 351 1000 336 996 343 999 b 329 993 342 997 332 994 z m 322 969 b 289 950 311 963 301 953 b 283 949 288 950 285 949 l 272 946 b 267 944 271 946 268 944 l 225 933 b 203 928 218 932 210 931 b 322 969 240 946 281 960 z m 718 893 b 719 896 719 894 719 894 b 701 908 719 901 706 907 b 528 951 649 935 586 947 b 613 953 556 954 585 956 b 725 917 653 949 697 942 b 622 951 696 935 639 950 b 611 947 618 951 611 953 b 618 940 613 944 615 940 b 732 892 650 938 713 921 b 736 889 733 890 735 889 b 742 896 739 890 742 893 b 751 851 747 883 751 869 b 718 893 743 868 732 881 z m 504 943 l 526 942 b 533 940 529 942 533 942 l 524 940 b 504 943 517 940 511 942 z m 397 924 l 392 924 b 397 924 393 924 396 924 z m 382 921 b 376 921 381 921 378 921 b 390 924 379 921 385 922 z m 593 914 b 601 914 593 914 599 914 b 656 899 619 913 638 907 b 649 888 651 896 650 892 b 611 906 636 894 624 900 b 593 914 608 907 593 913 z m 231 913 b 115 847 200 886 151 869 b 231 913 150 874 190 893 z m 374 897 b 318 875 367 893 322 875 l 317 875 b 374 897 317 885 364 894 z m 676 882 b 688 865 681 878 686 872 l 683 867 z m 722 851 b 711 863 722 858 717 861 b 707 874 710 867 707 871 l 708 874 b 733 839 711 872 731 843 b 722 851 726 847 722 839 z m 279 874 b 224 843 258 860 249 851 b 279 874 240 856 258 868 z m 578 842 l 576 846 b 517 865 568 863 531 864 b 513 860 514 865 513 863 l 517 854 b 567 840 526 850 567 853 b 460 700 567 792 460 701 b 465 693 460 697 463 694 b 578 842 499 700 578 806 z m 658 832 b 646 844 658 838 654 844 l 643 843 l 642 843 l 633 839 b 633 864 635 847 635 856 b 663 851 643 860 653 856 b 664 813 664 839 664 825 b 558 668 639 785 563 704 b 511 628 543 654 528 640 b 624 799 544 678 589 754 b 658 832 631 808 658 824 z m 269 836 b 288 842 275 838 282 839 b 256 822 276 835 265 829 z m 707 811 b 715 806 710 808 713 806 b 726 818 724 806 726 811 l 726 819 b 738 803 732 818 738 807 b 729 807 736 806 733 807 b 674 718 721 808 681 729 b 686 765 679 732 678 750 b 707 811 693 779 701 794 z m 221 789 l 232 800 b 247 804 242 797 246 804 b 206 754 235 786 218 772 z m 158 785 l 169 792 b 160 779 165 789 164 783 z m 813 776 b 807 781 813 779 808 781 l 803 778 b 638 563 756 696 707 628 b 635 557 636 561 635 560 b 639 551 635 556 636 551 b 813 776 665 549 813 749 z m 731 768 b 699 714 721 750 711 731 b 731 768 710 732 721 750 z m 131 735 l 142 746 b 136 733 140 742 139 738 l 124 707 b 117 694 122 703 119 699 b 119 704 118 699 118 701 l 128 725 b 129 728 128 726 128 726 l 129 732 b 131 735 131 733 131 735 z m 171 736 b 176 744 172 738 175 744 l 176 743 b 171 731 176 742 172 733 z m 646 706 b 536 557 626 658 579 582 b 507 557 526 558 517 558 b 646 706 557 603 603 653 z m 286 697 b 271 475 282 622 278 549 l 267 472 b 286 697 271 547 276 622 z m 336 528 b 346 649 336 568 342 610 b 340 531 343 608 342 571 z m 361 517 b 483 628 404 553 444 590 b 450 575 471 611 460 594 b 361 514 422 554 389 536 z m 315 613 b 308 504 314 576 313 540 l 297 496 b 315 613 299 536 307 575 z m 732 433 b 561 528 683 478 624 510 l 565 532 b 733 440 622 522 701 496 z m 475 526 b 486 524 479 526 482 525 b 435 497 478 519 442 497 b 475 526 442 503 468 526 z m 822 317 b 756 517 822 375 800 469 b 751 519 754 518 754 519 b 747 514 749 519 747 515 l 750 507 b 797 410 768 472 786 447 b 810 306 807 375 810 340 b 694 36 810 210 765 96 b 685 25 690 33 685 32 b 689 21 685 24 686 21 b 701 28 694 19 697 25 b 822 317 782 90 822 213 z m 513 514 l 521 510 l 517 506 b 515 504 517 506 515 506 b 499 504 510 504 504 503 l 497 504 b 513 514 497 507 511 513 z m 596 490 l 589 496 b 633 476 604 492 618 483 b 596 490 621 482 608 486 z m 361 457 b 358 457 360 456 360 456 b 361 457 360 456 358 458 z m 654 432 l 644 440 l 642 447 l 672 429 z m 242 415 l 240 413 b 235 411 239 411 236 411 b 242 415 235 413 240 415 z m 383 415 b 360 404 376 411 368 407 b 383 415 368 408 375 413 z m 686 406 l 697 407 l 708 396 b 686 406 703 396 690 401 z m 500 388 b 426 375 488 389 426 392 b 431 369 426 374 429 371 b 499 379 446 369 472 381 b 593 347 529 376 568 365 b 613 335 597 344 608 335 b 617 340 615 335 617 338 b 500 388 617 364 518 386 z m 213 363 l 229 375 b 231 376 229 375 231 376 l 233 378 b 235 379 233 379 235 379 l 236 374 l 211 354 z m 288 368 l 299 375 l 299 367 l 296 361 b 288 354 294 358 289 354 z m 724 372 l 724 369 l 721 371 z m 704 350 l 703 350 l 690 349 b 688 354 690 350 689 353 l 683 364 b 682 365 683 364 683 365 l 682 368 b 704 350 685 367 704 358 z m 263 354 l 265 357 l 265 340 l 263 338 z m 653 346 l 649 338 b 646 351 647 342 646 347 l 646 353 b 653 346 646 353 651 347 z m 382 264 b 386 344 388 288 386 319 b 381 350 386 347 385 350 l 375 347 b 371 267 372 321 371 293 b 376 261 371 264 374 261 z m 731 335 b 736 328 732 333 736 331 l 735 328 b 724 314 722 329 724 321 b 715 294 724 307 718 300 b 731 335 719 311 719 322 z m 289 326 l 297 332 b 296 261 296 308 296 285 b 289 326 293 282 290 304 z m 668 322 b 678 300 671 315 675 308 b 661 279 672 294 667 286 b 668 322 661 288 665 315 z m 767 275 b 767 268 767 274 767 271 l 768 256 b 768 249 768 253 768 251 b 767 221 768 239 767 229 b 760 206 760 219 756 213 b 643 54 732 135 706 97 b 767 275 710 108 764 183 z m 679 267 l 688 267 b 689 257 688 264 689 261 b 614 183 689 232 636 193 b 679 267 625 211 660 240 z m 54 249 l 54 251 b 47 256 54 254 50 256 b 39 251 44 256 39 256 b 57 233 39 247 53 233 b 63 238 60 233 63 235 b 54 249 63 240 57 246 z m 739 238 b 676 118 731 192 706 153 b 649 107 665 119 653 107 l 649 108 b 697 167 665 129 685 142 b 739 238 710 192 728 213 z m 564 226 b 558 232 564 229 561 232 b 538 215 556 232 542 218 b 339 143 486 172 410 138 b 282 154 319 144 301 150 b 276 150 279 154 276 153 b 336 133 276 138 326 133 b 556 217 426 126 490 167 b 564 226 558 219 564 221 z m 103 204 l 103 210 b 118 208 107 207 113 208 b 186 133 142 185 160 156 b 103 204 153 150 126 175 z m 653 174 b 663 186 656 179 658 182 b 544 81 635 140 592 106 b 653 174 581 110 614 149 z m 46 171 l 43 176 l 47 174 b 46 171 47 172 46 171 z m 76 144 b 65 153 75 146 65 151 b 74 164 65 156 71 163 b 188 103 121 147 149 122 b 76 144 164 113 94 144 z m 568 132 b 529 103 556 119 546 107 b 464 82 513 99 478 81 b 568 132 499 99 533 114 z m 106 90 b 111 100 108 93 110 96 l 135 89 b 131 82 133 86 131 85 b 135 72 131 79 133 74 b 106 90 125 78 115 83 z m 629 74 b 551 39 607 53 581 47 b 629 74 576 53 603 63 z m 139 69 l 157 68 b 199 42 169 56 183 49 l 194 40 b 139 69 175 49 157 58 z m 438 50 b 481 58 453 54 465 57 b 438 50 465 54 453 51 z m 258 15 l 319 11 b 396 8 346 10 371 7 b 319 7 371 6 346 4 b 258 15 299 8 279 11 z "},"C":{"ha":824,"x_min":0,"x_max":0,"o":"m 354 -32 b 361 -32 357 -32 358 -32 l 375 -36 b 585 110 442 -36 546 60 b 593 114 589 110 590 111 b 724 290 611 136 710 265 l 722 296 b 729 303 728 294 729 299 b 722 318 729 308 728 318 b 694 288 714 318 700 294 l 693 288 b 711 317 697 294 711 310 b 704 322 711 321 707 322 b 688 299 701 322 689 301 l 682 303 l 676 297 b 658 269 674 289 663 278 l 653 276 b 700 350 660 286 700 342 b 688 361 700 357 694 361 l 689 364 b 696 374 693 365 696 369 b 681 389 696 382 690 389 l 681 388 b 660 354 667 382 667 364 b 596 282 640 329 617 306 b 636 339 606 303 621 321 b 643 346 640 339 643 342 b 633 356 643 349 638 356 b 594 301 626 356 600 310 b 649 367 599 307 632 372 b 651 365 650 365 651 365 b 664 378 658 365 664 369 l 661 385 b 647 390 657 389 653 390 b 608 364 632 390 617 375 b 629 406 613 371 629 400 b 618 417 629 411 625 417 b 607 408 614 417 610 413 b 418 151 553 317 496 225 b 378 146 406 149 392 146 b 221 422 261 146 221 332 b 318 842 221 508 269 793 b 378 871 333 857 357 871 b 547 628 469 871 547 714 b 547 617 547 625 547 621 l 543 596 b 543 585 543 592 543 589 b 554 574 543 579 549 574 b 567 588 561 574 567 581 b 574 585 568 586 571 585 b 582 589 575 585 581 588 b 594 532 583 581 586 532 b 600 540 597 533 600 536 b 594 579 600 553 597 567 b 606 572 596 575 600 572 b 611 563 606 568 607 564 l 617 567 b 618 582 618 571 621 578 b 621 581 619 581 621 581 b 628 586 624 581 626 583 b 624 572 626 581 624 575 b 631 567 624 568 628 567 b 657 658 639 567 654 643 b 667 651 658 654 663 651 b 678 678 681 651 678 668 b 776 929 678 769 739 850 b 807 958 782 942 807 954 b 801 961 807 960 804 961 b 754 922 782 961 765 936 b 779 969 760 932 779 960 b 767 981 779 975 774 981 b 735 933 760 981 740 942 b 765 986 743 963 744 965 b 768 994 767 988 768 990 b 754 1004 768 1001 761 1006 b 757 1014 756 1007 757 1011 b 750 1018 757 1018 753 1018 b 733 988 746 1018 736 992 b 714 996 731 992 718 996 b 701 983 707 996 703 989 b 699 985 700 985 700 985 b 693 979 696 985 694 981 b 674 922 685 961 685 940 l 657 894 b 664 936 660 908 660 922 b 678 968 667 947 674 957 l 682 968 b 692 979 688 968 692 975 b 672 994 692 990 682 994 b 678 1017 675 1001 676 1010 l 671 1022 l 667 1019 b 658 981 661 1008 661 993 b 658 1014 653 990 658 1004 b 653 1019 658 1017 657 1021 l 650 1019 b 639 969 633 1019 638 979 l 632 964 b 638 1019 635 982 638 1000 b 629 1032 638 1025 638 1032 b 624 1017 624 1032 624 1021 b 596 824 622 978 608 856 b 561 913 588 854 576 885 b 571 925 568 914 571 918 b 563 950 571 933 567 942 b 440 1019 535 1000 497 1022 b 431 1022 438 1021 433 1022 b 256 947 397 1022 256 986 b 263 936 256 944 258 936 b 268 943 265 936 271 939 l 268 949 b 351 994 290 972 321 985 b 278 942 325 981 299 963 b 263 928 274 938 268 932 l 232 900 b 217 886 226 896 222 892 b 82 572 128 794 90 699 b 63 394 78 513 63 456 b 50 318 63 369 53 343 b 44 313 46 318 44 315 b 44 307 44 311 44 308 l 47 297 b 47 292 47 296 47 293 b 78 186 46 275 42 172 b 153 29 96 131 122 78 b 150 24 151 28 150 26 b 161 15 150 18 156 13 b 175 4 164 11 169 4 l 179 8 b 288 -43 217 -7 225 -43 b 354 -32 311 -43 335 -32 z m 488 974 b 447 993 478 986 464 993 b 429 990 442 993 435 993 l 431 996 b 453 999 438 997 446 999 b 546 935 497 999 526 971 b 488 974 531 953 511 968 z m 361 944 l 338 949 b 386 974 349 958 371 974 b 396 969 389 974 393 972 b 361 944 385 960 375 949 z m 497 917 b 458 956 482 926 471 943 l 465 956 b 476 953 469 956 474 954 b 522 882 496 932 510 907 b 497 917 513 892 501 903 z m 424 940 b 415 947 422 942 415 944 b 417 949 415 947 417 949 l 425 950 b 433 939 428 946 431 942 z m 406 931 l 410 931 l 417 929 b 421 929 418 929 419 929 l 417 926 z m 522 929 b 575 815 551 899 565 856 b 522 929 563 856 544 893 z m 319 926 b 331 928 324 928 326 928 b 339 926 332 928 339 928 b 310 915 329 921 318 918 z m 690 589 b 690 593 690 590 690 592 l 686 601 b 686 606 686 603 686 604 b 817 906 686 654 817 900 b 813 911 817 908 815 911 b 675 608 793 903 675 629 b 685 583 675 603 678 583 b 690 589 688 583 690 586 z m 318 906 b 210 747 271 861 236 806 b 296 896 235 806 267 865 b 318 906 300 901 311 904 z m 269 896 b 208 796 247 864 226 831 b 269 896 225 831 244 865 z m 47 399 b 25 475 47 399 25 444 b 122 819 25 582 72 726 b 172 885 140 853 160 865 b 174 890 174 886 174 888 b 165 894 174 894 168 894 b 119 838 160 894 124 846 b 14 483 68 750 14 588 b 43 390 14 469 22 390 b 47 399 47 390 47 396 z m 485 874 b 492 865 486 872 492 868 b 485 874 490 865 486 872 z m 496 861 l 503 863 b 518 842 508 857 515 849 l 524 828 b 496 861 522 828 499 858 z m 653 836 b 651 831 653 835 653 832 b 653 836 651 832 651 835 z m 185 814 b 186 815 185 814 186 815 l 201 835 b 185 814 201 832 188 814 z m 638 792 b 650 824 642 797 644 819 b 646 806 649 818 646 811 b 651 799 646 803 649 799 b 629 747 647 779 638 765 b 638 792 632 763 633 778 z m 272 456 b 269 506 269 472 269 489 b 375 804 269 583 297 771 b 389 807 379 806 385 807 b 413 801 397 807 406 806 b 511 622 497 758 482 694 b 517 618 513 619 514 618 b 522 626 521 619 522 622 b 503 704 522 632 506 692 b 389 819 492 747 438 819 b 326 769 361 819 340 792 b 258 490 274 683 258 590 b 267 450 258 485 257 450 z m 182 796 b 154 726 171 774 163 750 b 182 796 160 750 164 778 z m 151 761 l 106 588 b 151 761 113 647 125 707 z m 617 746 b 613 718 615 736 614 728 b 606 701 613 717 607 701 b 617 746 606 708 614 739 z m 178 425 b 253 744 178 529 207 651 b 199 417 224 647 199 518 b 375 124 199 318 249 124 b 347 119 365 121 357 119 b 256 165 313 119 279 142 b 178 425 197 225 178 344 z m 603 644 b 631 704 611 665 621 685 b 604 624 624 676 614 650 b 603 644 603 631 603 638 z m 171 638 b 188 690 175 653 181 671 b 171 638 182 674 176 656 z m 104 575 l 106 572 l 103 563 b 104 575 104 567 104 571 z m 101 465 b 115 522 101 483 113 504 b 114 468 114 504 114 486 b 125 314 114 417 118 365 b 101 465 113 361 101 417 z m 78 463 l 78 471 l 79 474 l 79 469 z m 83 338 b 83 346 82 340 83 343 l 83 365 b 89 332 86 354 88 343 z m 163 333 b 350 97 176 238 232 97 b 428 131 386 97 399 117 b 431 132 429 131 429 132 l 436 135 b 439 136 438 135 438 136 l 463 144 b 465 146 464 144 464 146 l 471 149 b 474 150 472 149 472 150 b 383 75 443 128 406 106 l 382 74 l 369 74 b 163 333 239 74 172 224 z m 90 324 l 90 325 l 92 325 l 92 319 z m 89 307 l 93 308 b 111 218 100 278 107 249 b 89 307 103 247 96 278 z m 567 296 b 519 208 550 267 535 238 b 471 174 504 196 488 183 b 567 296 506 213 538 253 z m 69 267 l 69 289 l 71 286 b 92 181 69 274 88 199 b 69 267 86 199 69 251 z m 117 267 b 140 208 124 246 131 228 b 174 110 156 178 160 142 b 117 267 144 143 122 222 z m 754 250 b 751 254 754 253 753 254 l 746 254 b 735 243 740 253 738 247 b 517 -19 665 150 596 64 b 514 -25 515 -21 514 -22 b 519 -29 514 -28 517 -29 b 754 250 539 -24 754 239 z m 456 24 b 468 33 458 25 468 29 b 460 39 468 38 464 39 b 433 24 460 39 438 25 b 546 124 457 46 539 101 l 544 129 b 594 182 563 146 579 164 b 578 156 592 178 578 160 b 583 151 578 153 582 151 b 603 174 589 151 599 169 b 454 21 565 113 514 60 z m 442 100 l 450 100 b 525 164 472 124 501 142 b 415 79 478 117 482 104 b 442 100 425 86 433 93 z m 115 138 b 176 46 122 122 161 46 l 181 50 b 258 -1 206 32 231 14 b 190 17 243 0 201 7 b 115 138 156 49 131 93 z m 64 129 b 58 124 61 129 58 126 b 113 38 58 111 106 38 b 118 46 117 38 118 42 b 69 126 106 69 85 96 b 64 129 68 128 67 129 z m 250 58 b 219 106 236 72 228 89 b 353 50 260 72 301 60 b 250 58 319 57 283 54 z m 392 39 b 424 53 403 43 414 47 l 424 50 l 393 38 z m 274 44 b 283 44 276 44 281 44 l 301 43 b 311 43 304 43 308 43 b 274 44 299 42 286 42 z m 346 25 b 376 33 350 26 375 33 l 381 33 b 349 22 371 29 360 25 z m 408 31 b 357 4 392 21 375 13 b 332 0 351 0 338 0 b 329 0 332 0 331 0 l 322 4 b 319 4 321 4 319 4 b 408 31 347 7 382 19 z m 318 19 b 328 18 321 18 324 18 b 331 17 328 18 331 18 l 329 17 b 306 15 322 15 313 15 b 288 19 304 15 288 15 z m 358 -8 b 417 6 376 -1 397 0 b 375 -14 403 -1 389 -8 z m 217 -4 b 304 -14 247 -14 274 -14 b 314 -17 306 -14 314 -15 b 288 -28 314 -18 292 -29 l 279 -32 b 217 -4 256 -31 235 -18 z m 326 -24 l 333 -26 b 315 -29 328 -28 322 -29 z "},"D":{"ha":985,"x_min":0,"x_max":0,"o":"m 456 -6 l 456 44 b 519 83 478 56 499 69 b 529 79 522 81 525 79 b 688 219 549 79 664 200 b 757 281 711 239 736 258 b 918 693 865 396 918 536 b 919 731 918 706 918 718 l 922 756 b 924 793 924 768 924 781 b 843 968 924 865 910 931 b 825 978 838 971 832 976 b 776 1014 819 986 786 1014 b 767 1011 774 1014 769 1013 b 740 1018 758 1014 750 1017 b 724 1035 736 1025 732 1035 b 713 1026 718 1035 714 1032 b 622 1039 683 1032 651 1039 b 608 1031 617 1039 608 1038 b 546 1043 589 1038 567 1043 b 510 1038 533 1043 521 1042 b 511 1040 511 1039 511 1039 b 500 1046 511 1046 504 1046 b 60 933 440 1046 104 968 b 57 929 58 932 57 931 b 68 922 57 924 64 922 b 75 928 71 922 74 925 l 86 928 l 94 925 b 100 925 96 925 99 925 b 103 928 101 925 103 926 b 97 936 103 931 99 935 b 503 1035 197 972 396 1035 b 486 1021 496 1033 486 1029 b 496 1010 486 1015 490 1010 b 547 1021 513 1010 529 1021 b 621 1000 574 1021 599 1011 b 550 1007 597 1006 574 1007 b 93 893 388 1007 240 954 b 0 851 78 886 0 875 b 11 839 0 844 6 839 b 63 863 13 839 54 860 b 71 860 65 861 68 860 b 113 875 82 860 99 872 b 81 835 100 864 76 853 b 32 758 60 818 32 786 b 43 746 32 751 35 746 b 72 794 53 746 65 785 l 79 785 b 60 764 72 781 60 774 b 74 754 60 758 65 754 l 76 756 l 78 756 l 128 793 b 139 783 129 788 133 785 b 236 854 143 785 224 846 b 332 878 268 861 300 869 b 385 892 344 881 381 878 l 414 900 b 175 775 335 856 253 822 b 89 735 150 760 111 756 b 75 706 81 728 75 717 b 89 694 75 697 81 692 b 86 683 89 692 86 685 b 97 671 86 676 89 671 b 110 681 103 671 107 675 b 188 756 122 710 163 738 b 226 771 199 764 214 765 b 140 664 203 750 140 697 b 161 646 140 653 150 646 b 169 656 167 646 169 651 b 164 665 169 658 167 663 b 288 792 171 690 264 782 b 506 828 342 815 446 828 b 753 610 661 828 753 782 b 738 503 753 575 747 536 b 711 458 735 494 717 467 b 460 188 643 356 553 268 b 472 399 461 225 464 375 b 475 404 474 400 475 403 b 469 410 475 407 472 410 b 461 404 467 410 463 406 b 449 178 450 390 454 210 b 433 165 447 172 438 168 b 431 333 431 221 431 278 b 432 472 431 379 429 426 b 435 485 432 474 433 485 l 435 483 b 447 438 436 475 438 438 l 453 443 b 454 458 454 449 454 454 b 453 494 454 471 454 482 l 450 518 b 449 554 449 531 449 542 b 485 711 449 567 479 689 b 496 726 493 711 496 719 b 485 747 496 735 494 747 b 436 599 461 747 442 622 b 460 763 436 654 442 708 b 472 774 467 763 472 767 b 460 786 472 779 467 786 b 421 692 428 786 429 713 b 415 681 419 688 415 685 b 401 689 413 686 407 690 b 404 717 403 699 404 707 b 411 731 410 719 411 725 b 400 751 411 739 410 751 b 386 740 393 751 389 746 b 350 349 378 717 350 390 b 372 257 350 315 361 286 b 346 158 353 260 347 175 l 346 207 b 369 676 346 364 357 521 b 372 686 372 679 372 682 b 360 710 372 694 371 710 b 347 674 346 710 347 683 b 324 310 339 553 328 432 b 325 79 321 233 324 156 l 297 60 b 283 469 290 196 283 333 b 293 479 283 478 293 472 b 285 488 293 483 288 488 b 272 460 272 488 272 468 b 286 53 272 325 279 188 b 211 -1 275 46 211 7 b 222 -12 211 -7 215 -12 b 288 26 229 -12 279 19 l 288 22 b 267 -6 282 17 267 3 b 278 -17 267 -11 272 -17 b 290 -4 285 -17 288 -10 b 303 -19 293 -4 293 -21 l 306 -22 b 289 -43 300 -28 289 -36 b 301 -54 289 -50 293 -54 l 304 -53 b 326 -35 313 -47 319 -42 b 338 -68 326 -44 322 -68 b 346 -64 340 -68 344 -65 b 367 -87 350 -71 357 -87 b 376 -76 372 -87 376 -82 b 360 -7 376 -75 361 -28 b 417 22 376 6 399 13 b 415 -74 418 -10 415 -42 b 426 -86 415 -81 419 -86 b 439 33 449 -86 440 15 l 444 38 l 444 -11 b 446 -128 444 -49 442 -90 b 451 -135 446 -131 447 -135 b 456 -6 460 -131 456 -24 z m 636 1019 b 650 1018 640 1018 646 1018 l 640 1017 z m 714 1000 b 724 997 717 1000 721 999 z m 751 993 l 750 994 b 753 996 750 996 753 996 b 756 996 754 996 754 996 l 760 994 b 763 994 761 994 763 994 l 764 992 z m 574 978 l 578 976 b 579 976 578 976 579 976 l 594 976 b 596 976 596 976 596 976 l 600 975 b 594 974 600 974 597 974 b 574 978 588 974 579 975 z m 408 972 l 268 939 b 408 972 314 953 361 965 z m 767 968 b 822 938 813 960 793 968 b 767 968 804 947 785 957 z m 644 961 l 658 964 b 771 911 699 953 736 935 l 776 901 b 775 894 775 900 775 897 b 789 885 775 888 782 883 b 833 828 803 865 817 844 b 828 806 832 821 831 813 b 644 961 797 886 722 933 z m 369 932 b 508 958 417 951 457 958 b 544 957 521 958 532 958 b 421 925 519 947 453 925 b 369 932 404 925 386 929 z m 788 813 b 700 886 765 843 735 869 b 543 933 681 926 582 929 l 596 950 b 804 806 679 933 767 885 z m 786 931 b 846 897 790 931 839 901 b 843 875 846 890 844 882 b 793 922 828 892 810 906 b 786 931 790 925 782 931 z m 872 903 l 875 911 b 889 885 881 903 885 894 b 872 903 883 892 879 897 z m 332 911 b 365 910 343 911 354 911 b 304 896 344 904 325 900 b 332 911 310 900 325 911 z m 149 874 b 283 911 174 897 249 908 b 193 868 256 890 228 874 b 199 878 196 871 199 875 b 189 889 199 883 194 889 b 149 874 181 889 156 878 z m 440 882 b 446 881 442 881 444 881 l 458 881 l 483 885 b 681 854 550 885 617 878 b 613 864 658 858 636 864 b 564 847 600 864 568 863 b 508 850 546 849 526 850 b 340 831 451 850 396 843 l 403 868 b 440 882 414 875 429 876 z m 890 813 b 890 824 890 817 890 821 l 888 844 b 888 854 888 849 888 851 l 897 856 b 901 774 901 829 901 801 b 890 813 896 788 890 799 z m 607 842 b 740 808 653 842 699 826 b 786 661 767 772 786 706 b 775 624 786 649 778 636 b 607 842 767 738 728 819 z m 143 829 l 100 800 b 143 829 113 813 128 822 z m 226 693 b 274 721 231 693 267 717 b 357 767 300 738 329 751 b 422 807 367 772 422 799 b 417 813 422 810 419 813 l 411 810 b 219 697 392 793 219 711 b 226 693 221 694 224 693 z m 868 796 b 893 706 882 768 893 738 b 892 683 893 697 893 690 b 869 694 888 686 875 694 b 860 674 854 694 860 682 b 851 649 860 667 857 653 b 868 796 857 697 864 747 z m 783 778 b 801 711 794 757 800 735 b 783 778 797 733 792 757 z m 808 778 l 814 775 b 817 761 817 771 817 765 l 817 757 z m 635 419 b 701 607 676 485 701 526 b 622 776 701 654 690 776 b 615 772 619 776 615 776 b 649 756 618 764 640 763 b 690 614 679 732 690 650 b 624 422 690 513 624 426 b 629 417 624 418 626 417 z m 840 761 b 842 767 840 763 842 764 b 842 754 842 763 842 758 z m 117 726 b 99 707 111 721 103 714 l 97 707 b 96 708 97 707 96 707 b 117 726 96 717 110 724 z m 956 688 b 950 707 956 693 958 707 l 946 703 b 943 661 942 693 943 672 b 914 488 942 603 933 543 b 840 315 904 460 840 321 b 846 310 840 313 843 310 b 851 315 847 310 850 314 b 956 688 915 428 956 558 z m 325 632 b 331 675 325 649 331 665 b 325 682 331 678 329 682 l 321 679 b 314 643 314 668 314 656 b 315 488 314 622 313 497 b 322 482 317 485 318 482 b 325 632 331 485 325 610 z m 836 514 l 833 525 b 882 664 851 564 871 622 l 888 660 b 724 296 863 528 806 401 b 836 514 751 340 824 468 z m 839 633 l 847 636 b 831 600 847 628 835 608 z m 775 611 b 785 606 778 608 782 607 b 774 576 782 596 778 586 b 775 611 775 588 775 600 z m 271 574 l 264 576 b 271 583 267 578 271 581 b 267 589 271 586 268 589 b 246 578 261 589 246 583 b 269 564 246 568 263 564 b 274 569 272 564 274 565 z m 390 572 b 385 506 390 550 388 528 b 385 510 385 507 385 508 l 386 518 b 386 522 386 519 386 521 l 389 556 b 389 560 389 557 389 558 l 390 568 b 390 572 390 569 390 571 z m 794 567 l 796 561 b 744 454 782 524 764 489 b 794 567 756 493 778 529 z m 863 494 b 814 393 850 460 833 425 b 863 494 832 426 849 460 z m 460 158 b 669 367 535 222 607 290 b 461 139 603 269 533 221 l 458 135 b 458 138 458 136 458 136 l 457 146 b 460 158 457 151 457 153 z m 407 336 b 411 147 407 274 408 210 b 397 136 407 143 403 138 b 407 336 397 201 397 272 z m 493 -7 b 815 242 497 8 815 214 b 807 246 815 247 810 246 b 763 208 804 246 768 214 b 599 83 711 163 656 122 b 769 231 657 132 717 176 b 818 279 781 243 804 272 b 832 285 824 279 832 278 l 828 290 l 821 292 b 674 158 810 292 696 176 b 511 25 619 114 564 71 b 482 -6 501 17 482 7 b 489 -11 482 -8 486 -11 z m 668 251 b 635 208 657 238 647 219 b 521 136 603 181 557 160 b 558 172 533 147 543 164 b 668 251 599 194 636 219 z m 625 250 l 632 249 b 608 229 629 247 610 229 l 610 231 b 625 250 615 236 621 243 z m 435 136 l 447 146 b 447 133 447 142 447 138 l 446 110 b 446 97 446 106 446 101 l 436 90 b 436 101 436 94 436 97 l 435 125 b 435 136 435 129 435 132 z m 457 126 b 471 119 461 121 464 118 b 457 107 468 117 460 107 z m 396 106 b 413 118 401 110 407 114 b 413 108 413 115 413 111 l 414 90 b 413 81 414 88 414 83 l 411 79 b 410 79 411 79 410 79 l 401 76 b 400 76 401 76 401 76 l 399 75 b 397 82 397 78 397 81 l 396 94 z m 456 74 b 504 99 472 81 488 90 l 456 69 z m 364 64 l 360 64 l 360 68 z m 438 60 b 444 65 439 61 443 65 l 444 64 z m 299 33 b 325 51 308 39 317 46 l 325 47 b 299 32 315 43 307 38 z m 361 39 l 374 44 b 376 39 375 43 376 40 l 376 36 b 358 22 371 32 365 26 l 358 32 z m 301 6 b 325 22 304 13 318 19 l 326 4 b 306 -6 322 0 311 -4 z "},"E":{"ha":772,"x_min":0,"x_max":0,"o":"m 175 -33 b 192 -19 183 -35 192 -28 b 186 -11 192 -17 189 -12 l 186 -4 b 529 22 301 0 415 13 b 703 24 586 28 646 24 b 715 36 710 24 715 29 b 700 46 715 44 707 47 b 657 57 700 64 668 57 b 650 57 654 57 653 57 l 635 58 b 628 58 632 58 631 58 b 717 72 643 60 717 56 b 690 83 717 85 699 83 l 672 83 b 603 78 649 82 625 82 b 569 72 592 76 579 72 b 567 72 568 72 567 72 b 571 75 567 74 569 75 b 710 103 615 88 665 89 b 719 115 715 104 719 110 b 708 126 719 122 715 126 b 697 124 707 126 703 125 b 713 136 706 126 713 131 b 708 146 713 140 710 143 b 726 138 715 146 719 138 b 736 147 732 138 736 142 b 715 168 736 158 724 165 l 717 172 b 704 185 717 178 711 185 l 706 193 b 701 199 704 194 701 199 b 710 214 701 206 710 204 b 700 224 710 219 706 224 b 632 199 694 224 644 201 b 276 142 517 168 396 153 b 276 151 276 146 276 149 l 278 172 b 278 182 278 175 278 179 b 503 221 351 194 431 203 b 510 226 506 222 510 224 b 503 232 508 229 506 232 b 279 193 456 232 333 203 b 290 426 282 271 286 349 b 511 458 364 436 439 444 b 518 474 518 460 522 468 b 622 463 551 471 589 463 b 636 474 629 463 636 465 b 625 485 636 481 631 483 b 471 500 575 493 522 497 b 632 507 524 501 581 500 b 643 518 638 508 643 513 b 624 529 643 531 632 529 l 624 532 l 626 536 l 626 538 l 624 544 b 636 557 629 546 636 550 b 625 568 636 563 631 568 b 615 568 622 568 618 568 l 597 565 l 581 565 l 567 563 b 560 563 564 563 563 563 b 564 571 563 565 564 568 b 551 582 564 578 558 582 b 499 565 544 582 511 565 b 457 567 485 565 471 568 l 546 592 l 547 592 l 550 590 b 567 607 560 590 567 599 b 556 617 567 614 563 617 b 297 551 551 617 325 558 b 307 767 301 628 307 690 b 293 779 307 774 300 781 b 294 793 294 785 294 789 l 299 822 b 299 825 299 824 299 825 l 300 833 b 300 836 300 833 300 835 b 353 842 318 836 335 842 b 664 804 456 842 564 824 b 722 796 683 800 703 796 b 736 806 729 796 736 799 b 721 818 736 814 728 818 b 632 833 692 818 660 828 b 497 854 588 842 542 849 b 582 857 525 854 554 854 b 622 844 585 844 613 846 b 717 829 651 840 688 829 b 725 840 722 829 725 836 b 671 860 725 854 682 857 l 674 864 b 739 840 694 863 736 840 b 749 853 744 840 749 847 l 746 861 b 715 878 736 868 725 872 b 721 888 719 881 721 883 b 717 897 721 892 718 894 l 721 897 b 731 907 725 897 731 901 b 704 929 726 919 717 926 l 704 933 b 697 943 704 936 701 943 b 689 943 694 943 692 943 l 672 940 b 664 940 669 940 667 940 b 543 949 625 940 583 947 b 746 961 575 960 703 957 b 757 972 751 961 757 965 b 738 983 757 983 746 985 b 739 990 739 985 739 988 b 714 1019 739 1003 724 1014 b 765 1040 725 1022 765 1028 b 756 1051 765 1046 761 1051 l 751 1051 b 717 1044 740 1050 728 1047 l 649 1029 b 640 1028 646 1029 643 1028 l 622 1024 b 468 996 571 1014 519 1004 l 322 971 l 326 1007 b 443 1026 364 1010 407 1015 b 449 1032 446 1028 449 1029 b 440 1038 447 1036 444 1038 b 329 1018 415 1038 360 1021 b 318 1040 329 1026 328 1040 b 307 1019 306 1040 307 1028 b 304 1015 307 1018 307 1017 b 104 981 272 1006 126 992 b 97 969 100 978 97 975 b 103 964 97 968 100 964 l 108 969 b 199 988 135 981 171 982 b 190 946 192 975 190 960 b 72 915 163 942 89 935 b 7 889 58 914 7 906 b 29 869 7 878 19 869 b 38 886 38 869 40 879 b 47 888 40 888 44 888 l 64 892 b 67 892 65 892 65 892 l 71 893 b 82 890 76 892 79 890 b 89 894 85 890 88 893 b 190 907 122 900 157 903 l 190 875 b 22 863 169 875 35 871 b 15 849 18 860 15 854 b 24 835 15 843 18 838 b 21 824 22 832 21 828 b 31 814 21 818 25 814 b 42 821 35 814 39 817 b 110 829 63 826 88 826 b 89 804 100 824 89 817 b 110 788 89 796 101 788 b 119 799 115 788 119 794 l 115 807 b 190 822 128 814 174 821 b 199 633 192 754 199 701 b 199 614 199 626 199 621 l 194 572 b 194 553 194 565 194 560 l 147 553 b 156 675 150 593 149 635 b 168 663 160 671 161 663 b 172 671 172 663 172 668 b 153 686 172 676 158 686 b 136 553 139 686 136 574 b 117 528 125 551 103 543 l 110 529 b 93 540 106 535 100 540 b 79 526 86 540 79 533 b 94 510 79 518 88 513 l 96 506 b 92 490 92 503 90 496 b 72 475 83 489 72 486 b 83 461 72 468 78 463 b 76 449 81 457 76 454 b 86 439 76 443 82 439 b 125 460 99 439 107 460 l 131 460 b 129 433 129 451 129 442 b 124 433 128 433 126 433 l 111 435 b 92 422 103 435 92 435 b 104 411 92 415 99 413 b 82 374 93 404 82 388 b 94 363 82 367 88 363 b 126 397 106 363 106 388 b 122 281 124 358 122 319 b 129 244 122 275 119 244 l 135 249 b 133 289 133 263 133 275 b 138 401 133 326 135 364 b 185 414 153 407 168 413 b 181 354 183 394 182 374 l 171 235 b 167 175 169 215 168 194 b 74 142 142 169 74 169 b 81 128 74 138 74 128 l 85 132 l 86 147 b 167 163 113 154 140 158 l 163 100 b 117 103 147 101 132 103 b 51 90 106 103 51 104 b 67 78 51 82 60 78 b 29 50 54 74 22 69 b 14 31 25 46 14 38 b 26 19 14 25 19 19 l 31 22 b 44 31 36 26 39 29 b 56 22 49 28 53 26 b 49 11 51 21 49 17 b 153 -4 49 -8 136 -4 b 151 -24 151 -11 151 -17 b 164 -46 151 -32 153 -46 b 175 -33 171 -46 175 -40 z m 719 982 b 613 978 683 981 649 981 b 693 1006 635 986 669 1006 b 719 982 704 1006 715 992 z m 318 947 l 601 997 b 540 972 585 990 557 975 b 394 946 492 965 443 956 b 317 940 369 940 342 943 z m 221 992 l 240 996 l 236 992 l 235 992 b 214 964 224 992 218 972 b 221 992 217 972 224 982 z m 289 965 b 296 986 290 972 292 981 l 301 985 b 299 967 301 979 300 972 b 292 965 297 965 294 965 z m 282 940 l 285 942 l 292 942 b 294 943 293 943 294 943 l 294 939 l 282 938 z m 482 925 b 501 926 488 928 496 926 l 497 926 z m 521 926 l 544 926 l 542 925 b 538 925 540 925 539 925 l 529 924 b 525 924 528 924 526 924 z m 313 903 b 419 925 347 913 383 922 l 421 917 b 308 886 394 910 329 889 z m 713 900 b 658 914 696 908 678 914 b 581 899 632 914 606 906 b 657 915 604 910 631 915 b 713 900 674 915 700 913 z m 249 913 l 254 913 l 254 910 b 251 908 253 908 253 908 b 247 911 250 908 247 910 z m 549 904 b 553 893 549 900 550 896 l 468 893 l 529 901 b 535 903 531 901 532 901 l 543 903 b 549 904 546 904 547 904 z m 288 894 l 285 882 l 272 881 b 274 890 272 883 272 888 z m 636 890 b 657 892 643 892 650 892 b 682 889 665 892 674 892 b 668 888 678 888 672 888 b 636 890 657 888 647 889 z m 38 846 l 58 846 b 38 843 51 846 44 844 z m 263 808 b 265 831 263 815 263 824 l 278 832 b 267 750 274 804 269 778 b 263 808 265 769 263 789 z m 225 826 l 238 828 b 238 822 238 826 238 824 l 239 811 b 239 806 239 810 239 807 b 222 644 239 753 228 700 b 225 826 225 711 224 760 z m 368 639 l 368 650 b 374 794 368 701 363 744 l 376 794 b 382 800 379 794 382 797 l 378 804 b 372 806 376 806 374 806 b 358 763 357 806 358 772 b 356 647 356 718 356 690 b 363 629 356 643 356 629 b 368 639 368 629 371 635 z m 235 553 b 253 717 240 607 246 663 b 254 682 253 706 253 693 l 257 660 b 258 625 258 649 258 636 b 251 551 258 601 254 575 z m 392 551 l 435 563 b 438 564 436 563 438 563 l 446 564 b 449 565 446 565 447 565 b 444 551 443 561 442 557 z m 149 524 b 150 531 150 526 150 528 l 193 531 l 192 526 b 167 522 183 525 175 522 b 149 524 161 522 154 522 z m 296 528 l 297 528 l 301 529 l 386 529 l 371 519 b 296 518 346 518 321 518 z m 592 528 l 521 524 b 560 528 533 528 547 528 z m 272 522 l 274 521 l 272 518 z m 144 493 b 176 499 156 496 165 499 l 190 499 l 189 492 l 143 488 z m 231 497 l 249 497 l 231 494 z m 118 483 l 119 489 l 122 490 l 129 490 b 132 492 131 492 132 492 l 132 485 z m 293 465 l 294 476 b 396 479 328 478 363 479 b 481 476 425 479 453 478 b 472 475 478 476 475 475 l 456 472 b 447 471 453 472 450 471 l 382 463 b 374 461 379 463 376 461 l 357 458 b 349 457 354 458 351 457 b 293 465 340 472 307 468 z m 269 474 l 269 461 l 268 460 z m 228 469 l 246 471 l 246 456 l 229 453 z m 142 461 l 189 465 b 188 439 188 457 188 447 b 140 433 172 435 156 433 b 140 440 140 436 140 438 l 142 454 b 142 461 142 457 142 458 z m 350 378 b 535 424 351 389 508 419 b 635 431 568 429 601 426 b 642 436 638 431 642 432 b 635 442 640 439 638 442 b 360 396 540 442 450 419 b 339 381 353 394 339 390 b 346 375 339 376 342 374 z m 265 422 l 268 424 b 257 190 264 346 260 268 l 251 189 b 260 306 256 228 258 267 z m 232 418 l 243 419 b 238 331 242 390 240 360 b 238 336 238 332 238 335 l 236 347 b 236 353 236 349 236 351 l 233 396 b 233 401 233 397 233 400 l 232 413 b 232 418 232 414 232 417 z m 224 233 b 229 186 225 218 226 201 l 214 183 b 224 233 218 200 221 217 z m 683 188 l 686 185 b 656 182 676 185 665 183 b 683 188 663 185 676 188 z m 253 176 l 256 178 l 256 167 b 254 163 256 165 256 163 l 254 167 l 253 174 b 253 176 253 175 253 175 z m 211 171 b 214 171 213 171 213 171 l 219 172 l 228 172 b 225 135 228 160 226 147 l 208 131 b 211 171 210 144 211 157 z m 676 161 b 664 157 672 160 668 158 l 642 149 b 629 144 638 147 633 146 b 536 126 599 138 567 132 b 676 161 581 146 628 157 z m 275 119 b 431 138 326 124 379 129 b 272 99 378 124 325 110 z m 510 136 l 504 121 b 399 106 469 115 433 110 b 510 136 436 115 474 125 z m 674 118 b 686 121 676 119 681 119 b 674 118 681 119 675 118 z m 196 97 l 199 100 l 201 100 b 224 113 207 100 214 110 l 225 94 b 196 97 215 94 206 96 z m 247 111 l 251 107 b 251 104 251 106 251 106 l 250 97 b 250 94 250 96 250 96 z m 524 101 b 489 96 518 94 499 96 b 524 101 500 99 513 100 z m 268 61 l 271 69 b 379 74 307 72 343 74 l 417 72 b 435 72 422 72 429 72 b 289 61 386 65 338 61 z m 417 47 b 461 54 432 50 446 53 b 471 51 464 53 468 51 l 474 51 b 532 68 494 60 511 64 l 532 64 b 503 46 519 61 506 60 b 481 46 496 46 488 46 l 439 47 b 417 47 432 47 424 47 z m 210 63 b 235 67 218 64 226 67 l 238 61 b 210 63 228 63 219 63 z m 183 40 b 239 36 201 40 221 38 b 229 21 233 33 231 26 b 226 21 228 21 228 21 l 221 19 b 218 19 219 19 219 19 l 194 19 b 192 19 193 19 193 19 l 186 18 b 183 18 185 18 185 18 z m 65 22 b 161 39 107 39 118 39 l 157 18 b 65 22 126 18 96 19 z m 264 33 b 342 28 290 31 315 29 b 336 28 340 28 339 28 l 326 26 b 321 26 325 26 322 26 l 279 24 b 274 24 278 24 276 24 l 264 22 b 258 22 263 22 260 22 z m 626 -8 l 622 -4 b 599 -4 614 -3 606 -4 b 465 -7 579 -4 475 -4 b 461 -12 463 -8 461 -10 l 465 -18 b 614 -15 511 -7 567 -22 b 626 -8 618 -15 626 -14 z "},"F":{"ha":718,"x_min":0,"x_max":0,"o":"m 156 117 b 168 432 156 222 160 328 b 174 226 171 364 174 294 b 163 33 174 163 163 97 b 182 -24 163 21 164 -24 b 192 -15 186 -24 190 -19 b 197 -17 193 -17 196 -17 b 208 -11 201 -17 206 -14 b 208 -18 208 -14 208 -15 l 207 -32 b 218 -49 207 -40 207 -49 b 233 36 236 -49 233 22 b 251 31 238 31 244 28 b 275 -47 253 18 260 -47 b 286 -37 281 -47 286 -43 l 286 -33 b 265 176 274 39 265 103 b 275 456 265 269 269 363 b 443 463 331 456 388 463 b 454 456 446 458 450 456 b 469 469 461 456 469 461 b 461 482 469 474 464 479 b 526 496 474 483 526 482 b 514 508 526 503 521 508 b 278 490 496 508 283 493 b 282 506 279 494 278 504 b 496 525 307 515 454 519 b 506 538 503 526 507 531 b 549 558 519 539 556 536 b 563 572 557 558 563 565 b 551 588 563 579 558 585 b 558 599 556 589 558 593 b 518 611 558 614 529 611 b 293 597 444 611 367 606 b 304 639 296 611 304 625 b 299 650 304 643 303 647 l 328 874 b 608 849 421 860 514 849 b 619 844 611 846 615 844 b 640 857 626 844 640 847 b 547 872 640 879 563 871 b 650 882 581 876 615 882 b 676 875 660 882 668 875 b 686 886 682 875 686 881 b 607 901 686 911 622 903 l 610 911 b 647 918 621 914 635 918 b 672 911 656 918 664 911 b 683 922 678 911 683 917 b 647 940 683 933 657 940 b 596 932 631 940 613 932 b 549 933 579 932 564 933 b 639 950 563 935 639 936 b 624 963 639 958 631 963 l 624 965 b 621 976 624 969 622 974 b 653 972 628 976 647 975 b 665 964 656 971 663 964 b 679 975 672 964 679 967 b 624 999 674 996 642 999 b 510 981 582 999 544 982 b 343 975 454 979 399 978 l 344 981 b 360 982 350 982 354 982 l 389 986 b 403 988 393 986 399 988 l 518 1004 b 533 1006 524 1006 528 1006 l 563 1010 b 576 1011 567 1010 572 1011 b 719 1024 624 1017 672 1019 b 732 1035 725 1024 732 1026 b 718 1046 732 1042 725 1046 b 347 1004 607 1046 461 1018 l 351 1033 b 542 1054 415 1042 479 1046 b 549 1060 544 1054 549 1056 b 540 1065 547 1064 544 1065 b 354 1044 479 1065 414 1054 b 361 1088 356 1058 361 1074 b 350 1097 361 1093 354 1097 b 331 1042 336 1097 333 1054 l 326 1040 b 331 1064 329 1047 331 1057 b 321 1075 331 1071 326 1075 b 306 1049 307 1075 307 1058 b 294 1056 304 1053 300 1056 l 290 1053 b 275 1033 285 1049 281 1035 l 271 1032 b 268 1032 269 1032 269 1032 l 250 1029 b 242 1028 247 1029 244 1029 b 229 1044 243 1035 238 1044 b 219 1039 226 1044 222 1040 l 217 1040 b 200 1021 206 1040 201 1029 b 179 1015 193 1021 186 1018 b 178 1011 178 1014 178 1013 b 181 1006 178 1010 178 1006 b 197 1010 188 1006 192 1010 b 199 1003 199 1007 199 1006 l 196 990 b 196 983 196 989 196 986 b 46 950 158 978 75 972 b 7 924 36 942 7 946 b 17 914 7 918 13 914 b 31 922 22 914 28 918 b 107 935 53 931 83 932 b 79 921 100 931 88 922 b 14 893 65 919 14 913 b 25 881 14 886 19 881 b 82 899 35 881 54 899 b 125 896 97 899 111 897 b 40 857 110 892 40 874 b 51 844 40 850 46 844 b 72 856 57 844 67 853 b 131 875 88 865 113 869 b 125 865 128 872 125 869 b 164 857 125 847 154 856 b 161 753 163 822 161 788 b 165 574 161 693 164 633 b 83 547 146 569 94 561 b 46 525 82 540 53 532 l 40 513 b 33 503 36 511 33 507 b 44 492 33 497 39 492 b 103 503 46 492 75 503 b 117 503 107 503 113 503 l 144 501 b 158 501 149 501 154 501 b 150 489 154 499 150 494 l 153 483 l 151 478 b 61 485 122 482 90 485 b 17 461 49 485 17 476 b 25 450 17 456 19 450 b 64 463 39 450 39 463 b 149 456 93 463 121 458 b 133 133 136 350 133 240 b 147 -82 133 64 133 -15 b 158 -93 149 -87 151 -93 b 169 -82 164 -93 169 -87 l 169 -78 b 156 117 164 -12 156 51 z m 325 1028 l 329 1029 b 329 1028 329 1029 329 1028 l 328 1024 b 328 1022 328 1024 328 1024 l 325 1008 b 325 1007 325 1008 325 1007 l 324 1003 b 324 1001 324 1003 324 1003 l 319 1000 b 325 1028 322 1010 324 1018 z m 297 1025 l 301 1026 b 290 996 300 1019 300 996 l 288 997 b 297 1025 289 1007 293 1015 z m 236 1017 l 272 1021 b 261 993 268 1013 264 1003 l 232 989 z m 293 974 l 292 972 l 281 971 b 293 974 285 972 289 974 z m 338 944 l 340 953 b 492 958 390 956 442 957 b 500 956 494 957 497 956 b 550 960 515 956 532 960 b 582 958 560 960 571 958 b 367 943 521 954 424 943 b 360 943 364 943 363 943 l 344 944 b 338 944 342 944 340 944 z m 315 946 b 310 947 314 946 310 946 b 317 951 311 950 314 951 z m 278 949 l 289 950 l 289 949 b 278 949 289 947 279 947 z m 226 929 l 251 928 l 250 926 b 249 926 250 926 249 926 l 246 925 b 244 925 246 925 244 925 l 232 922 b 226 921 231 922 229 921 z m 125 918 b 175 929 140 925 158 929 l 169 917 b 125 918 154 918 140 918 z m 336 917 l 343 917 l 360 919 b 367 919 363 919 364 919 b 469 915 401 919 436 917 b 333 900 424 911 379 906 z m 304 911 l 311 913 b 310 901 310 908 310 906 l 304 900 z m 279 908 b 281 907 281 907 281 907 l 281 906 l 271 906 b 279 908 274 907 276 908 z m 575 899 l 576 899 b 572 897 576 897 574 897 l 563 897 b 575 899 567 899 571 899 z m 400 886 b 535 897 444 892 490 894 l 538 893 b 426 882 524 892 428 883 z m 224 889 l 232 889 b 235 888 232 888 235 888 l 233 888 l 224 886 z m 189 882 b 189 885 188 882 189 885 z m 167 885 l 164 879 b 135 876 154 878 144 876 z m 297 872 l 306 874 b 269 593 293 781 281 686 l 258 592 b 297 872 258 685 281 781 z m 269 869 l 275 871 l 267 826 b 267 829 267 828 267 828 l 268 835 b 268 838 268 836 268 836 l 268 858 b 269 869 268 863 269 867 z m 224 864 l 247 867 b 225 586 242 776 249 674 l 222 585 b 221 725 221 631 221 678 b 224 864 221 771 222 818 z m 383 839 b 379 843 383 842 381 843 b 374 838 376 843 375 839 b 336 658 361 808 336 690 b 342 651 336 656 338 651 b 347 657 344 651 347 654 b 357 732 351 682 351 707 b 383 835 365 767 378 801 z m 199 632 b 199 581 201 617 199 597 z m 286 550 b 394 561 322 554 358 558 b 367 556 386 560 376 557 l 313 547 b 306 546 310 547 308 546 l 292 543 b 285 542 289 543 288 542 z m 260 546 l 261 546 b 261 543 261 546 261 544 b 257 536 261 540 260 536 z m 200 538 b 197 528 201 538 200 528 b 200 538 196 528 197 538 z m 111 525 b 165 532 129 526 147 529 l 165 524 b 151 524 161 524 156 524 l 125 525 b 111 525 121 525 115 525 z m 197 478 l 197 496 l 200 499 b 200 493 200 497 200 494 l 199 482 b 199 476 199 481 199 478 z m 231 476 b 233 485 232 478 233 482 l 233 478 z m 197 454 l 199 453 b 199 439 199 449 199 443 l 197 410 z m 228 453 l 232 454 b 197 49 232 306 217 201 l 197 90 b 199 131 197 103 197 117 b 228 453 214 238 213 346 z m 617 443 l 611 450 b 361 422 576 446 371 440 b 360 418 360 421 360 419 b 368 414 360 415 365 414 l 371 415 b 540 433 426 431 485 432 b 617 443 551 433 617 433 z m 119 394 l 125 401 b 119 406 125 403 121 406 b 108 385 107 406 108 394 b 100 -74 103 232 100 79 b 106 -81 100 -76 101 -81 b 111 -74 108 -79 111 -76 b 113 26 114 -42 113 -6 b 114 99 114 50 114 75 l 115 243 b 115 261 115 249 115 256 l 117 297 b 117 315 117 303 117 310 b 119 394 118 342 117 368 z m 351 265 b 346 271 351 268 350 272 l 342 268 b 328 89 336 240 328 119 b 332 82 328 86 329 82 b 338 88 335 82 338 86 b 351 265 343 100 351 240 z m 196 38 l 196 44 l 197 47 l 197 43 z m 185 19 l 194 25 b 189 -1 192 18 189 6 b 185 19 186 6 185 13 z m 347 -26 b 340 -12 347 -22 346 -12 l 335 -18 b 342 -32 335 -22 335 -32 b 347 -26 344 -32 347 -29 z "},"G":{"ha":872,"x_min":0,"x_max":0,"o":"m 324 -24 b 439 38 369 -11 400 14 b 625 254 533 93 574 158 b 628 31 626 225 625 39 b 625 0 626 21 625 10 b 636 -18 625 -8 626 -18 b 647 4 653 -19 647 -4 b 682 197 647 67 671 138 l 688 188 b 663 43 679 142 663 89 b 678 17 663 33 665 18 b 689 28 685 17 689 22 b 685 39 689 31 686 36 b 707 172 685 83 700 129 b 717 183 713 174 717 178 b 711 193 717 186 713 192 b 733 358 724 249 733 301 b 742 388 733 376 747 374 l 744 394 b 756 393 749 394 753 393 l 776 390 b 786 389 781 390 783 389 b 794 400 792 389 794 396 b 753 417 794 417 763 415 b 756 422 754 417 756 419 b 735 433 756 438 743 433 l 728 438 b 733 439 729 438 732 438 l 743 439 b 749 440 746 440 747 440 l 789 446 b 810 449 796 447 803 449 b 818 444 813 447 815 446 b 832 460 825 444 832 453 b 819 471 832 467 826 471 b 690 454 799 474 715 458 l 688 458 b 826 492 738 478 768 483 b 833 489 829 490 831 489 b 849 506 842 488 849 497 b 825 515 849 518 833 517 b 863 531 836 519 863 518 b 857 540 863 533 860 539 b 865 551 861 542 865 547 b 856 564 865 557 861 564 b 813 553 843 565 825 556 b 701 538 776 544 739 540 b 694 539 700 539 697 539 b 664 532 683 540 675 532 b 661 532 663 532 663 532 l 656 531 b 653 531 654 531 654 531 l 631 531 b 628 531 629 531 629 531 l 622 529 b 619 529 621 529 621 529 b 604 518 614 528 601 526 b 349 419 549 503 375 471 b 335 406 342 417 335 414 b 344 392 335 400 339 393 b 339 379 342 388 339 385 b 351 367 339 374 344 368 l 358 369 l 372 388 l 381 389 b 378 381 378 386 378 383 b 383 369 378 376 379 374 b 338 335 369 364 338 351 b 349 319 338 326 339 321 b 378 343 356 319 365 338 b 503 390 417 361 461 376 b 424 311 482 376 424 338 b 435 299 424 304 428 299 b 449 317 446 297 444 311 b 564 393 458 335 543 392 b 572 393 567 393 569 393 l 588 394 b 596 394 590 394 593 394 b 294 104 547 311 400 94 b 219 240 236 110 219 194 b 574 933 219 471 400 778 b 578 940 576 935 578 938 b 567 954 578 946 572 954 b 397 768 538 957 415 793 b 261 517 343 690 296 606 b 501 921 311 675 383 807 b 524 946 508 928 531 926 b 578 963 542 953 560 957 b 610 757 593 890 607 832 b 629 706 610 747 613 704 l 636 708 b 650 703 639 704 644 700 l 656 692 b 651 693 654 693 653 693 b 640 682 646 693 640 688 b 656 667 640 675 649 667 b 667 678 663 665 667 671 l 675 676 l 682 679 l 686 679 b 706 703 701 679 701 692 b 769 983 715 736 769 957 b 757 1000 769 992 768 1003 b 775 1043 763 1015 767 1031 b 804 1065 783 1057 804 1054 b 790 1079 804 1074 797 1079 b 754 1053 774 1081 761 1065 b 725 996 743 1051 731 1008 l 717 994 b 738 1061 722 1015 726 1043 b 743 1060 739 1060 742 1060 b 756 1069 749 1060 754 1063 l 751 1078 b 736 1086 747 1082 742 1085 b 722 1079 731 1086 725 1083 b 707 1089 719 1086 714 1089 b 679 1074 694 1090 686 1083 b 669 1042 669 1069 669 1051 b 646 950 668 1011 651 981 b 656 1060 650 986 654 1024 b 665 1071 661 1060 665 1064 l 663 1075 b 644 1092 658 1081 651 1092 b 633 1071 629 1093 633 1079 b 626 996 633 1046 629 1019 b 626 1015 626 1003 626 1008 l 625 1054 l 625 1086 b 631 1096 628 1089 631 1092 b 618 1108 631 1103 624 1108 b 601 1069 601 1110 601 1081 l 597 1069 b 589 1044 586 1069 588 1051 l 576 1050 l 568 1049 l 563 1040 b 540 1046 556 1043 547 1046 b 389 988 485 1051 429 1019 l 378 981 b 244 861 324 950 283 910 b 71 364 126 717 71 558 b 188 -19 71 294 101 -12 b 194 -19 190 -21 192 -19 l 203 -14 b 258 -32 219 -24 239 -31 b 293 -31 269 -33 282 -32 b 335 -54 303 -36 326 -53 b 344 -43 340 -54 344 -49 b 324 -24 344 -35 329 -28 z m 481 1067 b 471 1074 479 1071 475 1074 b 375 1039 463 1074 386 1044 b 49 632 208 956 104 807 l 47 631 b 53 625 47 626 51 625 b 60 628 56 625 58 628 b 89 697 71 650 79 675 b 350 1011 154 843 207 925 b 476 1063 390 1035 433 1047 b 481 1067 479 1064 481 1064 z m 701 1065 l 714 1065 b 685 956 701 1032 692 992 b 701 1065 686 981 688 1049 z m 588 1025 b 593 1039 593 1026 596 1033 l 596 1036 l 600 1006 b 588 1025 596 1013 593 1018 z m 832 1017 b 838 1014 835 1014 836 1014 b 844 1025 843 1014 844 1024 b 838 1036 844 1029 843 1036 b 825 1029 832 1038 828 1033 b 747 707 813 1013 747 733 b 753 699 747 704 747 699 b 758 704 756 699 757 701 b 774 779 765 728 768 757 b 832 1017 790 858 806 942 z m 496 1018 b 544 1022 511 1022 528 1022 l 553 1022 b 507 1014 538 1021 522 1018 z m 565 1004 b 563 1003 565 1004 563 1003 l 554 1003 b 564 1004 554 1004 563 1004 z m 181 658 l 181 668 b 192 686 188 672 189 679 b 283 843 213 743 247 796 l 289 838 l 294 840 b 499 990 328 881 449 979 b 507 985 500 988 503 985 b 543 990 517 983 533 988 b 457 942 511 981 483 961 l 456 942 b 360 875 419 925 389 899 b 158 579 268 800 199 693 b 181 658 164 607 171 633 z m 465 990 b 311 878 415 963 350 917 b 465 990 365 938 385 967 z m 599 967 l 603 969 b 603 968 603 969 603 968 l 604 964 b 604 963 604 964 604 964 l 604 947 l 600 960 b 599 967 600 963 600 965 z m 451 906 b 303 696 394 843 340 774 l 296 697 b 201 539 271 703 211 563 b 451 906 269 708 308 789 z m 686 857 l 689 860 b 688 842 686 853 685 850 l 683 831 b 686 857 683 839 685 849 z m 675 733 b 718 856 675 753 710 832 b 681 701 707 803 694 751 b 675 733 679 713 675 724 z m 649 843 l 653 836 l 643 797 b 649 843 644 813 646 828 z m 669 811 l 674 807 l 663 774 l 663 775 b 669 811 663 786 667 800 z m 213 781 b 121 465 157 686 126 576 l 121 463 b 100 372 114 432 103 404 l 93 360 b 213 781 94 510 132 660 z m 335 497 b 475 757 356 581 411 703 b 478 760 476 758 476 760 l 483 764 b 486 765 485 765 486 765 b 488 771 488 767 488 768 b 479 775 488 776 482 775 b 456 753 476 776 458 756 b 367 621 421 713 388 671 b 324 501 358 601 324 517 b 331 496 324 499 326 496 z m 179 382 b 281 650 179 443 250 596 b 182 364 244 567 199 453 l 186 353 l 181 329 b 179 382 178 346 179 365 z m 769 514 b 704 496 747 507 728 500 z m 676 513 l 681 513 b 671 510 678 511 674 511 l 651 504 b 642 501 649 503 644 503 l 565 476 b 556 474 563 475 558 475 l 536 468 b 526 465 533 467 529 467 b 385 422 479 450 435 428 b 676 513 436 460 606 493 z m 617 456 b 531 436 586 446 564 439 b 617 456 558 444 588 450 z m 303 428 b 310 438 303 432 310 433 l 306 443 l 304 443 b 290 428 294 444 290 435 b 300 414 290 422 293 414 b 303 428 310 413 303 424 z m 158 417 b 151 322 156 386 151 354 b 149 374 149 339 149 357 b 158 417 149 389 154 404 z m 672 350 l 703 394 b 671 251 692 346 681 299 b 672 350 672 285 672 317 z m 617 385 b 617 379 617 383 617 381 l 619 368 b 619 361 619 367 619 364 l 618 358 b 390 106 588 288 453 147 b 332 86 374 94 353 85 b 617 385 436 114 564 293 z m 211 354 b 197 225 201 313 196 269 b 188 268 193 238 188 254 b 211 354 188 275 208 342 z m 743 28 b 786 339 743 99 768 276 b 794 343 789 339 794 340 l 790 349 b 785 351 789 349 788 350 b 769 310 771 351 771 319 b 732 32 756 219 732 125 b 739 7 732 28 731 8 b 743 28 747 7 743 22 z m 32 294 b 38 299 35 294 38 294 b 28 310 38 304 32 310 l 22 308 b 21 300 21 306 21 303 b 89 38 21 225 46 101 b 128 -11 94 29 121 -10 b 132 -6 131 -11 132 -8 b 78 78 132 -6 86 61 b 32 294 50 135 36 233 z m 650 304 l 650 303 b 647 243 650 283 649 263 b 647 257 647 247 647 253 l 646 282 b 650 304 646 292 646 304 z m 154 303 l 160 297 l 164 274 b 161 263 164 272 163 263 l 161 264 b 154 303 157 275 157 289 z m 601 283 l 596 282 l 606 296 b 601 283 606 294 603 286 z m 582 264 b 382 71 533 182 479 97 b 368 68 378 69 372 68 b 582 264 456 108 524 189 z m 124 214 b 133 246 133 217 132 238 l 138 188 b 124 214 132 196 128 204 z m 175 221 b 317 65 196 158 249 81 b 175 215 240 78 194 143 z m 110 193 b 136 144 118 178 126 160 l 135 128 b 128 117 132 125 129 121 b 110 193 119 143 114 168 z m 179 114 b 182 121 181 115 182 118 b 171 139 182 128 176 135 b 163 158 160 139 163 150 l 163 167 b 164 178 163 168 163 178 b 240 71 189 135 200 101 b 347 42 271 49 311 39 b 283 33 326 35 306 32 b 179 114 231 39 206 71 z m 575 85 b 579 90 578 83 579 88 b 571 106 579 94 576 104 b 550 -56 563 100 550 -36 b 554 -61 550 -58 551 -61 b 561 -56 557 -61 560 -58 b 575 85 564 -49 574 67 z m 144 67 l 153 57 b 158 40 154 51 156 46 b 160 32 160 35 161 32 l 160 33 b 144 67 154 46 149 56 z m 185 32 b 264 -10 217 11 231 17 l 260 -10 b 185 32 233 -10 199 6 z m 288 1 b 332 4 303 0 317 3 b 299 -6 321 -1 310 -4 z "},"H":{"ha":864,"x_min":0,"x_max":0,"o":"m 126 536 b 115 651 126 574 118 614 b 86 954 104 751 92 853 l 85 982 b 89 1029 85 997 86 1014 b 97 1047 90 1036 97 1046 b 90 1053 96 1050 93 1053 b 74 976 72 1053 74 989 b 79 885 74 946 76 915 b 115 535 90 768 101 651 b 121 529 115 532 117 529 b 126 536 124 531 126 533 z m 718 100 b 733 121 731 99 733 111 b 725 357 733 200 725 279 b 735 442 725 385 732 414 b 756 457 742 444 756 447 b 738 468 756 467 746 471 b 739 493 738 476 738 485 l 742 510 b 743 535 743 518 743 526 b 761 715 743 588 754 661 b 768 714 763 714 765 714 b 779 725 774 714 779 718 b 754 740 779 735 761 739 b 792 946 765 808 778 878 b 794 956 793 949 794 951 b 783 969 794 961 790 969 b 756 878 768 969 758 892 b 760 947 756 901 758 924 b 767 957 763 950 767 953 b 761 967 767 960 763 965 b 765 994 763 974 761 989 b 771 1004 768 997 771 1000 b 758 1014 771 1010 764 1014 b 739 971 739 1014 742 983 l 738 972 l 738 983 b 747 1015 738 1001 747 1010 b 735 1025 747 1021 740 1025 b 715 964 713 1025 715 979 b 707 947 710 961 707 954 b 707 958 707 951 707 954 l 706 982 b 706 993 706 986 706 989 b 713 1006 710 996 713 1000 b 690 1021 713 1011 696 1021 b 682 1017 688 1021 683 1018 l 667 1025 l 657 1021 b 647 1028 656 1025 651 1028 b 638 1021 643 1028 639 1025 b 636 1015 638 1019 638 1015 b 625 1021 633 1015 632 1021 b 614 1006 617 1021 613 1014 b 606 1008 611 1008 608 1008 b 594 957 588 1008 592 968 l 592 957 b 579 907 576 957 579 917 b 585 676 579 831 582 753 b 579 826 582 726 579 776 b 568 839 579 833 575 839 b 554 797 553 839 554 807 b 567 532 554 710 565 621 b 564 532 565 532 565 532 l 556 531 l 492 531 l 371 532 b 310 532 350 532 331 532 b 332 779 315 611 313 700 l 333 779 l 333 781 b 315 790 333 793 325 794 b 333 982 317 831 321 950 b 338 992 336 985 338 988 b 326 1003 338 997 332 1003 b 294 817 299 1003 296 842 l 294 881 b 297 889 296 883 297 886 b 282 911 297 899 296 914 l 282 929 b 289 997 282 944 282 985 b 293 1007 290 1000 293 1003 b 282 1017 293 1014 289 1017 b 265 992 271 1017 267 1000 b 253 999 263 996 258 999 l 246 996 l 246 999 b 232 1011 246 1007 239 1011 b 215 983 217 1011 218 994 b 208 986 214 985 211 986 b 197 979 204 986 200 983 b 197 990 197 983 197 988 l 199 1011 b 199 1021 199 1015 199 1018 b 188 1032 199 1028 193 1032 b 181 1031 185 1032 182 1031 b 175 1000 175 1025 175 1007 b 169 1001 174 1001 171 1001 b 158 960 153 1001 158 969 b 149 967 157 964 153 967 b 133 922 132 967 133 933 b 136 871 133 906 135 888 b 128 853 129 868 128 860 b 133 839 128 847 129 842 b 138 760 135 813 136 786 l 147 600 b 151 521 149 574 150 547 b 81 499 139 519 81 517 b 86 489 81 496 83 492 b 24 474 72 489 24 494 b 54 449 24 461 44 453 b 21 424 46 443 21 435 b 69 410 21 400 54 407 b 83 397 69 401 75 397 l 86 397 b 160 411 113 406 133 408 b 7 356 135 404 7 381 b 17 346 7 350 13 346 b 29 353 22 346 26 349 b 158 386 71 367 115 376 b 150 88 143 307 150 171 b 165 15 150 76 142 7 b 158 -28 165 1 158 -14 b 171 -40 158 -35 164 -40 b 194 78 190 -40 192 58 b 208 58 197 71 201 64 b 224 7 208 47 210 7 b 235 14 229 7 233 10 b 243 7 236 11 239 7 b 260 40 257 7 261 29 b 269 51 265 40 269 46 b 265 165 269 89 269 128 l 272 161 b 271 50 269 124 271 88 b 271 35 271 44 271 40 l 268 1 b 268 -14 268 -4 268 -8 b 279 -25 268 -21 272 -25 b 293 83 300 -25 293 67 b 296 176 293 115 293 146 b 303 189 300 179 303 183 b 299 204 303 192 299 199 b 299 210 299 206 299 208 l 303 219 b 292 235 303 229 301 232 b 290 268 290 246 290 257 b 299 390 290 310 296 350 b 329 374 303 385 324 374 b 340 392 340 374 344 382 b 571 422 417 400 494 411 b 618 -1 572 372 582 28 b 628 -4 621 -4 624 -4 b 638 -1 631 -4 636 -3 b 667 222 650 10 664 193 b 671 147 672 199 671 171 b 665 46 671 113 665 79 b 676 33 665 39 671 33 b 690 78 692 33 690 68 l 697 76 b 724 -50 699 57 697 -50 b 736 -39 729 -50 736 -44 b 725 1 736 -32 726 -11 b 725 8 725 4 725 6 l 724 21 b 724 26 724 22 724 25 l 719 75 b 718 100 719 83 719 92 z m 235 913 b 239 988 235 938 236 964 l 243 992 l 243 965 l 242 928 b 242 908 242 921 242 915 z m 503 942 b 503 949 503 944 503 946 l 506 961 b 506 968 506 964 506 967 b 500 972 506 971 501 972 b 492 944 492 972 492 950 b 497 683 492 857 496 771 b 506 600 497 671 493 600 b 511 606 507 600 511 603 b 508 636 511 615 508 625 b 503 942 508 738 503 840 z m 813 750 b 850 954 813 811 850 901 b 844 960 850 957 847 960 b 839 953 842 960 840 956 b 801 744 828 918 801 782 b 807 731 801 742 801 731 b 813 750 815 731 813 746 z m 158 950 b 165 824 160 908 163 865 b 156 928 161 858 156 893 b 158 950 156 935 156 943 z m 726 910 l 731 913 b 721 824 731 883 725 853 b 726 910 721 851 724 882 z m 643 782 l 643 783 b 647 793 646 785 647 789 b 640 888 647 822 642 857 l 650 892 b 650 864 650 882 650 874 l 651 808 b 651 781 651 799 651 790 z m 242 892 b 242 881 242 889 242 885 l 243 860 b 243 849 243 856 243 853 b 242 831 243 843 243 836 b 242 828 242 829 242 829 l 243 819 b 243 817 243 818 243 818 b 242 753 243 794 242 774 b 235 846 240 783 235 815 b 238 869 235 854 236 863 z m 700 868 b 685 553 694 764 701 656 b 678 647 682 583 678 615 b 700 868 678 719 692 796 z m 672 863 l 678 863 l 674 829 b 672 863 674 840 674 851 z m 206 851 b 210 860 208 853 208 857 l 211 863 l 211 847 b 210 813 211 835 211 824 l 208 811 b 206 851 207 825 206 838 z m 603 860 l 613 856 b 622 663 615 792 622 726 b 613 538 622 621 614 579 b 603 860 607 644 604 753 z m 747 856 l 751 858 b 742 804 749 840 746 822 b 747 856 744 821 746 839 z m 293 808 b 294 700 293 772 293 736 l 299 690 b 292 601 297 661 294 631 b 290 667 290 624 290 644 b 293 808 290 714 292 761 z m 176 758 b 174 776 176 764 175 771 l 176 774 z m 646 679 b 651 743 646 700 651 722 b 654 638 653 708 654 672 l 650 611 l 650 618 l 646 658 b 646 679 646 665 646 672 z m 161 738 b 167 736 163 736 165 736 b 178 742 171 736 175 739 b 182 557 179 681 182 618 b 176 524 182 549 186 524 l 174 524 z m 240 718 b 242 729 240 721 242 725 b 242 722 242 726 242 725 z m 253 650 b 253 621 253 640 253 631 l 250 561 b 250 532 250 551 250 542 l 238 531 b 253 650 242 571 247 610 z m 217 646 b 226 624 218 638 219 628 b 215 529 222 592 218 561 l 208 526 z m 719 543 l 725 576 b 725 575 725 576 725 575 l 724 571 b 724 568 724 569 724 569 l 724 553 b 724 551 724 553 724 551 l 722 547 b 722 544 722 546 722 546 z m 274 574 b 288 546 275 564 279 551 b 289 543 289 544 289 544 b 288 533 289 539 289 536 l 272 531 b 272 542 272 535 272 538 l 274 563 b 274 574 274 567 274 571 z m 676 508 l 668 508 b 669 521 668 510 668 521 b 676 508 671 521 675 510 z m 308 510 l 357 510 l 307 506 z m 279 508 b 278 503 279 507 279 503 l 274 503 l 272 508 z m 567 507 l 568 501 l 468 497 b 564 507 499 503 532 507 z m 771 57 b 772 71 771 61 771 65 l 772 96 b 774 110 774 101 774 106 l 781 214 b 783 267 782 232 783 250 b 799 494 786 340 783 424 b 801 500 800 496 801 497 b 794 507 801 503 799 506 l 790 503 b 760 54 782 481 760 96 b 765 50 760 51 764 50 b 771 57 769 50 774 53 z m 250 507 l 249 500 l 238 500 l 236 506 b 250 507 240 507 246 507 z m 175 500 l 181 501 l 181 494 l 175 494 z m 124 494 l 153 499 l 151 492 b 128 490 143 490 136 490 z m 667 483 l 675 485 b 675 483 675 485 675 483 l 674 481 b 674 479 674 481 674 479 l 674 468 b 674 467 674 468 674 467 l 672 464 b 672 463 672 464 672 463 l 667 460 z m 631 481 l 633 482 b 635 476 633 481 635 479 l 635 464 b 636 457 635 463 636 460 l 629 456 b 629 463 629 458 629 461 l 631 475 b 631 481 631 478 631 479 z m 567 471 l 568 458 b 392 446 510 453 450 449 b 567 471 447 458 510 467 z m 153 457 b 136 461 150 467 144 464 l 113 465 l 154 465 b 154 463 154 464 154 464 l 156 456 b 156 453 156 454 156 454 l 150 451 b 153 457 151 453 153 456 z m 178 454 b 176 457 178 454 176 456 b 181 464 176 458 178 464 l 181 461 l 178 456 z m 592 464 l 593 463 l 593 449 b 592 464 592 453 592 458 z m 249 463 l 247 458 l 236 458 l 235 463 z m 83 449 b 89 447 85 447 86 447 b 106 454 96 447 99 454 b 108 454 107 454 107 454 l 113 453 b 115 453 114 453 115 453 b 68 443 100 449 85 444 z m 665 435 l 668 438 l 664 399 l 664 411 l 665 428 b 665 435 665 431 665 432 z m 622 331 b 635 342 629 329 635 335 b 625 399 628 365 625 374 l 626 419 b 626 429 626 422 626 426 l 638 432 b 638 424 638 429 638 426 l 640 407 b 640 399 640 404 640 401 b 628 188 640 329 632 257 b 622 297 624 224 622 260 z m 593 424 l 596 426 b 597 408 596 421 596 415 l 600 396 b 601 376 601 390 601 383 b 601 354 601 369 601 361 l 599 310 b 599 288 599 303 599 294 b 593 424 596 333 594 378 z m 308 425 l 311 422 b 310 422 311 422 311 422 l 306 421 b 301 422 306 421 304 421 z m 215 401 b 229 404 219 403 225 404 b 215 400 225 401 219 401 z m 267 296 b 276 388 267 329 268 356 b 269 258 272 344 269 301 b 275 196 269 238 275 215 b 275 192 275 194 276 192 l 274 192 b 267 296 268 199 267 283 z m 218 376 l 224 379 b 222 322 222 360 222 342 z m 389 347 b 549 360 440 360 497 351 b 556 365 551 360 556 361 b 549 371 554 368 551 371 b 376 356 522 371 394 365 b 372 350 374 354 372 351 b 382 340 372 344 378 340 b 389 347 385 340 389 344 z m 675 304 b 683 356 675 321 681 339 b 681 272 682 328 681 300 b 675 304 678 282 675 294 z m 126 332 b 121 344 126 336 126 344 b 115 335 115 344 111 339 b 115 308 115 326 115 317 l 113 257 b 113 231 113 249 113 239 b 119 201 113 225 111 201 b 125 207 122 201 125 204 b 125 239 125 218 125 229 l 126 301 b 126 332 126 313 126 322 z m 200 315 b 224 249 201 303 203 240 b 219 232 224 244 222 236 b 200 315 194 257 200 282 z m 174 304 l 178 301 b 178 282 178 296 178 289 l 176 244 l 176 201 l 181 153 b 181 129 181 144 181 138 b 172 82 181 114 175 97 b 174 304 172 156 172 231 z m 358 264 b 363 271 361 264 363 267 b 358 278 363 271 361 278 b 343 239 344 278 344 249 b 335 28 338 168 338 99 b 328 -58 333 0 328 -31 b 332 -64 328 -61 329 -64 b 339 -60 335 -64 338 -61 b 358 264 354 -26 338 207 z m 710 224 l 710 204 l 707 203 b 707 204 707 203 707 204 l 708 207 b 708 208 708 207 708 208 l 708 218 b 708 219 708 218 708 219 l 710 222 b 710 224 710 222 710 224 z m 200 219 l 217 207 l 217 206 b 213 196 217 203 215 199 l 211 196 b 200 190 207 196 203 194 z m 232 158 l 232 164 l 233 174 b 233 179 233 175 233 178 l 235 185 l 235 156 z m 207 146 b 206 111 207 135 207 122 b 206 115 206 113 206 114 l 204 122 b 207 146 204 131 206 138 z m 610 144 b 621 96 611 133 615 104 b 631 83 621 89 624 85 l 626 42 b 610 144 618 75 614 110 z m 231 124 b 235 138 231 128 232 133 l 235 110 l 233 107 l 233 110 b 231 124 232 114 231 118 z m 107 103 b 94 108 107 108 99 108 b 90 101 92 108 90 104 l 94 96 b 107 92 97 94 104 92 b 113 97 110 92 113 94 b 107 103 113 99 108 103 z m 229 86 l 233 89 b 233 78 233 85 233 82 l 232 53 l 229 75 z "},"I":{"ha":322,"x_min":0,"x_max":0,"o":"m 208 99 b 208 125 208 108 206 117 b 208 149 208 133 208 140 l 206 196 b 206 219 206 204 206 211 b 214 335 206 258 214 297 b 206 347 214 340 213 346 b 240 907 208 535 222 721 l 244 947 b 247 986 246 961 247 974 b 236 1004 247 994 246 1004 b 222 947 218 1004 224 960 b 182 351 207 749 186 551 l 182 403 b 208 957 182 588 208 772 b 218 992 208 972 218 983 b 207 1003 218 997 213 1001 l 199 999 b 188 938 183 983 188 958 b 171 672 188 849 178 761 b 178 910 175 751 178 831 b 175 1004 178 940 175 972 b 164 1017 175 1010 171 1017 b 154 1007 158 1017 156 1013 b 126 899 114 994 126 932 b 125 881 126 892 126 886 b 108 531 110 764 113 649 b 107 658 107 574 107 617 b 111 968 107 763 110 865 b 115 982 114 972 115 976 b 101 1008 115 990 113 1008 b 89 981 88 1008 89 990 b 85 643 83 869 85 756 b 85 576 85 621 85 599 l 89 442 b 89 375 89 419 89 397 b 79 301 89 351 82 325 b 69 146 74 250 69 197 b 103 14 69 118 64 10 b 113 7 104 10 108 7 b 124 19 119 7 124 13 b 124 42 124 26 124 35 l 119 85 b 119 107 119 92 119 100 b 140 86 122 99 128 82 b 167 10 143 67 144 15 b 181 -35 167 0 167 -35 b 193 -22 188 -35 193 -29 b 186 82 193 11 186 47 b 218 -40 188 64 200 -40 b 229 -25 225 -40 229 -33 l 228 -22 b 208 99 217 19 208 57 z m 40 774 b 44 974 40 840 43 907 b 51 981 49 972 51 976 b 40 992 51 986 47 992 b 33 978 35 992 33 982 b 29 790 26 918 29 851 b 43 593 29 756 29 617 b 49 589 44 590 46 589 b 54 593 50 589 54 590 b 42 690 54 606 43 663 b 40 774 40 718 40 746 z m 147 949 l 147 963 b 154 982 147 969 147 978 l 154 947 z m 308 957 b 303 964 307 960 308 964 l 299 964 b 268 803 283 935 272 839 b 260 393 250 667 253 529 b 267 388 261 390 264 386 b 271 393 269 388 272 390 b 274 751 265 513 264 632 b 299 926 279 810 286 868 b 304 947 300 935 301 939 b 308 957 306 951 308 953 z m 147 879 b 154 917 147 890 151 906 b 154 910 154 914 154 913 l 156 893 b 156 886 156 890 156 889 b 150 711 156 828 151 769 b 147 879 147 767 147 824 z m 138 456 b 132 608 135 507 132 557 l 136 653 b 136 675 136 660 136 668 l 149 672 b 142 454 146 600 143 526 z m 51 -3 b 51 4 51 0 51 1 l 49 21 b 49 28 49 24 49 25 b 42 372 43 142 42 258 b 46 411 42 386 46 400 b 40 415 46 414 43 415 l 36 413 b 31 351 28 401 31 365 b 40 -6 31 233 31 113 l 46 -8 b 51 -3 49 -8 51 -6 z m 153 160 b 157 238 153 185 156 213 b 161 246 160 239 161 243 b 161 251 161 247 161 250 l 157 260 b 160 342 157 288 158 314 b 160 319 160 335 160 326 l 164 275 b 164 253 164 268 164 260 b 164 82 164 196 163 139 b 153 160 161 107 153 135 z m 272 296 b 278 301 275 296 278 299 l 274 307 b 272 307 274 307 274 307 l 268 308 b 256 301 264 308 256 307 b 272 296 256 296 268 296 z m 97 253 b 100 214 97 240 100 228 b 97 50 100 160 94 104 b 92 147 93 82 92 114 b 97 253 92 182 93 218 z m 124 219 b 124 217 124 218 124 218 l 125 210 b 125 207 125 210 125 208 l 128 181 b 128 178 128 179 128 179 l 129 171 b 129 168 129 171 129 169 b 124 219 126 185 124 203 z "},"J":{"ha":763,"x_min":0,"x_max":0,"o":"m 358 1074 b 257 1058 343 1074 257 1075 b 264 1056 257 1056 263 1056 b 350 1061 290 1056 321 1061 l 378 1061 b 517 1057 424 1061 471 1060 b 582 1050 538 1054 561 1050 b 589 1056 585 1050 589 1051 b 358 1074 585 1069 392 1074 z m 253 -56 b 408 -18 308 -53 357 -37 l 408 -21 b 419 -31 408 -26 414 -31 b 550 86 428 -31 543 76 b 586 157 567 107 578 132 b 643 235 599 168 643 219 b 631 246 643 242 638 246 b 604 210 619 246 611 218 b 656 372 610 226 656 367 l 653 378 b 657 447 656 401 657 425 b 643 624 657 507 643 565 b 663 878 643 707 654 794 b 746 892 676 879 746 879 b 722 900 746 906 729 900 b 721 901 722 900 721 900 b 722 907 721 903 722 904 b 710 918 722 911 719 915 b 668 925 697 922 682 924 b 689 926 674 928 679 928 b 735 915 707 924 718 918 b 744 928 750 913 751 925 b 711 939 731 933 718 936 b 679 947 713 953 688 947 l 672 947 l 667 950 b 667 956 667 951 667 954 l 665 967 b 665 972 665 968 665 971 b 707 960 678 971 701 960 b 718 968 711 960 718 963 b 661 993 718 983 672 992 b 640 1021 658 1004 650 1014 b 629 1028 638 1025 633 1028 l 621 1025 b 618 1021 621 1024 618 1021 b 617 1025 615 1021 617 1025 b 604 1036 617 1032 610 1036 b 585 997 590 1036 588 1007 l 533 997 b 511 1017 531 1007 522 1017 b 496 997 500 1017 496 1007 l 474 997 b 472 1001 471 997 472 1000 b 472 1006 472 1003 472 1004 l 476 1013 b 463 1033 476 1021 474 1033 b 449 999 449 1033 451 1007 l 346 999 l 296 1001 b 271 1001 288 1001 279 1001 b 236 989 258 1001 244 1000 l 235 979 b 229 979 233 979 232 979 l 217 981 b 210 981 215 981 213 981 b 176 968 201 981 176 979 b 197 960 176 956 190 958 l 193 956 l 192 947 b 175 926 183 944 175 936 b 185 918 175 921 179 918 l 188 917 b 158 897 181 914 158 906 b 169 888 158 892 164 888 b 206 903 174 888 199 900 b 218 899 210 901 214 899 b 228 904 221 899 226 903 b 240 901 232 903 236 901 b 375 911 283 901 331 908 b 140 857 357 908 140 888 b 153 847 140 851 147 847 b 178 861 160 847 169 858 b 176 856 176 860 176 857 b 199 840 176 843 190 840 b 211 851 206 840 213 843 l 231 856 b 226 842 226 853 224 846 b 201 822 219 839 201 832 b 228 807 201 813 219 807 b 232 813 231 807 232 810 l 231 817 b 289 829 250 822 269 826 b 306 817 292 822 297 817 b 313 829 313 817 315 822 b 457 853 357 843 411 847 b 526 435 475 717 526 571 b 415 181 526 344 489 238 b 217 131 372 147 274 131 l 213 132 b 106 217 199 142 107 217 b 94 204 99 217 94 211 b 108 183 94 201 106 186 b 89 188 103 186 96 188 b 75 179 83 188 76 186 b 54 156 67 176 54 164 b 65 143 54 149 58 143 b 82 158 72 143 79 153 l 83 158 b 161 104 94 158 149 113 b 142 114 156 107 147 114 b 129 108 138 114 132 111 b 69 139 113 117 86 139 b 38 104 56 139 38 117 b 51 93 38 97 44 92 b 57 92 53 92 54 92 b 68 110 68 92 68 101 b 94 101 71 110 94 104 b 88 103 90 101 92 103 b 74 89 81 103 74 96 b 96 63 74 82 88 63 b 107 71 101 63 106 67 l 135 56 b 78 40 115 51 97 46 b 24 83 67 49 33 83 b 8 64 14 83 8 72 b 19 49 8 57 11 49 b 29 53 22 49 26 51 b 53 32 36 46 44 38 b 0 -1 42 26 0 11 b 11 -12 0 -8 6 -12 b 74 15 11 -12 64 13 l 106 -6 b 121 -24 110 -12 111 -24 l 129 -21 b 236 -65 156 -36 204 -65 b 253 -56 242 -65 247 -58 z m 281 982 b 447 979 336 979 392 979 l 449 972 b 281 982 393 975 336 978 z m 513 967 l 508 967 b 500 979 501 967 501 972 l 514 979 b 515 976 515 978 515 978 b 513 967 515 974 514 969 z m 539 979 b 536 976 538 978 538 976 b 539 979 538 976 536 979 z m 563 960 l 565 976 l 581 976 b 581 972 581 975 581 974 l 579 963 b 579 958 579 961 579 960 b 563 960 574 958 568 958 z m 625 956 l 626 957 b 626 958 626 958 626 958 l 626 967 b 626 968 626 967 626 968 l 628 969 b 628 971 628 971 628 971 l 629 971 b 640 975 633 971 638 975 b 644 951 646 975 644 956 b 643 951 644 951 643 951 l 640 953 b 639 953 640 953 639 953 l 631 953 b 629 953 631 953 629 953 l 626 954 b 625 956 625 954 625 956 z m 476 972 b 478 969 476 972 478 971 b 476 972 476 971 476 971 z m 215 947 b 250 951 224 953 242 951 l 349 951 b 449 944 381 951 418 950 b 329 939 408 944 369 939 b 215 947 292 939 253 947 z m 221 928 l 219 928 b 210 928 217 926 213 928 l 206 929 l 218 929 b 221 928 218 929 221 929 z m 542 907 b 569 911 550 910 560 911 l 575 911 l 575 888 b 543 885 564 888 554 886 b 543 890 543 886 543 889 l 542 901 b 542 907 542 903 542 906 z m 628 908 b 631 911 628 910 629 911 b 633 911 632 911 632 911 l 639 910 b 642 910 640 910 640 910 l 640 896 l 629 894 b 629 897 629 896 629 896 l 628 906 b 628 908 628 907 628 907 z m 664 907 b 697 900 676 906 688 903 l 693 899 b 690 899 692 899 692 899 l 674 899 b 671 899 674 899 672 899 l 667 897 b 664 897 665 897 665 897 z m 474 893 l 494 893 b 496 882 496 889 496 886 l 496 878 b 494 878 496 878 494 878 l 492 876 b 490 876 492 876 490 876 l 482 876 b 481 876 482 876 481 876 l 478 875 b 476 876 476 875 476 876 l 475 878 b 475 879 475 879 475 879 l 475 889 b 475 890 475 889 475 890 l 474 892 b 474 893 474 893 474 893 z m 451 889 l 453 888 b 453 886 453 888 453 886 l 453 876 b 453 875 453 876 453 876 l 454 874 b 365 860 426 868 394 860 b 271 838 343 860 294 843 b 451 889 332 864 383 885 z m 632 875 l 639 876 b 639 875 639 876 639 875 l 638 871 b 638 869 638 871 638 871 l 638 854 b 638 853 638 854 638 853 l 636 849 b 636 847 636 849 636 849 z m 546 865 l 551 867 l 561 867 b 563 867 561 867 563 867 l 565 868 b 567 868 565 868 567 868 b 563 756 561 832 563 792 z m 522 863 l 524 861 b 551 626 535 783 547 706 b 522 863 540 706 532 783 z m 479 857 b 483 857 481 857 482 857 l 493 858 b 497 858 494 858 496 858 b 488 818 492 846 489 832 b 479 857 485 831 481 843 z m 611 858 b 617 824 614 847 615 835 b 611 858 613 835 611 846 z m 574 815 l 574 824 l 575 839 b 575 847 575 842 575 844 b 576 813 576 836 576 824 z m 715 443 b 715 469 715 451 715 461 l 713 521 b 713 547 713 529 713 539 b 722 819 713 639 718 729 b 724 824 724 821 724 822 b 717 832 724 828 721 832 b 711 818 710 832 711 822 b 700 521 710 719 700 619 b 710 436 700 508 697 436 b 715 443 713 438 715 440 z m 600 800 b 619 613 619 742 619 674 b 596 443 619 558 610 496 b 603 621 601 503 603 561 b 600 800 603 681 601 740 z m 433 793 b 426 799 432 796 429 799 b 396 793 417 799 406 794 b 138 761 349 788 164 796 b 135 756 136 760 135 758 b 139 753 135 754 136 753 b 157 760 146 753 150 757 b 369 779 199 783 318 776 b 433 793 379 779 433 782 z m 526 635 l 521 640 b 499 747 513 675 506 711 l 514 692 b 526 635 518 672 524 654 z m 390 232 b 471 496 450 326 471 382 b 461 682 471 558 461 619 l 461 686 b 456 690 461 689 458 690 b 449 674 449 690 449 678 b 460 497 449 615 460 557 b 382 239 460 381 443 339 b 381 233 381 238 381 236 b 385 228 381 231 382 228 z m 569 496 b 574 513 569 501 572 507 b 576 569 576 529 576 553 b 574 464 576 535 576 499 b 574 472 574 467 574 469 l 569 488 b 569 496 569 490 569 493 z m 506 232 b 569 326 518 236 561 310 b 585 353 586 324 583 343 b 619 443 599 382 611 413 b 424 142 614 310 529 214 b 506 232 454 169 481 200 z m 544 357 b 550 382 544 360 549 378 l 557 372 l 544 339 z m 536 331 l 542 332 b 524 296 536 319 531 307 z m 717 324 b 711 332 717 326 717 332 b 706 325 708 331 707 328 b 693 263 700 306 697 283 b 540 -4 672 183 621 35 l 536 0 b 529 -11 532 -1 529 -7 b 536 -17 529 -15 532 -17 b 717 324 619 -17 717 251 z m 613 313 b 390 92 583 218 478 132 l 386 92 b 613 313 478 144 564 217 z m 274 146 b 221 171 256 154 238 160 b 119 282 190 192 139 250 b 115 285 118 283 117 285 b 108 278 113 283 108 281 b 271 135 108 249 239 135 b 278 140 275 135 278 136 z m 576 206 l 581 213 l 581 211 b 578 201 581 208 579 204 z m 572 183 b 561 167 572 176 565 169 l 553 168 b 547 164 551 167 550 164 b 549 165 547 164 549 165 l 571 183 z m 258 88 l 260 90 b 339 125 276 92 349 101 l 383 138 b 301 85 357 118 331 100 b 290 86 299 85 294 86 l 269 86 b 267 86 268 86 268 86 l 261 88 b 258 88 260 88 260 88 z m 551 132 b 542 117 550 125 549 119 b 494 96 526 110 510 104 b 397 43 463 79 431 57 b 551 132 422 56 529 117 z m 206 108 l 193 107 b 192 110 193 107 192 108 l 196 110 l 203 108 b 206 108 204 108 204 108 z m 513 81 b 432 10 476 47 456 25 b 425 15 431 13 428 15 b 281 -43 414 15 282 -37 b 246 -47 271 -43 254 -43 b 232 -43 242 -44 236 -43 b 226 -40 229 -42 226 -42 b 282 -15 226 -37 274 -17 b 513 81 371 0 436 33 z m 197 64 l 182 75 l 206 71 l 214 64 z m 239 21 b 313 43 264 28 286 40 b 400 71 335 46 382 60 b 256 6 367 51 292 6 l 235 6 b 239 21 240 8 240 15 z m 101 24 b 110 26 106 25 108 26 l 122 29 b 128 31 125 29 126 31 b 160 25 138 26 149 26 l 163 21 b 125 15 149 17 139 15 b 101 24 121 15 101 19 z m 194 8 b 208 14 199 11 203 14 b 211 13 208 14 210 13 l 221 7 b 214 7 219 7 217 7 l 201 8 b 194 8 199 8 197 8 z m 149 -6 b 179 3 160 -4 169 -1 b 178 -3 178 1 178 -1 b 222 -17 178 -17 213 -17 b 203 -33 214 -21 207 -25 b 149 -6 183 -26 167 -15 z m 325 -33 b 415 0 354 -22 385 -11 b 325 -33 393 -12 367 -21 z "},"K":{"ha":714,"x_min":0,"x_max":0,"o":"m 131 -3 b 138 -6 132 -4 135 -6 b 147 6 143 -6 147 0 b 139 68 147 11 138 43 b 139 81 139 72 139 76 l 142 106 b 142 118 142 110 142 114 b 164 61 147 100 163 78 b 164 54 164 58 164 57 l 165 40 b 165 33 165 38 165 36 b 176 21 165 26 169 21 b 188 46 192 21 188 38 b 199 64 188 57 199 54 b 189 140 200 86 190 117 b 182 396 183 225 182 311 b 196 313 185 368 194 340 l 203 133 b 217 14 204 115 199 14 b 228 26 224 14 228 19 b 219 256 231 101 222 179 b 228 269 226 258 228 264 b 218 318 228 286 219 301 b 214 386 217 340 215 364 b 229 401 221 388 229 394 b 222 411 229 406 226 410 l 221 418 b 378 200 271 346 313 261 b 419 164 392 188 408 178 b 606 -18 447 132 565 -18 b 622 0 615 -18 625 -11 b 649 -12 626 -3 644 -12 b 653 -7 651 -12 653 -8 b 608 19 653 -1 615 15 b 557 68 589 31 571 50 b 600 47 571 60 583 49 b 667 -1 613 33 649 -1 b 671 4 669 -1 671 3 b 667 10 671 7 668 8 b 625 38 651 18 638 26 b 674 10 632 33 668 10 b 679 15 676 10 679 11 l 675 21 b 622 53 657 31 640 42 b 656 44 633 49 644 44 b 664 50 660 44 664 44 l 658 56 l 663 65 b 682 58 668 64 676 58 b 693 69 688 58 693 64 b 689 81 693 74 690 78 b 690 86 690 82 690 85 b 678 99 690 93 685 99 b 681 106 679 100 681 103 b 632 156 681 111 639 149 b 683 115 644 147 678 129 b 696 103 686 110 689 103 b 706 115 701 103 706 111 b 588 217 707 142 608 200 b 321 481 515 272 375 406 b 279 529 310 497 299 518 b 361 610 306 557 335 583 b 371 613 365 610 368 611 b 396 643 376 615 389 636 b 540 785 444 689 492 738 b 632 879 571 815 604 846 b 640 894 635 883 639 889 b 631 904 640 900 636 903 l 640 922 l 657 960 l 667 978 b 675 989 671 979 675 983 b 660 997 675 1001 667 997 l 658 997 b 664 1001 658 999 663 1001 b 676 1011 671 1001 676 1004 b 663 1025 676 1018 669 1025 b 625 992 647 1025 633 1003 l 622 992 b 585 968 610 992 592 975 l 586 972 b 586 974 586 972 586 974 l 590 989 b 590 990 590 990 590 990 l 592 994 b 600 1006 596 997 600 1001 b 585 1022 600 1014 593 1022 b 568 990 572 1022 569 999 b 563 992 567 992 564 992 b 539 974 553 992 543 981 l 538 965 b 356 739 479 890 422 808 b 225 592 310 692 265 643 b 254 968 231 708 236 854 b 264 979 261 968 264 974 b 251 997 265 988 260 997 b 231 965 236 997 232 976 l 236 1013 b 249 1024 243 1011 249 1017 b 233 1038 249 1032 243 1038 b 211 986 213 1038 213 1000 b 197 949 201 982 199 958 b 192 1000 194 965 193 983 b 208 1011 200 999 208 1003 b 190 1024 208 1022 197 1024 b 169 1003 174 1024 169 1018 b 186 856 168 953 188 904 b 169 635 183 782 172 708 b 167 514 169 615 169 524 l 167 493 b 169 426 167 481 163 435 l 160 422 b 161 818 151 443 160 769 b 165 908 163 849 164 878 b 172 918 169 910 172 914 b 157 932 172 926 164 932 b 158 989 157 951 157 969 b 164 1000 163 992 164 996 b 150 1021 164 1008 158 1018 b 151 1026 151 1022 151 1024 b 142 1036 153 1032 147 1036 b 113 1011 129 1036 117 1021 l 108 1011 b 96 988 96 1011 96 996 b 88 1017 94 1001 93 1017 l 82 1011 l 83 993 b 81 985 81 992 81 988 b 82 904 79 958 81 931 b 74 865 75 889 74 882 b 76 731 72 821 75 775 b 94 92 83 518 75 304 b 121 -32 96 72 103 -32 b 131 -3 138 -32 132 -12 z m 47 781 b 44 839 49 797 46 819 b 46 978 43 885 39 931 b 56 1010 47 989 56 1004 b 51 1013 57 1013 54 1013 b 33 978 38 1014 35 988 b 36 779 25 917 26 840 b 40 772 36 776 36 774 b 47 781 44 774 47 776 z m 138 1011 b 135 972 136 999 135 985 b 135 829 132 925 133 876 b 129 956 132 871 128 913 b 138 1011 129 968 129 1003 z m 551 1000 b 546 1006 551 1003 549 1006 b 403 847 535 1006 403 863 b 404 842 401 846 401 842 b 428 867 414 842 422 860 b 549 996 463 914 506 956 b 551 1000 550 997 551 999 z m 107 999 l 110 1000 b 107 963 108 988 107 975 z m 643 979 l 631 953 b 622 949 629 951 625 949 l 622 950 z m 544 938 l 561 961 b 553 932 560 954 558 938 b 544 938 550 935 549 938 z m 603 925 b 614 921 606 922 610 922 l 606 903 b 589 903 600 904 594 903 z m 276 907 b 282 913 279 907 282 908 b 272 922 282 917 278 921 l 268 918 b 260 844 264 904 260 860 l 256 689 b 261 682 256 686 257 682 b 267 689 264 683 267 686 b 276 907 269 761 267 836 z m 589 874 b 557 835 581 858 569 847 l 586 871 b 589 874 588 872 588 872 z m 242 529 l 243 533 b 535 850 257 535 504 815 l 535 844 b 526 835 532 842 529 838 l 511 815 b 503 806 508 813 506 808 l 436 729 b 404 690 425 717 415 704 b 378 657 396 679 388 668 b 247 528 335 614 289 572 z m 108 810 l 113 813 b 121 619 117 749 119 683 b 108 810 115 683 111 746 z m 407 571 b 482 658 433 599 457 629 b 592 768 517 697 554 732 b 594 772 593 769 594 771 b 589 776 594 775 592 776 l 583 775 b 394 571 561 754 396 589 b 401 564 394 567 397 564 b 407 571 406 564 407 568 z m 224 544 b 372 724 275 601 324 664 b 376 729 372 725 375 729 l 376 728 l 361 708 l 311 632 b 253 571 296 610 272 589 b 233 540 246 564 229 551 l 224 533 z m 203 650 l 207 689 b 208 671 208 683 208 678 b 206 647 207 664 207 656 z m 350 513 b 342 519 350 517 346 519 b 336 514 339 519 336 518 l 338 510 b 547 304 365 481 515 304 b 553 308 550 304 553 306 b 549 315 553 311 550 314 b 465 385 521 339 492 358 b 350 513 425 426 392 474 z m 257 506 l 263 513 b 310 458 285 501 294 478 b 257 506 297 471 265 493 z m 60 25 b 57 249 63 100 60 175 b 46 479 53 325 43 403 b 46 483 46 481 46 482 l 50 493 b 50 497 50 494 50 496 b 44 504 50 500 49 504 l 40 501 b 35 483 38 496 35 489 b 46 249 32 406 42 326 b 50 25 49 175 46 99 b 56 19 50 22 51 19 b 60 25 57 19 60 22 z m 247 482 l 251 478 l 253 474 b 247 482 250 476 249 479 z m 128 268 b 115 465 122 333 119 400 b 132 265 126 401 133 331 z m 263 458 l 275 447 l 269 450 b 264 456 267 453 265 454 b 263 458 264 457 263 458 z m 301 425 b 308 419 304 424 306 422 l 322 407 b 329 400 325 406 326 403 l 329 397 b 301 425 319 407 310 415 z m 381 353 b 433 290 401 331 418 318 b 381 353 414 311 396 329 z m 326 319 b 389 257 346 297 367 276 l 389 251 b 521 119 389 236 514 128 b 433 185 494 139 454 160 l 379 251 b 326 319 361 274 343 296 z m 288 50 l 285 57 b 285 60 285 58 285 60 b 269 182 276 100 272 140 b 265 279 268 214 264 247 b 260 286 265 283 263 286 b 254 272 253 285 254 276 b 269 71 251 207 258 133 b 282 42 271 65 274 42 b 288 50 286 42 288 47 z m 629 254 b 622 261 628 257 626 261 b 624 265 624 263 624 264 b 614 274 624 268 618 274 b 608 268 610 274 608 271 b 617 260 608 264 614 261 b 614 256 615 258 614 257 b 622 250 614 251 619 250 b 629 254 625 250 629 251 z m 118 85 b 108 233 114 135 110 183 b 125 175 110 211 114 183 z m 546 206 l 550 206 b 622 135 576 185 599 158 b 546 206 594 156 571 182 z m 393 144 b 388 140 390 144 388 143 b 507 7 388 124 489 24 b 553 -51 515 0 551 -51 b 558 -47 554 -51 558 -50 b 410 125 558 -24 431 99 b 393 144 407 129 397 144 z m 519 139 b 514 143 518 139 515 142 z m 563 136 l 563 142 b 582 129 568 138 575 133 l 576 125 b 563 136 571 128 567 132 z m 610 108 b 596 115 608 110 596 114 b 599 117 596 117 597 117 b 610 108 601 117 607 111 z m 489 114 b 532 85 501 106 524 96 b 608 7 554 56 574 26 l 604 7 b 489 114 558 33 522 74 z "},"L":{"ha":603,"x_min":0,"x_max":0,"o":"m 136 -71 b 149 -61 142 -71 149 -68 b 147 -49 149 -57 149 -53 l 144 -40 b 143 -28 143 -36 143 -32 l 156 -29 b 169 -68 156 -39 154 -68 b 178 -25 186 -68 178 -35 b 576 56 294 -14 471 18 b 596 69 583 58 596 60 b 586 81 596 75 592 81 b 550 71 582 81 556 72 l 550 75 b 540 86 550 81 546 85 b 535 85 539 85 536 85 b 532 88 533 85 532 86 b 500 99 525 101 515 100 b 543 110 507 104 535 110 b 561 104 550 110 556 104 b 574 115 568 104 574 110 b 544 132 571 129 556 132 b 476 119 521 132 499 119 b 453 121 468 119 461 119 b 485 131 461 122 479 124 b 493 129 488 129 490 129 b 518 132 501 129 510 131 l 525 140 b 565 157 536 143 565 144 b 558 168 565 161 563 165 l 546 169 b 536 179 546 175 540 178 b 574 193 546 179 574 179 b 561 204 574 200 568 204 b 461 179 528 204 492 192 b 444 182 456 181 450 182 b 208 124 432 182 236 131 b 189 304 204 183 189 244 b 204 443 189 349 204 411 b 197 449 204 447 201 451 b 203 550 200 482 201 517 b 251 994 206 588 239 975 b 261 1011 254 999 261 1007 b 249 1022 261 1018 256 1022 l 242 1019 b 229 996 236 1014 232 1003 b 178 493 213 946 182 563 b 186 721 179 568 186 646 b 183 735 186 725 186 731 b 188 744 186 738 188 740 b 207 946 197 811 199 879 b 215 992 208 953 213 986 b 229 1010 219 1001 229 996 b 217 1018 229 1017 222 1018 b 200 1011 211 1018 204 1015 b 189 972 193 1004 190 982 l 186 954 b 186 957 186 954 186 956 b 165 1028 185 971 183 1028 b 156 1014 157 1028 154 1021 b 140 899 143 978 143 936 b 129 900 138 900 132 900 b 133 986 129 928 131 958 b 139 985 135 985 138 985 b 150 997 146 985 150 990 b 126 1026 150 1010 140 1026 b 107 919 107 1026 108 935 b 79 356 97 732 79 543 b 93 92 79 267 83 179 l 81 93 b 40 68 68 93 40 83 b 51 56 40 63 46 56 b 67 61 58 56 63 61 l 67 57 l 65 53 b 65 50 65 51 65 51 b 28 25 51 49 26 44 b 26 18 26 24 26 21 b 38 8 26 13 32 8 b 51 11 42 8 46 10 b 18 -14 35 6 18 -3 b 22 -17 18 -15 19 -17 b 31 -11 25 -17 29 -12 b 96 10 47 4 75 6 b 89 -6 92 7 88 0 l 65 -6 b 36 -17 56 -6 36 -3 b 108 -28 36 -36 94 -28 b 124 -87 110 -40 108 -87 b 136 -71 132 -87 136 -79 z m 303 1001 b 299 1010 303 1004 303 1010 b 292 1003 296 1008 293 1006 b 258 725 274 926 267 806 b 240 549 254 672 240 600 b 246 540 240 546 240 540 b 251 547 249 542 251 544 b 279 826 268 632 271 738 b 303 1001 283 867 303 971 z m 82 861 b 74 965 82 886 82 944 b 69 969 72 967 72 969 l 64 965 b 60 949 61 960 60 954 b 67 942 60 946 61 940 b 71 844 69 910 71 878 b 58 567 71 751 58 660 b 64 560 58 564 60 560 b 69 567 67 561 69 564 b 74 651 74 594 72 624 b 82 861 76 721 82 792 z m 165 936 b 182 928 168 929 175 925 l 181 924 b 165 885 172 915 168 896 l 163 869 b 165 936 163 890 164 914 z m 143 803 b 153 793 144 799 149 796 b 142 697 150 761 146 729 b 143 803 143 732 143 768 z m 121 765 b 115 575 121 701 115 638 b 126 563 115 568 118 563 b 104 242 113 456 104 349 b 101 360 103 281 101 321 b 121 765 101 496 111 631 z m 153 597 b 163 672 156 622 158 647 l 158 593 z m 49 157 b 43 193 49 169 44 182 b 18 568 25 310 18 449 b 22 597 18 578 22 589 b 17 606 22 600 21 606 b 7 576 7 606 7 583 b 39 154 7 499 21 213 b 43 151 39 151 42 150 b 49 157 46 151 49 154 z m 265 488 b 256 500 265 492 261 500 b 250 492 253 499 250 494 b 258 481 250 488 253 481 b 265 488 263 481 265 483 z m 58 464 b 54 471 58 465 57 471 b 47 463 47 471 47 467 b 71 119 47 393 54 176 b 82 100 72 115 76 100 b 88 106 86 100 88 101 b 75 149 88 114 78 138 b 58 464 63 221 58 386 z m 136 453 b 126 210 133 372 131 290 l 126 249 b 136 453 126 317 129 385 z m 154 326 l 154 296 b 147 107 154 233 146 171 l 142 104 b 154 326 147 178 151 253 z m 550 229 b 544 235 550 232 547 235 b 278 185 510 235 319 196 b 247 167 271 183 247 175 b 251 160 247 164 249 160 b 290 176 253 160 282 175 b 526 221 367 194 449 210 b 550 229 532 222 550 221 z m 193 167 l 189 196 b 186 225 188 206 186 215 z m 172 176 b 172 183 172 179 172 181 l 174 196 b 174 203 174 199 174 201 b 185 118 178 175 182 146 l 181 115 b 172 176 178 135 172 157 z m 532 178 l 503 169 b 532 178 513 172 522 176 z m 478 161 b 471 160 475 160 474 160 z m 374 100 b 382 100 376 100 379 100 l 399 99 b 407 99 401 99 404 99 b 288 85 368 88 328 88 b 374 100 315 89 346 100 z m 471 53 b 469 53 471 53 469 53 l 465 51 b 492 57 472 54 482 56 l 489 56 b 486 56 488 56 488 56 z m 204 36 l 299 47 b 331 51 310 49 321 50 l 329 47 l 331 39 b 322 38 328 39 325 39 l 307 38 b 299 36 304 36 301 36 l 235 31 b 226 29 232 31 229 31 l 211 29 b 203 28 208 28 206 28 z m 175 32 l 179 32 l 188 33 b 192 33 189 33 190 33 l 190 26 b 174 25 185 26 179 26 z m 138 26 b 149 24 139 26 149 25 b 147 22 149 22 147 22 l 140 22 z m 67 15 b 82 18 72 17 78 18 b 67 15 79 18 74 17 z m 175 3 b 296 13 215 7 256 10 b 176 -3 257 6 217 1 z m 153 1 l 154 -6 l 142 -6 l 140 -1 b 143 0 142 0 143 0 l 150 0 b 153 1 151 1 153 1 z m 350 -31 b 342 -26 349 -26 346 -26 b 218 -56 329 -26 222 -47 b 224 -62 218 -58 219 -62 b 344 -37 260 -43 307 -53 b 350 -31 347 -36 350 -35 z "},"M":{"ha":1053,"x_min":0,"x_max":0,"o":"m 157 -19 b 186 225 160 63 172 144 b 175 4 179 153 175 76 b 186 -28 175 -4 174 -28 b 199 3 203 -28 199 -8 b 211 271 199 92 206 182 b 221 456 215 332 213 394 b 229 515 224 475 226 496 l 244 635 b 253 694 247 654 250 675 b 331 419 275 601 304 511 b 365 194 350 351 347 260 b 379 182 367 188 371 182 b 389 193 386 182 389 188 b 379 263 389 217 382 240 b 440 85 396 203 418 143 b 453 68 440 76 444 68 b 463 85 463 68 465 78 b 465 78 465 83 465 81 b 475 67 465 72 469 67 b 506 136 486 67 501 125 b 486 65 501 122 486 76 b 496 57 486 61 492 57 b 543 185 513 57 538 165 b 763 744 578 303 699 653 l 767 746 b 540 140 735 672 540 215 b 547 132 540 136 544 133 b 524 56 542 115 524 69 b 536 38 524 47 526 38 b 546 49 543 38 546 43 b 585 171 546 51 581 160 b 790 711 649 353 708 536 b 800 447 803 622 800 536 b 838 44 800 311 826 179 b 850 24 838 36 839 24 b 861 29 854 24 858 26 b 856 -18 860 14 856 -1 b 867 -36 856 -25 857 -36 b 876 -12 881 -36 876 -21 b 889 63 876 13 885 38 b 911 -40 889 47 894 -40 b 922 -26 921 -40 922 -33 b 918 -4 922 -19 919 -11 b 924 -6 919 -6 922 -6 b 936 8 932 -6 936 0 b 919 136 936 49 925 96 b 890 406 910 226 900 315 b 925 201 894 379 918 213 b 958 13 928 171 938 13 b 969 26 967 13 969 19 b 956 135 969 46 958 110 b 978 40 963 103 974 72 b 979 -6 979 32 979 -4 b 990 -15 981 -11 985 -15 b 1001 3 1001 -15 1001 -6 b 936 318 1001 83 953 229 b 944 329 942 319 944 324 b 926 446 944 358 929 411 b 939 413 928 438 928 414 b 974 189 950 338 958 263 b 1026 -14 976 174 1019 -7 b 1035 -18 1029 -17 1032 -18 b 1046 -11 1039 -18 1046 -15 b 989 224 1046 11 997 176 b 981 283 986 243 983 264 l 963 403 b 954 463 960 422 957 443 l 918 669 b 906 739 914 693 910 717 b 886 867 897 781 888 825 l 886 883 b 888 900 886 889 886 894 b 899 921 894 906 906 910 b 965 972 918 943 938 961 b 971 982 968 974 971 979 b 957 993 971 990 964 993 b 942 988 956 993 943 989 b 983 1025 950 994 983 1017 b 975 1036 983 1029 979 1036 b 943 1017 963 1036 951 1025 l 938 1017 b 929 1014 928 1017 938 1014 b 979 1056 944 1039 979 1047 b 963 1067 979 1064 969 1067 b 950 1063 958 1067 954 1065 b 940 1064 947 1064 943 1064 b 910 1053 929 1064 918 1060 b 899 1065 911 1060 904 1065 l 897 1065 l 893 1063 b 803 978 860 1036 824 1014 b 519 410 675 879 571 560 b 429 710 489 510 463 610 b 378 850 414 756 390 803 l 376 851 b 376 853 376 853 376 853 l 376 861 b 376 863 376 861 376 863 l 375 864 b 382 863 378 864 379 863 b 393 874 388 863 393 868 b 365 904 393 876 367 904 b 350 983 361 924 349 967 b 351 989 351 985 351 988 b 335 999 351 997 342 1000 l 335 1003 b 342 1031 335 1013 342 1021 b 331 1040 342 1036 335 1040 b 315 985 310 1040 313 997 l 301 1017 b 297 1028 300 1021 299 1025 b 299 1033 299 1029 299 1032 b 288 1044 299 1040 293 1044 b 274 1032 281 1044 275 1039 b 267 1008 261 1032 264 1017 b 275 956 258 997 271 968 l 271 951 b 243 1022 265 967 254 1022 b 231 1011 236 1022 231 1018 b 232 1004 231 1010 232 1007 l 235 992 b 235 990 235 992 235 990 l 236 986 b 236 985 236 986 236 986 l 233 986 b 219 1036 228 1003 219 1018 b 207 1046 219 1042 211 1046 b 196 1033 200 1046 196 1040 b 207 996 196 1022 203 1007 b 192 1007 204 999 194 1007 b 178 994 182 1007 178 1004 b 186 972 178 989 183 976 b 167 990 182 979 175 990 b 156 978 160 990 156 985 b 144 963 149 975 144 969 b 157 922 144 949 151 935 b 138 944 153 929 147 944 b 128 933 132 944 128 939 b 178 833 128 925 171 846 b 93 385 139 686 122 533 b 17 63 71 276 42 169 b 7 11 13 46 7 29 b 28 -11 7 0 15 -11 b 39 -4 32 -11 36 -8 b 58 -14 43 -10 51 -12 b 69 -21 61 -18 64 -21 b 85 -6 76 -21 85 -14 b 81 4 85 -1 82 1 b 115 172 88 64 99 115 b 97 0 115 111 97 54 b 111 -24 97 -10 99 -24 b 125 -46 117 -24 107 -46 b 133 -42 128 -46 132 -43 b 146 -58 135 -49 138 -58 b 157 -19 161 -58 161 -29 z m 804 1054 b 799 1061 804 1058 803 1061 l 793 1058 b 746 1003 782 1039 761 1019 b 572 694 671 915 610 803 b 571 689 572 693 571 692 b 575 686 571 688 574 686 b 581 688 578 686 579 686 b 593 714 586 690 590 708 b 783 1028 633 829 703 938 b 804 1054 786 1032 804 1051 z m 872 989 l 888 1003 b 893 1008 889 1004 892 1007 b 878 989 888 1001 883 994 z m 493 583 b 488 600 493 589 489 594 b 421 854 460 683 439 769 b 481 644 442 785 457 713 b 486 640 482 642 483 640 b 492 649 489 642 492 644 b 435 846 492 651 440 828 b 397 989 425 876 396 961 b 401 999 400 990 401 994 l 401 1003 b 400 1006 401 1004 401 1006 b 386 989 389 1006 386 999 b 482 581 386 919 450 661 b 488 576 483 578 485 576 b 493 583 490 578 493 579 z m 846 964 b 844 963 846 963 846 963 z m 113 729 b 76 508 107 690 76 532 b 82 501 76 506 78 501 b 88 507 83 501 88 506 b 132 792 113 592 115 703 b 144 829 133 801 144 822 b 139 833 144 832 140 833 l 133 831 b 72 946 114 861 78 913 b 67 951 72 949 71 951 b 61 946 65 951 61 947 b 128 819 61 919 111 843 b 122 799 125 813 124 806 b 114 792 119 797 115 794 b 57 492 107 772 57 511 b 61 483 57 489 57 483 b 67 490 64 485 65 488 b 81 567 74 515 75 542 b 113 729 90 621 101 675 z m 169 949 l 172 950 b 197 897 182 933 189 915 l 194 890 b 169 949 186 910 176 929 z m 290 906 b 283 921 288 910 286 915 l 286 926 l 294 903 z m 585 538 l 590 546 b 765 906 636 671 685 799 b 763 890 764 901 763 896 l 765 883 b 565 474 692 749 629 611 b 585 538 569 485 588 528 z m 1004 519 b 976 617 1004 535 982 594 b 940 868 956 699 940 783 l 943 878 b 943 883 943 879 943 882 b 939 886 943 885 940 886 l 933 883 b 929 858 929 876 929 867 b 994 515 929 758 960 608 b 1000 511 996 513 997 511 b 1004 519 1003 513 1004 515 z m 303 881 l 300 883 l 301 885 z m 275 881 b 290 853 279 871 289 864 l 288 849 b 275 879 283 857 275 871 z m 860 871 l 861 876 b 863 868 863 874 863 871 z m 860 824 b 853 835 860 829 857 833 b 864 858 856 843 860 850 b 865 853 864 857 864 856 l 865 844 b 867 839 867 842 867 840 l 871 800 b 872 794 871 799 871 797 l 872 786 b 874 781 874 783 874 782 b 867 782 872 782 869 782 b 856 776 863 782 858 781 b 856 783 856 779 856 782 l 854 796 b 854 801 854 799 854 800 b 860 824 854 813 860 818 z m 833 744 b 828 785 831 758 829 771 l 833 796 b 836 740 833 778 835 758 z m 347 794 l 347 796 l 351 793 b 360 771 354 788 360 778 l 360 769 b 347 794 358 769 349 792 z m 303 704 l 304 711 b 304 717 304 714 304 715 b 294 740 303 724 296 732 b 283 793 289 758 288 775 b 288 781 285 789 286 785 l 294 757 b 299 744 296 753 297 749 b 331 622 308 704 319 663 b 303 704 311 658 310 663 z m 874 746 b 875 761 874 751 874 756 l 876 744 l 874 738 b 874 746 874 740 874 743 z m 163 650 b 183 757 169 686 176 721 z m 319 751 l 322 751 b 374 614 339 706 356 658 b 399 553 381 594 393 572 b 431 369 414 500 422 425 b 319 751 399 499 363 626 z m 354 728 b 381 660 361 711 381 676 l 381 658 b 354 728 369 682 363 706 z m 401 726 b 481 463 431 639 454 550 b 415 642 461 524 436 582 b 401 726 406 668 407 699 z m 861 697 b 896 490 886 643 888 551 b 872 586 889 522 876 554 b 871 593 872 589 872 590 l 871 607 b 869 614 869 610 869 611 l 864 669 b 863 676 864 672 864 674 l 863 690 b 861 697 861 693 861 694 z m 296 619 b 293 626 294 622 294 625 l 289 644 b 288 647 289 646 289 646 l 288 651 b 296 619 293 644 294 631 z m 321 606 b 333 617 326 606 332 611 l 342 583 b 332 546 336 576 332 554 b 331 550 332 547 332 549 l 331 557 b 329 561 329 558 329 560 l 324 590 b 321 606 322 596 322 601 z m 178 611 l 186 606 b 181 561 185 590 183 576 b 172 581 179 567 172 575 b 178 611 172 590 176 601 z m 857 78 b 869 92 864 79 869 85 b 858 260 869 149 863 204 b 838 581 851 367 846 474 b 875 240 849 501 878 313 b 875 231 875 238 875 233 l 872 211 l 872 185 l 876 153 b 876 136 876 147 876 142 b 863 38 876 104 867 69 b 857 78 858 50 860 65 z m 668 301 b 672 317 668 307 671 311 b 775 557 701 399 736 479 l 776 558 l 776 560 b 772 568 776 563 778 568 b 768 567 771 568 769 568 b 657 299 756 560 657 315 l 657 293 b 663 290 658 290 660 290 b 668 301 669 290 668 297 z m 204 556 l 204 554 b 169 265 204 458 185 360 b 201 543 181 357 188 451 b 204 556 201 547 200 556 z m 353 526 l 353 542 b 354 546 353 542 353 546 l 354 544 b 354 543 354 544 354 543 l 356 540 b 356 539 356 540 356 539 l 358 529 b 358 528 358 529 358 528 l 360 525 b 360 524 360 525 360 524 z m 432 535 b 429 544 431 538 429 542 z m 135 397 b 146 408 143 397 144 401 b 165 543 154 453 157 499 b 178 538 168 539 174 539 b 129 268 161 447 142 358 l 119 268 l 131 365 b 135 397 132 376 133 386 z m 250 99 b 274 508 250 233 260 374 b 276 514 275 510 276 511 b 269 521 276 517 272 521 l 264 517 b 239 99 247 396 239 222 b 244 93 239 96 242 93 z m 435 501 b 478 343 443 447 460 394 b 486 317 478 340 486 318 b 476 290 486 307 482 299 b 435 501 457 360 446 431 z m 822 486 b 826 426 824 467 825 447 l 833 306 b 838 244 835 286 836 265 b 822 450 825 313 822 382 z m 361 469 b 421 307 390 411 406 369 b 417 300 418 306 417 303 b 444 244 417 288 428 240 b 454 213 446 239 456 215 l 449 190 b 361 469 417 282 381 374 z m 535 358 l 569 429 l 540 344 z m 496 357 l 501 358 b 499 351 501 357 500 351 z m 803 40 b 771 224 803 89 782 174 b 751 338 763 263 757 299 b 746 343 751 340 749 343 l 740 339 b 740 336 740 338 740 338 l 739 331 b 739 328 739 329 739 329 b 782 107 739 285 774 163 b 797 33 783 96 789 32 b 803 40 800 33 803 36 z m 36 339 b 32 333 35 338 32 336 b 46 322 32 329 42 322 b 50 328 49 322 50 325 b 36 339 50 333 40 339 z m 513 311 l 521 328 l 528 308 b 521 288 529 306 522 290 z m 29 13 b 42 72 31 32 38 53 b 103 324 61 156 85 239 b 82 164 97 274 96 213 b 35 8 68 114 39 60 z m 489 249 b 499 281 493 260 496 269 b 508 253 501 275 508 258 b 500 229 508 247 503 233 b 489 249 494 233 492 242 z m 479 214 l 481 218 b 490 210 483 214 486 211 l 486 197 b 479 214 483 203 481 208 z m 461 153 l 467 175 b 467 176 467 176 467 176 l 468 181 b 468 182 468 181 468 182 l 476 172 l 464 143 z m 136 79 l 142 76 l 138 39 b 136 79 136 53 136 65 z m 58 13 l 60 22 l 60 17 z m 133 18 l 136 19 b 136 10 136 17 136 13 l 135 -11 b 135 -21 135 -14 135 -18 b 133 18 133 -8 133 6 z "},"N":{"ha":772,"x_min":0,"x_max":0,"o":"m 590 -32 b 594 -22 593 -29 594 -26 b 582 -12 594 -15 588 -12 b 565 60 569 26 567 8 b 578 50 567 54 572 50 b 589 60 583 50 588 54 b 589 43 589 54 589 49 l 586 11 b 586 -6 586 6 586 0 b 597 -15 586 -11 592 -15 b 610 -4 604 -15 608 -11 b 613 88 614 24 611 58 b 621 122 618 99 619 110 b 618 47 619 97 618 72 b 628 29 618 43 618 25 b 635 -21 628 21 624 -21 b 639 25 643 -18 639 17 b 646 22 640 24 643 22 b 657 31 650 22 657 26 b 650 83 657 49 650 65 l 657 89 b 669 408 667 111 668 367 b 685 733 674 517 679 625 b 699 911 689 792 690 853 b 710 924 704 914 710 917 b 697 935 710 931 704 935 b 669 821 667 935 674 842 b 660 803 668 814 663 810 l 665 864 b 674 924 668 885 671 904 b 686 953 675 935 686 944 b 676 964 686 958 682 963 b 699 1038 681 976 699 1031 b 688 1047 699 1044 692 1047 b 654 964 674 1047 658 978 b 640 982 651 971 649 982 b 626 967 632 982 628 974 b 617 824 618 924 617 868 l 615 821 b 581 524 582 725 589 622 b 565 354 576 467 568 411 l 556 353 b 563 494 556 400 558 447 b 571 599 565 529 568 564 l 590 807 b 599 911 593 842 596 876 b 606 986 600 935 606 961 b 596 997 606 992 601 997 b 579 985 588 997 582 990 b 525 500 540 908 525 606 b 538 144 525 381 532 263 b 478 290 517 193 496 240 b 338 875 436 408 338 756 b 340 899 338 883 336 892 b 347 908 344 900 347 904 b 329 918 347 921 338 918 l 329 926 l 328 939 b 328 944 328 940 328 943 b 329 954 328 947 328 951 b 332 961 331 957 332 958 b 319 972 332 968 326 972 b 307 876 297 972 307 894 b 296 939 303 897 296 918 b 304 950 301 940 304 944 b 292 960 304 958 299 960 b 274 936 279 960 274 947 b 285 876 274 917 279 896 b 251 981 272 911 260 944 b 254 988 253 983 254 985 b 240 999 254 994 247 999 b 229 985 233 999 229 993 b 271 850 229 967 263 872 b 299 821 275 839 282 817 b 313 761 304 801 308 781 l 342 643 b 344 628 343 639 344 633 l 353 599 b 356 583 353 593 354 589 b 293 789 349 606 290 779 b 264 856 288 804 274 847 b 218 979 254 882 218 957 b 226 1003 218 992 226 994 b 215 1013 226 1008 221 1013 b 197 969 197 1013 193 982 b 125 856 150 967 133 894 b 113 835 115 853 113 843 b 117 808 113 825 114 817 b 100 550 104 724 100 636 b 92 310 100 471 99 389 b 76 76 85 232 76 154 b 93 7 76 64 74 7 b 104 18 99 7 104 11 b 99 100 104 46 99 74 b 106 218 99 140 101 179 b 117 51 118 192 117 86 b 142 -24 117 32 111 -24 b 151 -12 146 -24 151 -17 b 146 -3 151 -10 147 -4 l 146 3 b 150 92 146 32 149 63 l 157 93 b 183 -17 158 76 164 -25 b 199 -36 186 -24 190 -36 b 210 -22 207 -36 210 -29 b 203 13 210 -12 204 1 b 197 83 199 36 197 60 b 200 174 197 114 200 144 b 188 197 200 182 200 199 b 179 300 183 231 179 267 b 183 357 179 319 181 339 b 199 319 185 343 183 325 b 197 251 197 297 197 274 b 211 124 197 208 204 167 b 203 43 204 99 203 69 b 217 11 203 33 200 11 b 233 103 236 11 232 86 b 233 125 238 110 233 118 b 233 150 233 133 233 142 l 238 200 b 238 225 238 208 238 217 b 231 336 238 240 238 331 l 231 375 b 233 539 231 429 232 485 b 381 238 282 438 326 335 b 460 90 389 221 458 92 b 467 86 461 88 464 86 b 479 103 475 86 479 96 b 581 -47 489 88 572 -47 b 590 -32 588 -47 592 -39 z m 649 951 b 650 949 650 950 650 950 l 649 944 b 649 942 649 944 649 943 l 647 940 l 647 944 b 649 951 647 947 649 950 z m 189 926 l 197 925 l 204 901 b 189 926 201 910 199 925 z m 86 621 l 86 783 b 88 829 86 799 86 814 l 90 858 b 92 904 92 874 92 889 b 86 914 92 907 92 914 b 82 907 83 913 82 910 b 75 621 68 836 75 699 b 81 617 75 618 76 617 z m 172 756 b 175 861 172 772 175 861 l 176 871 b 185 882 181 872 185 876 b 179 892 185 885 182 890 b 181 903 179 897 179 903 l 194 854 b 189 783 194 831 192 806 b 179 772 183 782 179 778 b 188 749 179 767 188 753 l 188 728 b 172 756 183 732 172 750 z m 722 435 b 725 464 725 444 725 454 b 722 590 725 507 722 549 b 731 776 722 653 726 714 b 744 871 733 806 744 844 b 740 874 744 872 742 874 l 735 869 b 711 579 710 789 711 664 b 711 435 711 536 721 475 l 717 432 z m 149 854 l 147 853 l 151 871 b 149 854 151 865 150 860 z m 369 849 b 364 843 367 849 364 847 b 375 835 364 839 371 835 b 381 840 378 835 381 836 b 369 849 381 844 374 849 z m 222 842 b 275 674 239 788 253 726 b 286 664 276 668 281 664 b 297 681 297 664 297 674 l 256 813 l 261 807 b 308 657 278 757 293 707 l 301 657 b 288 643 294 657 288 650 b 301 589 288 633 296 607 b 222 842 283 640 219 829 z m 569 828 b 550 617 564 757 557 688 b 569 828 553 688 558 758 z m 639 821 l 639 814 b 638 811 639 814 638 811 l 638 813 b 639 821 638 815 638 818 z m 214 750 b 214 757 214 753 214 754 l 217 769 b 217 776 217 772 217 775 b 257 649 229 733 243 692 b 214 750 250 664 214 738 z m 510 363 b 453 553 510 390 464 515 b 413 742 433 617 426 678 b 407 747 413 744 410 747 b 401 739 404 746 401 743 b 492 394 401 644 468 489 b 504 357 493 388 496 357 b 510 363 507 357 510 360 z m 650 728 b 618 447 646 633 632 540 b 650 728 622 540 639 635 z m 210 685 l 210 697 b 244 619 222 672 233 646 b 236 636 242 625 239 631 l 218 668 b 210 685 215 674 213 679 z m 172 668 b 183 643 175 663 183 647 b 174 524 183 604 178 563 b 172 668 172 572 172 619 z m 311 638 l 314 640 b 392 401 339 561 365 481 b 311 638 361 476 326 558 z m 206 393 b 203 454 206 413 203 433 b 206 599 203 503 204 550 l 213 582 b 204 374 213 556 208 385 b 204 379 204 375 204 378 l 206 388 b 206 393 206 389 206 392 z m 467 124 b 368 311 438 188 400 249 b 236 586 322 401 278 493 l 236 589 b 340 404 269 528 300 460 b 375 329 354 385 365 351 b 469 122 406 260 436 190 z m 496 119 b 314 521 426 247 374 388 l 322 526 b 407 329 331 500 389 328 l 415 332 b 508 113 442 258 471 181 z m 619 167 b 624 194 625 174 624 186 b 614 229 624 217 614 217 b 651 521 614 294 642 447 b 651 513 651 518 651 515 l 650 496 b 650 488 650 493 650 490 l 647 419 b 647 411 647 417 647 414 l 646 394 b 646 386 646 392 646 389 b 639 378 643 385 640 381 b 624 163 636 369 626 192 z m 136 304 l 136 518 l 149 365 b 139 301 140 344 140 324 z m 50 436 b 44 447 50 440 50 447 b 39 440 42 447 39 443 b 14 94 24 360 14 179 b 19 88 14 92 15 88 b 25 93 22 88 25 90 b 32 256 32 139 28 206 b 50 436 36 310 50 385 z m 267 343 b 263 339 264 343 263 342 b 275 324 263 335 269 324 b 281 329 278 324 281 325 b 267 343 281 333 271 343 z m 551 303 l 563 313 b 560 163 561 263 560 213 z m 297 299 b 292 290 293 297 292 294 b 469 -64 292 272 450 -28 b 475 -68 471 -67 472 -68 b 479 -64 476 -68 479 -65 b 322 243 479 -51 340 200 b 297 299 318 251 304 299 z m 136 290 l 139 288 l 139 279 l 138 279 b 136 290 136 279 136 290 z m 697 264 b 703 269 700 264 703 265 b 694 281 703 274 699 281 b 686 264 689 281 686 268 b 672 17 679 183 672 97 b 676 11 672 14 672 11 b 683 18 681 11 682 15 b 697 264 688 31 696 232 z m 640 226 b 642 244 642 232 642 239 l 642 228 z m 172 175 l 178 171 b 178 160 178 167 178 164 l 176 135 b 176 124 176 131 176 128 b 172 175 174 140 172 158 z "},"O":{"ha":882,"x_min":0,"x_max":0,"o":"m 718 217 b 729 208 719 211 724 208 b 739 214 733 208 736 211 b 817 467 750 229 824 451 b 832 560 822 494 832 532 b 821 572 832 567 829 572 b 804 528 807 572 807 538 l 804 550 b 710 919 804 701 778 788 b 526 1033 671 994 610 1033 b 489 1021 513 1033 499 1029 b 378 804 407 990 378 883 b 406 685 378 786 382 675 b 404 633 407 667 404 651 b 414 611 404 625 407 618 b 438 529 415 597 421 529 b 449 539 442 529 449 533 b 436 613 449 563 440 590 b 442 624 439 615 442 619 b 433 633 442 629 438 632 b 433 640 433 636 433 638 l 431 657 b 431 664 431 660 431 661 b 442 713 431 682 440 697 b 460 586 442 693 442 586 b 472 600 468 586 472 593 b 465 711 472 638 465 674 b 543 914 465 788 481 863 b 597 869 564 901 582 889 b 667 746 607 857 665 756 b 669 682 669 725 669 703 b 592 229 669 554 647 340 b 588 217 590 225 588 221 b 599 207 588 211 592 207 b 454 97 565 158 519 97 b 272 389 333 97 272 292 b 360 774 272 528 332 643 l 360 779 b 350 789 360 785 354 789 b 338 778 343 789 339 783 b 285 599 318 719 301 658 b 358 858 297 690 311 778 b 360 864 360 860 360 863 b 349 875 360 869 354 875 b 338 869 344 875 342 872 b 378 942 350 893 364 917 b 381 949 379 944 381 946 b 375 958 381 951 376 957 b 390 975 381 963 390 968 b 379 986 390 981 385 986 b 307 933 369 986 318 942 b 274 881 290 919 282 900 l 286 924 b 290 940 293 926 292 935 b 304 988 296 956 300 972 b 310 986 306 986 307 986 b 313 993 313 986 313 990 b 301 1004 313 999 308 1007 l 299 1004 b 272 961 286 1004 276 971 l 269 961 b 264 940 265 961 265 943 l 261 939 l 272 990 l 278 990 b 281 994 279 990 281 993 b 269 1001 281 1001 274 1003 l 274 1013 b 276 1017 275 1014 276 1015 b 271 1021 276 1019 272 1021 l 264 1018 b 236 919 246 993 244 949 b 229 910 236 918 233 910 b 243 958 229 926 243 947 b 236 969 243 963 240 967 b 242 1010 238 983 239 996 b 247 1015 244 1010 247 1011 b 236 1029 247 1021 242 1028 l 232 1025 b 218 963 229 1015 226 963 b 217 965 217 963 217 964 b 219 1006 217 978 218 993 b 224 1011 222 1007 224 1008 b 215 1022 224 1017 221 1021 l 208 1013 l 197 1004 b 196 1015 193 1006 196 1013 b 190 1021 196 1018 193 1022 l 185 1018 l 181 1000 b 176 1003 179 1001 178 1003 b 139 915 154 1003 142 932 b 103 575 93 842 103 664 b 89 517 103 560 93 533 b 76 393 82 476 76 435 b 83 313 76 367 79 339 b 301 3 113 149 147 69 b 390 -15 329 -10 360 -15 b 454 -7 411 -15 433 -12 b 718 217 599 33 642 94 z m 640 943 b 538 997 614 969 576 997 b 486 976 518 997 501 988 b 544 1007 494 1008 517 1007 b 653 939 569 1007 635 957 z m 208 1000 b 194 922 206 972 204 949 b 208 1000 196 939 200 989 z m 128 975 b 132 981 131 975 132 978 b 125 992 132 985 129 992 b 110 918 113 992 110 929 b 114 914 110 915 113 914 b 128 975 124 917 125 964 z m 832 608 b 772 878 832 699 804 794 b 738 974 761 908 744 942 b 740 978 739 975 740 976 b 732 986 740 982 736 986 l 726 982 l 726 978 b 782 817 726 957 772 847 b 815 661 797 767 810 714 b 821 607 818 644 818 625 b 828 601 821 604 824 601 b 832 608 831 601 832 606 z m 461 976 b 449 936 456 964 456 949 b 404 751 414 876 406 819 b 400 801 401 768 400 785 b 461 976 400 861 417 933 z m 596 950 b 585 951 592 951 589 951 b 535 942 572 951 546 949 b 519 944 531 943 525 944 b 471 925 503 944 485 936 b 540 974 486 947 511 974 b 596 950 561 974 581 963 z m 286 965 b 286 964 286 965 286 964 l 285 961 b 285 960 285 961 285 960 l 282 950 b 282 949 282 950 282 949 l 281 946 b 281 944 281 946 281 944 l 278 944 z m 351 939 b 306 864 336 914 319 889 b 285 850 297 864 290 857 b 351 939 301 893 313 914 z m 567 925 l 569 925 b 644 836 599 925 635 860 b 567 925 619 881 611 896 z m 272 919 l 274 921 b 253 844 265 896 258 871 b 272 919 253 871 264 894 z m 460 872 l 463 872 b 503 918 483 872 458 901 b 447 801 467 885 463 844 b 460 872 450 825 456 849 z m 624 914 b 707 786 667 883 692 835 b 740 575 718 749 740 613 b 706 424 740 535 719 463 b 721 574 715 474 721 524 b 703 710 721 619 717 665 b 688 753 699 724 690 739 b 624 914 674 813 665 865 z m 678 899 b 710 853 692 886 701 869 l 718 836 l 718 835 b 678 899 704 857 693 879 z m 203 876 b 192 832 201 871 199 832 b 192 833 192 832 192 832 z m 235 872 b 217 769 228 840 217 801 b 222 764 217 767 218 763 b 244 826 229 765 242 817 l 250 828 b 208 697 247 785 221 739 b 235 872 213 740 214 839 z m 167 863 b 172 847 167 858 165 849 b 153 738 168 829 156 744 b 167 863 156 779 161 821 z m 626 642 b 582 831 626 704 617 779 b 574 836 581 833 578 836 b 569 832 572 836 569 835 l 572 826 b 615 647 601 768 615 714 b 536 281 615 506 583 413 l 535 279 b 540 274 535 275 539 274 b 547 278 543 274 546 276 b 626 642 594 361 626 546 z m 50 368 b 49 374 50 374 49 369 b 40 494 42 413 40 456 b 68 781 40 589 44 689 b 83 829 71 790 83 822 b 78 832 83 831 79 832 l 72 828 b 29 500 38 743 29 593 b 39 368 29 460 28 407 b 44 363 40 365 40 363 b 50 368 49 363 50 365 z m 133 828 l 139 824 b 131 739 136 796 133 768 l 125 653 b 133 828 125 710 124 772 z m 265 621 b 268 704 265 646 263 679 b 313 822 279 749 294 786 b 265 621 288 754 269 643 z m 767 632 b 742 783 767 683 760 735 b 774 628 763 735 774 681 b 671 281 774 511 728 382 l 679 304 b 765 586 721 408 754 468 b 767 632 767 601 767 617 z m 193 779 b 168 565 186 708 186 633 b 193 779 168 640 164 710 z m 222 669 b 197 535 214 624 207 579 b 222 669 197 596 206 614 z m 692 661 b 699 574 696 632 699 603 b 657 311 699 504 681 378 b 632 265 651 296 640 279 b 692 661 676 383 688 536 z m 133 419 b 149 653 133 496 143 576 b 146 472 146 593 146 532 b 151 461 146 468 147 464 l 151 438 b 193 247 151 372 165 307 b 193 182 190 225 190 204 b 133 419 165 238 133 358 z m 242 618 b 226 374 240 540 250 449 b 224 449 225 399 224 424 b 242 618 224 510 228 560 z m 329 446 b 340 578 329 486 342 547 l 335 582 b 329 574 332 581 329 578 b 318 444 322 531 318 488 b 404 174 318 353 340 243 b 413 169 407 171 410 169 b 418 174 415 169 418 171 l 415 178 b 329 446 354 278 329 329 z m 179 506 b 190 507 183 506 188 506 b 183 424 185 479 183 451 b 194 307 183 385 188 346 b 174 438 181 349 174 393 b 179 506 174 461 176 483 z m 779 493 b 665 225 771 371 743 318 b 779 493 717 307 757 399 z m 106 485 b 111 418 108 463 111 440 b 107 307 111 382 108 344 b 99 396 101 336 99 367 b 106 485 99 425 101 456 z m 854 381 b 851 383 854 382 853 383 b 846 382 849 383 847 383 b 776 238 846 382 786 254 b 640 64 738 174 697 114 b 618 42 636 61 618 46 b 624 38 618 39 621 38 l 628 39 b 849 365 728 104 801 258 b 854 381 851 371 854 374 z m 236 272 l 233 300 b 233 314 233 304 233 310 b 239 335 233 319 236 329 b 263 168 240 279 246 222 b 236 272 238 196 236 236 z m 125 224 b 129 303 131 249 128 278 b 182 153 140 251 156 200 b 204 121 189 142 199 132 b 228 67 214 104 218 83 b 125 224 172 107 143 158 z m 267 257 b 265 274 267 263 267 268 l 267 272 b 267 271 267 272 267 271 l 269 263 b 269 261 269 263 269 263 l 271 260 b 271 258 271 260 271 258 z m 296 143 b 278 194 289 160 283 178 b 308 135 288 174 297 154 z m 608 182 b 572 136 600 158 592 151 b 608 182 586 150 597 165 z m 60 175 b 56 167 56 174 56 171 b 143 25 56 133 118 47 b 289 -47 171 0 251 -47 b 293 -42 292 -47 293 -44 b 288 -36 293 -40 289 -37 b 150 33 231 -11 203 -15 b 67 169 108 72 88 118 b 60 175 65 172 64 175 z m 361 90 b 363 96 363 92 363 94 b 356 107 363 101 358 104 b 319 161 343 118 328 146 b 419 82 344 126 378 94 b 361 90 400 82 381 85 z m 250 133 b 299 93 263 117 281 103 b 422 28 331 51 368 28 b 521 50 458 28 511 50 l 522 50 b 414 24 522 36 429 24 b 250 133 342 24 281 69 z m 310 118 b 311 129 311 122 311 125 l 328 103 b 310 118 321 107 314 111 z m 357 68 b 424 58 378 61 400 58 b 557 99 471 58 517 75 l 549 88 b 422 51 510 67 467 51 b 357 68 399 51 376 56 z m 242 90 l 249 92 b 335 17 271 61 300 33 b 242 90 293 26 261 53 z "},"P":{"ha":911,"x_min":0,"x_max":0,"o":"m 350 1046 b 342 1051 349 1050 346 1051 b 76 954 324 1051 106 968 b 49 926 67 950 49 939 b 51 922 49 924 50 922 b 72 939 60 922 65 933 b 332 1036 111 968 275 1015 b 350 1046 336 1038 350 1042 z m 388 85 l 393 88 b 429 13 396 72 411 13 b 438 18 432 13 436 17 b 450 7 438 13 444 7 b 461 19 457 7 461 13 b 456 33 461 22 456 29 b 461 50 456 36 461 40 b 450 119 461 74 451 96 b 449 193 449 144 449 168 b 453 328 449 238 450 283 b 588 385 467 333 583 385 l 588 383 b 542 335 579 374 542 349 b 551 325 542 329 546 325 b 626 389 556 325 625 385 b 638 393 631 389 635 390 b 854 742 719 461 854 626 b 849 772 854 751 853 763 b 853 785 851 775 853 779 l 853 788 b 847 794 851 789 847 793 b 847 799 847 796 847 797 l 850 803 b 850 807 850 804 850 806 l 847 814 l 842 818 b 822 850 839 831 831 842 b 826 849 824 849 825 849 b 832 856 831 849 832 851 b 797 893 832 858 801 885 b 786 919 793 899 789 913 b 865 767 833 879 865 831 b 751 476 865 642 751 493 b 763 464 751 469 756 464 b 774 475 768 464 774 469 b 888 767 826 567 888 657 b 507 1026 888 957 661 1026 b 299 1001 451 1026 349 1021 b 40 882 226 974 110 918 b 39 869 36 879 38 874 b 18 854 33 867 18 861 l 21 850 l 21 849 l 19 849 b 32 836 19 842 28 836 b 36 840 35 836 36 839 l 33 846 b 139 896 50 858 121 896 b 140 893 140 896 140 894 l 138 889 b 75 844 113 878 94 864 b 49 825 69 843 49 831 b 58 817 49 821 54 817 b 69 824 63 817 67 824 b 81 819 75 824 74 819 b 103 840 90 819 94 836 b 214 893 139 860 176 878 b 7 733 194 883 7 758 b 18 722 7 726 13 722 b 78 771 19 722 51 749 b 60 749 67 761 60 753 b 71 736 60 742 65 736 l 78 739 b 154 803 103 761 128 783 l 154 799 b 165 786 154 792 158 786 b 138 763 158 782 138 772 b 147 753 138 757 142 754 l 146 749 b 110 721 138 744 110 731 b 121 710 110 715 115 710 b 182 743 129 710 171 738 b 258 783 182 743 244 779 b 588 843 343 807 499 843 b 688 786 619 843 671 813 l 688 779 b 717 735 703 771 717 754 b 642 567 717 685 685 594 l 642 558 b 564 482 619 529 593 504 b 538 475 556 481 546 478 l 488 463 b 481 461 486 463 483 461 l 468 457 b 461 456 465 457 464 457 b 469 610 465 504 461 563 b 500 760 479 660 493 708 b 506 776 501 765 506 771 b 493 788 506 782 500 788 b 481 776 488 788 483 782 b 467 757 471 778 463 765 b 458 724 463 746 461 735 b 446 733 456 728 451 732 b 450 743 449 736 450 739 b 403 767 450 757 415 767 b 374 756 393 767 382 764 l 371 757 b 314 418 336 757 315 483 l 293 414 b 283 532 292 433 289 521 b 278 536 282 535 281 536 b 272 529 275 535 272 532 b 282 411 272 492 279 450 b 167 397 243 403 206 397 b 153 388 161 397 153 394 b 179 374 153 376 171 374 b 192 357 178 365 182 357 b 206 369 199 357 201 364 l 214 369 b 283 368 238 369 260 365 l 285 353 b 269 353 279 353 275 353 l 238 351 b 222 351 232 351 228 351 b 183 353 210 351 196 351 l 157 356 b 118 357 144 357 131 357 b 103 347 111 357 103 356 b 118 321 103 340 110 321 b 131 333 125 321 131 326 b 242 329 168 329 204 329 l 238 321 b 186 279 225 315 186 294 l 189 272 b 203 268 192 269 197 268 b 215 274 207 268 211 271 b 226 264 217 268 221 264 b 235 269 229 264 233 268 l 249 261 b 247 251 247 258 247 256 b 260 242 247 246 254 242 b 271 251 264 242 269 246 b 290 249 278 250 283 249 b 292 206 292 235 292 219 l 293 122 b 293 111 293 119 293 115 l 294 90 b 294 79 294 86 294 83 b 301 54 294 74 294 54 l 308 60 b 301 249 299 121 304 188 b 319 251 307 249 314 250 b 329 157 325 218 329 190 b 339 0 329 128 331 22 b 344 -4 340 -3 342 -4 l 349 -1 l 356 -7 b 360 0 358 -6 360 -3 b 360 11 360 4 360 7 b 367 -1 361 4 364 -1 l 372 3 b 372 47 375 17 372 33 b 418 -19 379 35 404 -19 b 431 -8 424 -19 431 -15 b 388 85 431 1 388 50 z m 225 929 l 229 935 b 288 974 242 942 292 958 b 460 1003 342 996 401 1000 b 225 929 379 989 300 961 z m 635 972 b 615 994 636 983 625 992 b 726 957 653 988 692 975 l 725 950 b 635 972 699 961 663 972 z m 588 974 b 590 974 589 974 590 975 b 579 953 582 967 579 963 b 507 957 556 956 532 957 b 415 951 476 957 446 954 b 588 974 454 967 546 974 z m 394 967 b 351 942 381 958 365 951 b 288 931 331 939 308 936 b 394 967 322 944 358 957 z m 603 951 l 603 953 b 604 954 604 954 604 954 b 614 951 607 954 611 953 l 615 949 z m 696 949 b 765 910 721 940 749 932 b 772 899 768 906 771 903 b 772 896 772 897 774 896 b 696 949 771 896 706 943 z m 628 947 l 629 947 b 663 939 640 946 651 943 z m 204 936 b 225 946 207 938 224 946 b 224 944 225 944 224 944 z m 186 913 b 224 929 197 919 211 926 b 186 913 211 924 199 918 z m 496 918 b 571 901 519 918 547 907 l 535 901 b 528 908 536 907 532 908 b 394 888 485 908 438 894 b 496 918 414 896 476 918 z m 600 915 b 735 872 644 906 693 893 b 765 817 751 864 763 833 b 600 915 728 874 661 894 z m 576 890 l 588 890 b 597 893 592 890 594 892 b 642 875 613 888 628 882 b 576 890 619 875 597 882 z m 226 869 b 292 888 247 876 269 882 b 229 863 271 881 250 872 z m 493 874 b 354 844 446 867 400 857 b 493 874 399 861 446 872 z m 358 872 l 361 871 b 342 864 354 868 349 865 z m 176 796 b 304 869 176 821 282 860 b 174 790 275 854 193 797 z m 721 849 b 765 796 739 835 753 815 l 761 786 b 721 849 753 810 738 831 z m 664 847 l 683 843 b 689 842 686 843 688 842 l 689 831 z m 714 807 b 714 810 714 808 714 808 l 713 818 l 713 821 b 714 824 713 822 713 824 b 743 764 721 824 742 772 b 714 807 735 779 726 794 z m 660 765 b 639 788 651 771 647 781 b 514 811 610 810 549 811 b 414 799 503 811 414 810 l 419 792 b 517 801 453 796 483 801 b 638 774 547 801 617 799 b 658 756 643 767 647 756 b 663 761 661 756 663 758 z m 363 785 b 357 790 363 788 360 790 b 238 739 349 790 254 746 b 232 733 235 738 232 736 b 236 729 232 732 236 729 b 363 785 251 729 363 778 z m 810 688 b 817 781 819 718 819 750 b 831 739 826 767 831 757 b 819 688 831 721 825 704 z m 725 771 b 736 754 726 771 733 756 l 746 747 l 746 742 b 743 728 746 738 744 733 l 739 713 b 725 771 736 731 725 754 z m 431 728 b 401 744 425 733 408 743 b 435 732 414 744 425 738 z m 428 628 b 446 706 428 649 440 683 l 456 710 b 428 540 447 650 444 600 b 428 628 431 568 428 599 z m 381 688 b 388 632 383 669 388 650 b 360 483 388 585 371 529 b 381 688 363 551 371 619 z m 725 658 b 694 592 719 633 714 617 b 692 589 693 590 693 589 b 725 660 706 608 718 635 z m 749 624 b 706 543 746 613 711 550 b 650 506 689 524 674 513 b 742 613 683 536 719 572 b 749 624 743 614 747 624 z m 792 619 b 717 504 771 578 746 540 b 792 619 743 542 768 581 z m 440 494 b 440 483 440 490 440 488 l 439 461 b 439 450 439 457 439 454 l 435 449 l 435 456 b 440 494 435 468 438 482 z m 686 478 l 692 476 b 649 435 678 461 664 447 b 686 478 663 449 674 463 z m 797 443 b 803 449 800 443 803 446 b 797 454 803 453 800 454 b 636 325 790 454 654 339 b 633 319 635 324 633 322 b 639 314 633 317 636 314 b 797 443 644 314 778 429 z m 618 335 b 744 442 626 335 729 429 b 747 447 746 443 747 444 b 743 453 747 449 746 453 b 638 363 732 453 654 375 b 611 342 633 360 611 344 b 618 335 611 338 614 335 z m 457 364 b 460 379 463 368 461 374 b 557 438 463 379 547 432 b 599 451 568 444 586 446 b 503 374 579 439 489 401 b 456 354 488 367 472 360 z m 783 450 b 769 440 779 447 774 444 b 783 450 775 443 779 447 z m 628 444 b 532 386 593 410 575 406 b 628 444 561 410 597 422 z m 297 353 l 297 358 b 313 360 303 356 308 360 b 297 353 313 358 300 353 z m 426 353 l 432 356 l 432 343 l 428 342 z m 604 308 b 599 317 603 311 601 315 b 611 325 604 318 607 321 l 592 317 b 586 321 592 318 589 321 b 472 265 585 321 482 271 l 474 274 b 464 267 469 274 464 272 l 467 263 b 460 254 464 261 460 258 b 467 249 461 251 463 249 l 476 254 b 535 283 494 265 515 275 b 483 243 525 278 483 254 b 488 238 483 240 485 238 b 492 239 490 238 490 238 b 599 306 508 253 578 306 b 604 308 601 306 604 306 z m 300 297 l 315 301 l 315 296 l 300 289 z m 257 285 l 261 285 b 263 286 261 286 263 286 l 281 292 b 283 293 282 292 282 292 l 288 293 b 289 294 288 294 289 294 l 289 285 b 269 276 286 283 271 276 b 257 285 264 276 260 282 z m 417 161 b 408 236 414 188 408 210 b 404 243 408 239 407 242 b 407 290 404 258 406 275 l 408 293 b 422 157 413 247 417 203 z m 357 185 b 363 219 357 196 360 208 l 365 222 b 374 110 365 185 371 147 b 357 185 367 129 357 164 z m 497 169 b 500 176 499 171 500 174 b 493 186 500 179 497 186 b 486 138 483 186 486 144 b 486 106 486 126 486 117 l 482 42 b 482 10 482 31 482 21 b 488 1 482 7 482 1 b 497 169 499 6 497 146 z m 422 64 l 428 69 b 421 132 428 90 424 113 l 425 131 b 433 38 429 100 426 68 b 422 64 429 46 425 54 z m 414 94 b 410 122 413 104 411 113 b 414 94 411 113 414 104 z m 358 81 b 357 58 357 74 357 65 b 357 47 357 57 357 53 b 353 96 356 64 354 79 z "},"Q":{"ha":881,"x_min":0,"x_max":0,"o":"m 717 183 b 728 175 718 179 722 175 b 736 181 731 175 735 178 b 815 433 747 194 821 419 b 831 526 821 461 831 499 b 819 539 831 533 828 539 b 803 494 804 539 803 506 l 803 517 b 707 886 803 667 776 756 b 526 1000 669 958 608 1000 b 479 985 504 1000 497 993 b 375 775 406 947 375 853 b 404 651 375 757 378 642 b 403 601 406 633 403 619 b 411 579 403 593 406 585 b 436 496 413 565 419 496 b 447 506 440 496 447 500 b 435 581 447 529 438 557 b 440 590 438 583 440 586 b 432 601 440 596 436 600 b 432 608 432 604 432 606 l 429 624 b 429 631 429 626 429 628 b 440 679 429 649 439 664 b 458 553 440 660 440 553 b 471 567 467 553 471 560 b 463 681 471 604 463 643 b 542 881 463 756 479 832 b 596 838 561 869 582 856 b 664 713 606 826 663 722 b 668 644 667 690 668 667 b 589 196 668 513 647 311 b 586 185 588 192 586 189 b 596 174 586 179 589 174 b 456 65 565 126 518 65 b 271 357 331 65 271 256 b 358 740 271 501 329 608 l 358 746 b 347 756 358 751 353 756 b 336 746 342 756 338 751 b 283 565 315 690 299 622 b 356 825 296 654 310 746 b 358 832 357 828 358 829 b 346 843 358 838 353 842 l 339 839 b 263 589 296 792 274 653 b 267 671 265 615 260 646 b 311 796 278 711 293 757 b 378 915 319 813 378 910 b 372 925 378 918 374 924 b 389 942 378 929 389 933 b 376 953 389 947 383 953 b 306 900 367 953 315 908 b 272 849 289 885 282 869 l 285 890 b 289 907 290 894 292 901 b 290 910 289 908 289 908 l 290 915 b 292 918 292 917 292 917 l 300 943 b 301 946 300 944 300 944 l 301 951 b 303 954 303 953 303 953 l 307 954 b 311 960 310 954 311 958 b 304 971 311 963 308 971 l 292 971 b 271 928 283 964 275 939 l 268 928 b 261 907 264 928 263 910 l 258 906 b 271 957 261 922 264 942 b 279 963 275 957 279 958 b 268 969 279 968 272 971 b 275 983 269 975 275 981 b 269 989 275 986 272 989 l 263 985 b 235 886 244 960 242 915 b 228 876 235 885 232 876 b 240 926 228 893 240 913 b 235 936 240 931 239 935 l 239 976 b 244 982 242 976 244 979 b 235 996 244 988 240 994 l 231 992 b 215 929 228 982 224 929 b 214 932 214 929 214 931 l 218 974 b 222 978 221 974 222 976 b 213 989 222 983 218 989 l 208 986 l 207 979 b 194 971 201 981 197 975 b 194 983 192 975 194 979 b 189 989 194 986 192 989 l 183 985 l 179 967 b 174 969 178 969 176 969 b 150 936 158 969 154 947 b 136 882 144 919 143 897 b 106 760 117 840 108 806 b 100 543 103 719 104 565 b 75 360 88 482 75 424 b 82 275 75 332 76 303 b 300 -31 110 119 147 32 b 389 -49 328 -42 358 -49 b 453 -39 410 -49 432 -44 b 675 117 557 -8 613 26 b 686 133 679 122 683 128 l 706 167 b 717 183 708 172 713 178 z m 639 910 b 535 965 613 936 575 965 b 485 943 515 965 500 956 b 536 974 493 972 510 974 b 651 906 571 974 628 929 z m 206 967 b 193 890 204 940 204 915 b 206 967 197 915 197 942 z m 125 943 b 131 949 128 943 131 944 b 124 958 131 951 128 958 b 108 886 111 958 108 897 b 114 881 108 883 111 881 b 125 943 122 885 124 932 z m 831 575 b 771 844 831 657 800 768 l 751 893 b 735 940 746 910 740 925 b 739 944 736 942 739 943 b 729 953 739 950 733 953 l 725 949 l 725 944 b 779 783 725 925 769 813 b 819 575 801 713 811 647 b 825 568 819 572 821 568 b 831 575 828 569 831 572 z m 460 943 b 447 903 454 931 454 915 b 403 718 414 840 404 789 b 399 769 400 735 399 753 b 460 943 399 829 414 901 z m 594 918 l 589 918 b 532 910 574 918 546 915 b 518 911 528 911 522 911 b 469 893 500 911 483 904 b 538 942 485 914 510 942 b 594 918 558 942 578 931 z m 285 933 l 281 918 b 281 917 281 918 281 917 l 279 914 b 279 913 279 914 279 913 l 275 911 z m 349 907 b 338 888 346 900 342 894 l 304 831 l 300 831 b 283 818 294 831 288 822 b 349 907 306 867 308 874 z m 565 893 b 642 803 600 892 631 831 b 565 893 619 846 604 864 z m 269 886 l 271 888 b 251 811 264 863 257 838 b 269 886 251 838 263 861 z m 458 840 b 501 886 471 838 472 875 b 444 768 458 847 467 811 b 458 840 449 792 453 817 z m 622 881 b 706 754 664 850 692 803 b 739 543 714 726 739 569 b 703 390 739 501 718 429 b 719 543 713 440 719 492 b 703 675 719 588 715 633 b 686 719 699 690 689 706 b 622 881 672 779 664 832 z m 676 865 b 707 819 692 851 697 836 l 713 808 b 715 801 714 807 718 801 l 715 803 b 676 865 704 825 690 846 z m 183 861 b 182 860 183 860 182 860 z m 201 843 b 190 800 200 838 196 800 b 201 843 190 806 199 836 z m 233 839 b 215 736 225 808 215 767 b 221 731 215 733 217 731 b 243 794 226 731 240 785 l 249 794 b 206 664 247 769 215 693 b 233 839 210 710 210 801 z m 50 368 b 49 374 50 374 49 369 b 40 494 42 413 40 456 b 68 781 40 589 44 689 b 83 829 71 790 83 822 b 78 832 83 831 79 832 l 72 828 b 29 500 38 743 29 593 b 39 368 29 460 28 407 b 44 363 40 365 40 363 b 50 368 49 363 50 365 z m 164 831 b 171 815 164 826 164 815 b 153 710 163 781 157 746 b 151 704 153 707 153 704 l 151 706 b 164 831 151 746 158 790 z m 625 604 b 581 797 625 665 617 746 b 572 803 579 800 576 803 b 568 797 569 803 568 801 l 569 794 b 613 606 604 724 613 683 b 561 315 613 507 594 408 b 554 299 560 310 557 304 l 542 267 b 540 263 542 265 540 264 l 536 254 b 535 250 536 253 536 251 b 533 244 535 249 533 247 b 539 240 533 243 536 240 b 544 246 542 240 543 244 b 625 604 592 339 625 499 z m 131 794 l 136 790 b 124 621 129 735 128 676 b 131 794 124 678 124 738 z m 765 600 b 740 750 765 650 758 703 b 771 604 760 704 771 654 b 669 247 771 479 729 357 b 671 253 671 250 671 251 l 675 265 b 675 267 675 265 675 267 l 676 269 b 704 329 683 290 696 310 b 765 600 740 415 765 506 z m 190 746 b 167 533 183 676 185 601 b 175 704 167 590 167 649 b 190 746 178 719 186 732 z m 221 636 l 208 569 b 194 503 204 547 200 525 b 221 636 203 568 196 569 z m 690 628 b 697 544 694 600 697 572 b 656 279 697 478 676 342 b 631 232 650 263 639 246 b 690 628 675 350 686 503 z m 132 388 b 146 621 132 464 142 543 b 144 531 144 590 144 560 b 150 429 144 515 140 435 l 150 406 b 192 214 150 339 164 274 b 192 149 189 192 189 171 b 132 388 163 207 132 324 z m 240 585 b 225 342 239 507 249 415 b 222 417 224 367 222 392 b 240 585 222 475 225 529 z m 326 411 b 339 540 326 456 339 507 b 333 549 339 543 338 549 b 328 540 329 549 328 543 b 317 411 321 497 317 454 b 403 140 317 319 340 211 b 411 136 404 138 407 136 b 415 139 413 136 415 138 l 413 144 b 326 411 351 244 326 289 z m 178 472 b 189 474 182 472 186 472 b 181 388 183 446 181 417 b 192 274 181 350 185 311 b 172 404 179 315 172 360 b 178 472 172 426 175 450 z m 778 461 b 664 192 769 346 738 281 b 778 461 715 275 756 365 z m 104 451 b 110 382 104 428 110 406 b 106 275 110 346 107 311 b 97 365 100 304 97 335 b 104 451 97 394 100 424 z m 793 214 b 853 342 808 240 842 329 l 853 346 b 847 351 853 349 850 351 b 775 206 842 350 786 224 b 639 31 738 143 694 79 b 615 8 633 26 615 14 b 622 4 615 6 619 4 l 625 6 b 793 214 697 61 749 136 z m 235 239 l 232 267 b 232 281 232 271 232 276 b 238 303 232 288 236 297 b 260 135 239 246 244 189 b 235 239 238 167 235 201 z m 124 192 b 126 271 129 214 126 247 b 203 88 140 206 161 140 b 226 33 208 68 215 50 b 124 192 169 75 142 125 z m 264 242 b 269 226 265 236 267 231 l 265 225 b 265 229 265 226 265 228 l 264 238 b 264 242 264 239 264 240 z m 699 200 b 631 97 679 164 656 129 b 619 103 628 100 624 103 b 608 96 615 103 613 99 b 699 200 624 125 675 169 z m 294 110 b 276 161 288 126 281 143 b 306 101 286 142 294 121 z m 71 -79 b 221 -53 108 -79 181 -61 b 265 -42 228 -51 265 -51 l 263 -37 l 254 -37 b 231 -32 253 -32 236 -35 b 64 124 167 4 107 64 b 57 150 64 129 65 149 b 50 136 51 146 50 142 b 54 117 50 129 51 122 b 167 -6 60 103 158 -6 l 171 -3 b 174 -6 172 -4 172 -4 l 179 -10 b 182 -11 181 -10 181 -11 l 203 -26 b 214 -35 207 -29 211 -32 b 97 -54 178 -40 132 -43 b 93 -64 94 -56 88 -61 b 65 -74 88 -65 65 -67 b 71 -79 65 -76 68 -79 z m 607 149 b 571 103 588 119 596 128 b 607 149 583 117 596 133 z m 360 57 b 361 64 361 60 361 61 b 354 74 361 69 358 71 b 317 128 343 82 325 114 b 418 49 342 93 376 61 b 360 57 399 49 379 51 z m 247 100 b 296 60 260 83 278 71 b 421 -4 329 17 367 -4 b 519 17 456 -4 486 6 l 521 17 b 508 10 517 17 513 11 b 414 -10 479 -3 446 -10 b 247 100 339 -10 282 35 z m 307 85 b 310 97 308 89 310 93 b 326 71 314 88 319 79 b 307 85 319 74 311 78 z m 356 35 b 421 25 376 28 399 25 b 556 65 469 25 514 40 l 547 54 b 428 18 515 38 464 18 b 356 35 403 18 376 22 z m 240 57 l 247 58 b 332 -15 269 28 297 0 b 240 57 292 -7 258 21 z m 232 -225 b 221 -239 228 -229 221 -233 b 233 -250 221 -247 226 -250 b 251 -240 240 -250 246 -243 b 301 -232 263 -235 289 -235 b 635 -158 414 -214 524 -182 l 636 -158 b 692 -167 654 -158 672 -167 b 703 -157 697 -167 703 -164 b 693 -144 703 -151 699 -147 b 717 -143 700 -143 708 -143 b 739 -143 724 -143 732 -143 l 781 -147 b 803 -147 788 -147 796 -147 b 817 -135 810 -147 817 -142 b 779 -122 817 -119 789 -125 b 786 -112 783 -121 786 -118 b 710 -89 786 -82 728 -87 b 701 -79 710 -85 707 -79 b 629 -85 679 -79 653 -85 b 776 -25 651 -72 776 -53 b 769 -15 776 -21 774 -17 b 779 -4 775 -14 779 -10 b 763 10 779 4 771 10 b 671 -39 749 10 689 -31 l 658 -39 b 715 -10 676 -28 694 -14 b 725 1 721 -8 725 -4 b 713 13 725 10 718 13 b 608 -46 694 13 626 -33 b 442 -60 553 -51 497 -53 b 278 -81 394 -67 324 -81 b 233 -61 265 -81 253 -61 b 224 -74 226 -61 224 -68 b 235 -87 224 -81 228 -87 l 228 -90 l 224 -90 b 156 -108 211 -90 156 -93 b 168 -121 156 -117 161 -121 b 218 -112 183 -121 201 -112 b 189 -150 208 -118 189 -139 b 175 -139 185 -146 181 -139 b 163 -150 168 -139 163 -144 b 226 -204 163 -172 210 -197 b 142 -242 214 -208 142 -231 b 154 -253 142 -247 149 -253 b 232 -225 160 -253 221 -229 z m 324 -97 b 558 -72 403 -92 479 -76 b 511 -83 543 -75 526 -83 b 399 -104 472 -83 432 -83 b 324 -97 374 -104 349 -103 z m 242 -86 l 239 -86 b 242 -86 240 -85 240 -86 z m 253 -107 b 272 -103 258 -106 265 -104 b 279 -107 275 -104 278 -106 b 253 -107 271 -107 263 -107 z m 643 -119 b 740 -110 675 -114 708 -110 b 768 -122 754 -110 761 -108 b 728 -121 754 -121 742 -121 l 717 -117 b 647 -124 693 -121 671 -121 z m 274 -129 b 271 -129 272 -129 272 -129 l 264 -131 b 261 -131 264 -131 263 -131 l 236 -133 b 233 -133 235 -133 235 -133 l 226 -135 b 224 -135 226 -135 225 -135 b 260 -129 231 -129 251 -129 z m 203 -167 l 211 -164 l 215 -160 b 410 -136 276 -143 347 -136 b 224 -179 381 -147 228 -160 z m 433 -172 b 533 -149 456 -167 514 -149 b 569 -151 546 -149 557 -150 b 543 -157 561 -154 551 -156 l 489 -169 b 463 -175 481 -171 472 -174 b 433 -172 456 -165 443 -171 z m 254 -186 b 306 -179 271 -183 289 -183 l 278 -187 b 272 -187 276 -187 274 -187 l 260 -186 b 254 -186 258 -186 257 -186 z m 324 -268 l 331 -274 b 506 -244 389 -267 447 -253 b 650 -231 553 -237 603 -242 b 681 -217 661 -228 671 -224 b 707 -208 685 -217 707 -215 b 694 -203 707 -201 699 -203 l 694 -199 b 690 -196 694 -197 693 -196 b 497 -233 688 -197 511 -233 b 382 -246 458 -235 419 -237 b 290 -264 367 -250 297 -260 b 288 -268 289 -265 288 -267 l 293 -275 b 324 -268 303 -275 314 -271 z m 301 -210 b 267 -214 290 -211 278 -212 b 301 -210 278 -210 290 -210 z "},"R":{"ha":943,"x_min":0,"x_max":0,"o":"m 456 1072 b 447 1076 454 1075 451 1076 b 92 967 418 1076 132 983 b 72 951 88 965 72 956 b 76 943 72 949 72 943 b 82 946 79 943 81 944 b 140 972 101 960 118 964 b 450 1065 243 1007 347 1032 b 456 1072 453 1067 456 1068 z m 529 186 b 850 14 564 167 838 14 b 861 24 856 14 861 18 b 826 50 861 35 833 46 l 826 54 b 765 107 826 60 774 100 b 910 25 782 99 906 25 b 921 36 917 25 921 29 b 671 181 921 54 703 165 b 664 185 669 182 664 183 l 665 185 b 743 157 669 185 736 161 b 871 79 764 146 869 79 b 882 89 876 79 882 83 b 863 111 882 97 869 107 b 871 122 868 113 871 117 b 856 135 871 131 864 136 b 750 179 821 151 786 167 b 908 132 767 174 906 132 b 922 144 915 132 922 136 b 908 156 922 151 915 156 b 674 225 838 176 740 200 b 513 315 638 239 554 293 b 546 329 524 321 535 325 b 553 328 547 328 550 328 l 557 329 b 664 383 564 336 644 371 b 867 650 769 456 829 525 b 888 767 878 688 888 726 b 496 1028 888 963 656 1028 b 235 976 401 1028 322 1014 l 232 976 b 121 919 218 976 140 926 b 50 893 110 911 50 904 l 54 888 l 68 892 b 44 874 61 888 44 882 b 50 868 44 871 47 868 b 111 886 60 868 99 882 l 117 883 l 121 883 b 68 833 107 875 68 850 b 79 822 68 826 72 822 b 92 831 85 822 89 826 b 238 913 115 863 199 897 l 233 903 b 7 736 208 897 7 765 b 18 725 7 729 13 725 b 78 774 19 725 51 751 b 60 751 67 764 60 756 b 71 739 60 744 65 739 l 78 742 b 154 806 103 764 128 786 l 154 800 b 165 789 154 794 160 789 b 138 765 158 785 138 775 b 147 754 138 760 142 756 l 146 751 b 110 724 138 746 110 733 b 119 713 110 718 114 713 b 182 746 128 713 171 740 b 258 786 183 746 243 782 b 592 846 349 813 497 846 b 689 789 633 846 665 822 b 669 692 685 756 678 724 b 667 693 668 693 668 693 b 654 669 660 693 657 674 b 554 557 631 622 592 593 b 547 544 550 554 547 550 b 553 540 547 542 550 540 b 663 661 568 540 653 642 b 643 561 658 642 639 576 b 426 433 569 474 532 467 b 428 464 428 443 428 454 b 565 514 447 471 565 500 b 556 525 565 519 561 525 b 429 488 550 525 443 492 b 436 608 432 526 426 571 b 465 758 449 656 454 718 b 471 775 467 763 471 772 b 460 785 471 782 465 785 l 451 782 l 447 774 b 432 754 438 775 429 763 b 413 610 419 707 415 658 b 394 538 411 586 400 561 b 393 678 396 585 394 631 b 397 688 396 681 397 683 b 393 697 397 690 394 694 l 392 707 b 400 718 396 708 400 713 b 357 742 400 728 365 747 l 358 743 b 372 744 363 744 367 744 b 404 733 386 744 394 733 b 414 744 410 733 414 739 b 367 768 414 760 378 768 b 338 753 356 768 342 764 b 319 764 333 758 326 764 b 303 742 308 764 304 750 b 268 436 279 642 269 539 b 226 421 254 432 240 426 b 238 608 226 483 229 546 l 238 614 b 233 621 238 617 236 619 b 215 417 213 606 215 447 b 197 410 210 414 204 413 l 160 396 b 140 389 154 393 147 392 b 132 378 135 388 132 383 b 143 367 132 371 138 367 b 179 378 154 367 168 374 b 190 358 178 369 179 358 b 201 371 197 358 201 364 b 210 372 204 372 207 372 b 217 369 210 372 217 372 b 211 354 217 364 208 364 b 178 340 201 349 189 344 b 174 342 176 342 175 342 b 168 335 169 342 168 336 b 176 328 168 329 172 328 b 210 340 179 328 204 339 b 204 329 210 339 204 329 b 210 324 204 325 206 324 b 217 329 213 324 215 326 b 217 326 217 328 217 328 l 218 319 b 218 317 218 319 218 318 l 215 313 b 185 282 207 306 185 293 b 201 271 185 272 194 271 b 211 272 204 271 208 271 l 215 276 l 218 269 b 249 60 219 225 225 94 b 253 57 250 58 251 57 b 258 65 257 58 258 61 b 240 129 258 69 243 117 b 229 268 232 175 231 222 l 236 272 l 249 264 b 247 254 247 261 247 257 b 258 244 247 249 254 244 b 272 254 267 244 271 254 b 274 251 274 254 274 253 b 308 -8 283 196 286 31 b 318 -15 311 -12 314 -15 b 329 -4 325 -15 329 -10 b 311 103 329 21 315 72 l 319 99 l 324 100 b 346 15 325 86 329 15 b 357 29 353 15 357 22 l 357 33 b 336 260 343 107 339 185 l 349 263 b 349 253 349 260 349 256 l 347 236 b 394 11 347 201 353 11 b 404 17 399 11 403 17 b 406 10 406 17 404 13 b 415 4 407 6 411 4 b 426 17 424 4 426 10 b 422 31 426 21 422 25 b 426 44 422 35 426 38 b 415 149 426 79 415 113 l 415 229 b 839 -43 560 143 699 50 b 846 -46 840 -44 843 -46 b 857 -33 851 -46 857 -39 b 529 186 857 -17 568 163 z m 181 919 b 221 942 189 922 222 931 b 342 979 261 956 301 967 b 347 985 344 981 347 982 l 342 990 b 457 1004 379 999 418 1003 b 185 914 363 988 272 953 z m 635 972 l 635 976 b 622 994 635 983 628 992 b 725 961 657 988 693 976 l 728 949 b 776 883 733 936 764 936 b 635 972 722 931 710 956 z m 588 976 b 590 976 589 976 590 978 b 579 956 583 969 579 964 b 507 960 556 958 532 960 b 415 954 476 960 446 957 b 588 976 450 967 550 976 z m 394 968 b 351 944 379 961 365 954 b 288 933 331 942 308 939 b 394 968 322 947 358 960 z m 604 953 l 601 956 b 663 942 622 954 643 949 b 604 953 643 946 624 950 z m 626 392 b 638 396 631 392 635 393 b 854 743 721 465 854 629 b 849 775 854 754 853 765 b 853 785 851 776 853 781 b 847 797 853 793 847 794 b 847 800 847 799 847 799 l 850 804 b 850 807 850 806 850 806 b 807 856 850 813 814 849 b 786 921 803 878 797 901 b 865 767 833 883 865 828 b 624 385 865 611 758 456 z m 496 921 b 642 878 528 921 611 892 b 500 897 594 885 547 897 b 342 865 444 897 393 886 b 496 921 374 882 461 921 z m 717 858 l 710 861 b 600 918 679 889 639 904 b 735 875 643 908 696 896 b 768 803 756 864 764 824 l 761 789 b 717 858 749 824 728 836 z m 113 900 b 101 894 110 897 104 894 l 100 894 b 113 900 100 896 110 900 z m 226 871 b 292 890 247 879 269 885 l 229 865 z m 493 875 b 354 847 446 868 400 860 b 493 875 399 864 446 875 z m 176 799 b 304 871 176 824 281 863 b 174 793 275 856 192 800 z m 653 853 l 690 844 b 688 825 688 839 690 831 b 653 853 676 835 665 844 z m 528 821 b 650 754 585 821 617 803 b 654 751 651 753 653 751 b 660 758 657 753 660 756 b 596 819 660 776 611 813 b 526 833 574 829 551 833 l 518 832 b 514 832 517 832 515 832 b 276 765 429 826 354 799 b 119 678 256 757 119 696 b 124 669 119 675 118 669 b 140 683 129 669 136 679 b 204 718 151 694 188 711 b 528 821 304 765 414 821 z m 713 814 l 714 826 b 746 746 732 806 746 774 b 739 715 746 739 742 722 b 713 814 733 749 724 782 z m 810 690 b 817 783 819 719 819 753 b 831 740 826 769 831 758 b 819 690 831 724 825 707 z m 706 754 b 711 719 708 743 711 731 b 671 601 711 678 693 636 b 706 754 683 653 696 703 z m 936 747 b 931 754 936 750 935 754 b 925 747 928 753 925 750 b 883 571 915 678 915 638 b 733 393 849 497 794 444 b 731 388 732 392 731 390 b 736 382 731 385 733 382 b 738 383 736 382 738 383 l 740 383 b 892 561 794 417 864 506 b 936 747 919 617 936 685 z m 324 732 b 329 724 326 731 329 726 b 314 629 329 694 318 658 b 300 449 307 569 301 508 l 292 446 b 324 732 293 542 301 639 z m 346 693 b 351 646 349 678 351 663 b 324 471 351 628 328 506 b 346 693 326 546 335 619 z m 725 661 b 694 594 719 636 714 619 b 692 592 693 593 693 592 b 725 663 706 611 718 638 z m 644 504 b 742 615 683 535 717 572 b 749 625 742 615 747 625 b 704 544 749 618 711 551 b 643 494 686 526 667 504 z m 792 621 b 717 507 771 581 746 543 b 792 621 743 544 768 582 z m 407 490 b 406 481 407 489 407 481 l 404 481 z m 686 479 l 692 479 b 649 436 678 464 664 450 b 686 479 663 450 674 465 z m 401 456 l 406 457 l 404 443 l 401 442 b 401 456 401 446 401 451 z m 435 358 b 460 382 446 363 467 367 b 557 440 464 383 546 433 b 599 454 569 447 586 449 b 503 376 579 442 489 404 l 446 351 z m 628 447 b 532 389 593 413 576 407 b 628 447 561 413 597 425 z m 364 426 b 365 439 364 431 364 435 l 365 436 z m 342 438 b 339 408 342 431 343 414 b 339 415 339 411 339 413 l 342 431 b 342 438 342 433 342 435 z m 299 424 l 299 418 l 293 414 l 292 419 z m 226 393 l 228 397 b 268 413 242 403 254 408 l 268 392 l 256 392 b 226 393 246 392 236 392 z m 472 339 b 588 388 486 344 583 388 l 588 386 b 553 356 585 382 557 357 b 536 349 547 353 542 350 l 504 338 b 488 331 499 336 493 333 z m 707 368 b 703 365 704 368 703 367 b 713 351 703 361 708 351 b 718 357 715 351 718 354 b 707 368 718 361 711 368 z m 268 364 b 269 361 269 363 269 363 l 268 357 b 268 354 268 357 268 356 b 258 358 267 356 258 357 b 268 364 258 360 267 364 z m 294 361 l 300 360 l 300 356 l 293 354 l 293 356 l 292 360 l 292 363 b 294 361 293 363 294 361 z m 394 343 l 399 346 b 396 331 399 343 399 331 l 394 331 z m 233 343 b 250 338 239 343 244 340 b 238 324 246 335 240 328 b 229 318 235 322 231 318 b 226 333 228 318 226 331 b 233 343 226 339 228 343 z m 438 311 b 444 328 444 314 443 319 b 463 317 449 328 458 319 b 451 304 458 313 453 310 z m 617 313 b 613 307 614 313 613 310 b 617 301 613 306 615 303 b 878 204 639 290 865 204 b 882 210 881 204 882 208 b 878 215 882 213 879 214 b 744 263 836 235 789 247 b 622 311 704 278 664 297 b 617 313 621 311 619 313 z m 474 296 l 488 304 b 571 257 515 289 543 274 b 474 296 539 269 506 282 z m 296 290 l 294 294 l 297 293 b 296 290 297 290 296 290 z m 254 286 b 272 292 260 289 267 290 l 274 283 l 269 279 z m 417 271 b 660 161 482 249 604 196 b 750 90 692 142 721 114 b 417 271 639 150 529 214 z m 371 219 l 371 253 l 379 249 b 390 136 382 211 385 174 b 400 35 394 103 393 68 b 371 219 372 86 371 161 z m 297 250 l 300 250 l 300 236 b 299 233 300 236 300 233 l 299 235 b 297 250 299 240 299 244 z m 468 -21 b 456 44 468 -3 458 25 b 438 182 449 90 447 138 b 433 188 438 185 436 188 b 428 178 429 186 428 182 b 458 -25 428 151 450 -6 b 463 -29 460 -26 461 -29 b 468 -21 467 -28 468 -25 z m 521 138 b 517 132 518 138 517 133 l 519 126 b 707 1 543 113 703 1 b 710 6 708 1 710 4 b 521 138 710 17 536 138 z "},"S":{"ha":638,"x_min":0,"x_max":0,"o":"m 511 17 b 506 22 511 18 508 22 b 493 17 504 22 494 18 b 424 -6 471 7 446 1 b 443 24 432 3 438 14 b 483 58 456 32 478 44 b 550 176 522 86 550 126 b 392 431 550 283 461 363 b 361 458 382 440 369 447 b 249 624 321 510 276 564 b 242 682 243 636 242 668 b 243 707 242 690 242 699 b 296 594 251 667 272 628 b 521 332 311 574 500 332 b 531 342 526 332 531 336 b 526 351 531 344 528 349 b 274 683 447 450 319 567 b 257 746 265 704 263 725 b 400 847 288 797 347 825 l 410 846 l 410 826 b 426 682 410 776 415 731 b 435 618 431 661 429 639 b 453 594 439 606 439 597 b 468 575 461 593 454 575 b 479 585 472 575 479 579 b 449 685 479 615 453 653 b 447 793 443 718 447 758 b 456 807 454 794 456 801 b 456 814 456 810 456 811 l 451 829 b 451 836 451 832 451 833 b 461 771 457 815 461 793 b 457 697 461 747 457 722 b 468 668 457 688 454 668 b 483 618 471 656 465 618 b 493 646 499 618 493 638 b 500 660 499 649 500 654 b 496 692 500 671 496 682 b 500 732 496 706 497 718 b 508 743 506 733 508 738 b 504 751 508 746 506 750 b 549 911 515 806 533 858 b 574 1001 557 940 563 972 b 578 1010 576 1004 578 1007 b 565 1022 578 1017 572 1022 b 551 1006 557 1022 553 1013 b 543 1010 550 1008 546 1010 b 492 847 514 1010 496 872 b 501 924 494 872 497 899 b 504 936 504 926 504 932 b 531 1036 504 974 531 1025 b 518 1047 531 1043 525 1047 b 503 1032 510 1047 506 1039 b 489 1042 500 1038 494 1042 b 478 1032 483 1042 479 1038 b 467 1042 476 1038 472 1042 b 446 958 450 1042 449 974 l 442 954 l 438 1001 b 439 1008 439 1004 439 1006 b 424 1029 439 1014 432 1029 b 413 1017 417 1029 411 1024 b 392 1033 407 1024 403 1033 b 379 1025 388 1033 382 1029 b 371 1028 376 1026 374 1028 b 357 1008 361 1028 358 1017 b 261 956 346 999 272 954 l 251 957 b 254 965 253 960 254 963 b 243 974 254 971 249 974 b 225 958 233 974 226 967 b 181 926 207 954 193 940 b 69 729 121 903 69 790 b 356 238 69 551 247 363 b 364 232 358 235 361 232 b 376 246 371 232 376 239 l 374 250 b 103 660 261 392 154 481 b 224 471 129 599 183 526 b 401 186 275 400 401 276 b 321 121 401 139 363 121 b 90 238 258 121 110 179 b 79 249 89 243 88 249 b 68 236 72 249 68 243 b 207 125 68 189 169 140 l 196 115 b 117 143 178 121 129 133 l 104 144 l 75 161 l 75 175 b 36 201 67 188 51 201 b 21 188 28 201 21 196 b 39 156 21 176 32 164 l 39 151 b 51 142 39 144 46 140 b 86 118 63 132 74 124 b 54 85 72 110 61 99 b 44 69 46 82 44 78 b 44 65 44 68 44 67 l 42 60 b 53 44 42 53 44 44 b 65 56 58 44 64 50 l 74 60 b 71 53 72 58 71 56 b 90 36 71 44 81 33 b 250 -6 147 3 183 -6 b 240 -18 244 -8 240 -11 b 253 -31 240 -25 247 -31 b 308 0 263 -31 299 -1 b 357 0 324 1 342 0 b 403 6 372 0 388 0 b 388 -17 397 -1 392 -8 b 332 -22 367 -22 353 -22 b 328 -28 329 -22 328 -26 l 333 -33 b 382 -29 350 -33 367 -33 b 393 -50 382 -37 382 -50 b 413 -21 411 -50 399 -26 b 511 17 428 -15 511 6 z m 124 907 b 264 1019 163 956 203 1000 b 363 1035 294 1029 333 1022 b 367 1040 365 1036 367 1038 l 361 1046 b 213 1007 310 1044 256 1033 b 114 914 183 990 131 942 b 113 910 113 913 113 911 b 118 904 113 906 115 904 z m 474 1001 b 471 951 474 985 472 968 l 469 949 l 469 950 l 468 951 b 474 1001 468 969 474 985 z m 390 981 b 399 994 397 982 400 988 b 424 907 414 964 424 942 l 422 904 b 390 981 411 929 400 954 z m 364 954 b 349 972 360 961 356 968 l 365 985 l 375 957 z m 544 983 l 544 982 b 525 911 539 958 532 935 b 540 972 529 932 533 953 z m 522 649 b 532 697 528 664 529 682 b 613 956 550 785 572 875 l 622 972 b 618 982 622 975 624 982 b 613 979 615 982 614 981 b 513 653 585 960 513 692 b 518 644 513 650 514 646 z m 274 935 b 331 957 293 938 317 957 b 343 947 335 957 343 950 b 269 932 322 938 292 939 z m 251 882 b 244 892 251 886 247 890 b 385 936 281 922 340 915 l 389 921 b 242 860 331 903 279 921 b 251 882 244 868 251 874 z m 217 931 l 213 919 b 150 794 169 886 163 843 b 131 699 142 761 131 735 b 136 649 131 683 132 664 b 138 640 138 647 136 643 b 111 731 122 663 111 704 b 217 931 111 792 168 896 z m 400 901 b 403 896 401 900 401 899 l 408 883 b 411 876 410 882 410 879 l 400 872 b 358 885 386 878 372 885 b 271 863 335 885 290 876 b 400 901 296 890 363 888 z m 265 815 b 279 826 272 814 279 819 b 275 835 279 829 276 833 b 357 863 293 857 331 863 b 371 860 358 863 371 863 b 251 778 326 833 285 818 b 265 815 256 790 260 803 z m 47 671 b 46 699 47 681 47 689 l 43 718 b 42 746 42 728 42 736 b 65 844 42 781 47 814 l 67 844 b 61 851 67 849 65 851 b 31 744 40 851 31 761 b 42 664 31 733 32 664 b 47 671 44 665 47 668 z m 199 835 b 194 758 196 810 194 783 b 203 649 194 721 203 683 b 203 642 203 646 203 644 l 201 628 b 201 621 201 625 201 624 b 172 769 183 668 172 718 b 199 835 172 801 185 808 z m 486 790 l 488 804 l 493 799 l 489 782 z m 154 700 l 154 708 b 199 571 161 661 176 614 l 197 567 b 154 700 169 603 154 654 z m 467 461 b 308 676 401 526 356 599 b 289 696 304 683 299 696 b 285 689 285 696 285 690 b 458 453 314 668 392 501 b 463 451 460 451 461 451 b 468 457 467 451 468 453 z m 540 600 b 542 603 542 601 542 601 b 532 613 542 607 536 613 l 528 608 l 528 606 b 536 593 528 601 531 593 b 540 600 539 594 540 597 z m 286 285 b 189 415 286 294 201 399 b 85 581 150 468 119 525 b 79 585 83 582 82 585 b 76 579 78 583 76 581 b 88 553 76 575 79 547 b 272 288 142 457 206 374 b 282 279 274 285 278 279 b 286 285 286 279 286 282 z m 232 499 l 240 500 b 271 444 253 482 261 464 b 232 499 257 463 243 479 z m 304 450 b 376 358 344 419 357 408 b 358 382 371 367 364 375 l 322 428 b 304 450 317 436 310 443 z m 417 149 b 424 179 421 158 424 168 b 338 361 424 253 382 307 b 336 372 339 372 336 361 l 338 372 b 340 368 340 372 339 369 b 407 283 361 343 392 311 b 432 185 417 265 428 207 b 417 149 428 172 424 160 z m 403 357 b 433 288 415 335 426 313 b 403 357 424 297 410 342 z m 504 167 b 508 197 507 176 508 186 b 458 332 508 264 471 281 b 526 175 492 293 526 226 b 514 126 526 158 524 140 b 504 167 513 140 510 154 z m 586 194 b 560 288 586 229 578 258 b 550 300 558 290 554 300 b 543 294 546 300 543 300 b 544 292 543 293 543 293 b 575 196 563 263 575 232 b 551 101 575 164 565 131 b 508 44 546 92 508 46 b 515 39 508 40 511 39 b 518 40 517 39 517 39 b 586 194 558 67 586 150 z m 324 167 l 318 172 b 290 168 308 169 300 168 b 135 231 242 168 174 203 b 82 278 128 236 83 278 b 78 271 79 278 78 274 b 286 157 78 233 240 157 b 324 167 293 157 324 158 z m 467 238 l 468 261 b 483 211 476 246 482 229 b 467 238 481 217 467 233 z m 458 157 b 465 199 458 169 464 186 b 481 165 469 190 481 174 b 461 132 481 156 468 139 b 458 157 460 140 458 149 z m 224 110 l 224 118 b 321 99 256 107 288 99 b 414 143 356 99 396 113 b 383 99 406 128 394 113 b 339 96 368 97 354 96 b 224 110 300 96 261 101 z m 457 71 b 460 88 464 76 463 81 l 461 103 b 492 133 474 111 483 121 l 492 129 b 478 85 492 111 482 101 b 474 81 476 83 475 82 l 464 74 b 460 69 463 72 461 71 z m 79 82 b 115 103 86 92 103 103 b 119 101 117 103 118 103 b 118 94 118 100 118 97 b 128 74 118 88 124 79 z m 247 67 l 258 74 b 264 72 260 74 263 74 l 274 72 b 279 71 276 71 278 71 l 319 65 b 325 64 321 65 324 65 l 335 64 b 340 63 338 63 339 63 b 294 56 325 58 310 56 b 247 67 278 56 261 58 z m 386 58 b 428 53 400 58 415 56 b 344 28 401 42 374 33 b 386 58 356 36 372 58 z m 101 56 b 200 18 153 46 156 40 b 101 56 165 24 132 39 z m 285 32 l 285 33 b 315 35 294 32 306 33 b 304 28 313 32 308 29 z "},"T":{"ha":857,"x_min":0,"x_max":0,"o":"m 782 1072 b 775 1078 782 1075 778 1078 b 576 1050 761 1078 581 1051 b 572 1044 574 1049 572 1047 b 578 1039 572 1043 576 1039 b 778 1067 588 1039 776 1067 b 782 1072 781 1068 782 1069 z m 472 -40 b 456 -25 472 -31 463 -28 l 456 -14 b 457 13 461 -7 457 4 b 483 -28 461 0 467 -28 b 493 -17 489 -28 493 -22 l 490 -8 b 461 82 482 0 461 69 b 488 253 461 133 488 208 b 476 264 488 258 482 264 b 447 149 461 264 450 167 b 438 246 442 181 439 214 b 446 242 440 243 443 242 b 463 279 463 242 463 268 b 450 464 463 340 450 401 l 450 486 l 454 486 b 464 497 460 486 464 492 b 456 519 464 504 456 511 b 481 635 456 554 481 608 b 472 644 481 640 478 643 b 506 849 481 713 493 781 b 756 871 589 860 672 865 b 768 882 761 871 768 875 b 714 892 768 900 726 892 b 818 906 747 897 783 906 b 839 899 828 906 833 899 b 850 911 844 899 849 906 l 846 919 l 843 921 l 844 924 b 779 939 844 942 793 939 b 783 947 782 940 783 944 b 758 963 783 958 767 963 b 799 971 772 965 785 971 l 808 969 b 819 960 810 964 814 960 b 831 974 826 960 831 968 b 800 992 831 989 811 992 b 729 978 779 992 750 985 l 722 981 b 706 979 715 981 711 981 l 694 976 b 679 975 689 975 685 975 b 682 993 683 981 683 988 b 814 1007 725 997 771 1000 b 825 1018 819 1008 825 1011 b 811 1029 825 1026 818 1029 b 722 1019 783 1029 751 1022 b 536 1001 660 1013 599 1006 b 549 1064 539 1021 549 1044 b 538 1076 549 1071 544 1076 b 521 1043 524 1076 524 1051 b 510 1050 518 1046 514 1050 b 494 1040 503 1050 497 1046 b 478 1058 490 1049 489 1058 b 468 1054 474 1058 471 1057 b 465 1049 467 1053 467 1049 b 446 1063 460 1058 456 1063 b 433 1060 442 1063 438 1061 b 418 1032 417 1061 418 1043 b 418 1024 418 1029 418 1026 l 415 1007 b 415 999 415 1004 415 1001 l 393 999 b 376 1022 390 1011 392 1022 b 368 1019 374 1022 369 1019 b 361 1008 365 1017 365 1008 l 361 1010 b 367 1047 363 1021 367 1035 b 357 1057 367 1053 363 1057 b 336 1003 343 1057 339 1014 b 150 1018 274 1006 213 1018 b 129 1007 140 1018 129 1019 b 150 996 129 994 142 996 b 38 986 114 993 74 994 b 33 982 35 986 33 985 b 40 974 33 978 38 974 b 129 982 69 974 100 982 l 118 976 b 28 961 104 975 28 972 l 33 956 b 7 947 28 954 7 956 b 15 942 8 944 11 942 b 32 942 21 942 26 942 l 65 946 b 82 946 71 946 76 946 l 78 940 b 69 940 75 940 72 940 l 51 938 b 43 938 49 938 46 938 b 38 940 42 939 40 940 b 32 933 35 940 32 936 b 75 929 32 922 68 929 l 76 919 b 51 910 71 918 51 918 b 57 904 53 908 54 906 b 18 894 39 901 25 899 b 15 890 17 893 15 892 b 24 883 15 886 19 883 b 147 903 36 892 126 900 l 144 893 b 69 878 129 892 69 896 b 90 869 69 864 82 869 l 92 869 b 89 863 92 867 89 867 b 97 856 89 858 93 856 b 126 858 107 856 117 857 b 122 850 124 856 122 853 b 151 833 122 835 142 833 b 208 840 171 833 190 838 b 219 831 210 836 214 831 b 311 835 250 831 281 833 b 301 639 304 769 301 704 b 317 365 301 547 307 456 b 317 346 317 358 317 353 l 314 304 b 314 285 314 297 314 292 b 339 17 314 247 308 17 b 350 25 344 17 350 21 b 346 39 350 31 347 35 b 338 214 339 57 338 186 b 346 161 340 197 346 179 b 383 -17 347 138 349 -17 b 393 -4 389 -17 393 -11 b 374 64 393 3 376 46 b 463 -50 385 38 431 -50 b 472 -40 468 -50 472 -44 z m 442 1039 l 443 1040 b 439 1011 443 1031 440 1021 b 442 1039 439 1021 440 1029 z m 478 1014 l 479 1008 b 476 1007 479 1008 476 1007 l 476 1008 l 478 1013 z m 510 1007 l 514 1006 l 513 1000 l 503 1000 b 507 1010 503 1001 506 1010 b 510 1007 508 1010 510 1008 z m 213 979 b 214 982 214 981 214 981 b 181 990 214 992 188 990 l 176 994 b 186 993 179 994 183 994 l 206 993 b 215 992 208 992 213 992 l 292 983 b 301 982 294 983 299 983 l 321 982 b 331 981 324 981 328 981 l 331 978 b 294 969 331 969 303 969 b 213 979 268 969 239 975 z m 544 979 b 663 990 583 982 624 986 b 543 978 651 976 564 978 z m 413 976 l 394 975 l 393 976 z m 642 940 l 589 940 b 646 947 608 942 626 944 z m 704 939 b 736 943 715 942 725 943 b 764 939 746 943 756 942 z m 263 938 b 307 942 276 938 293 939 l 315 938 l 325 942 l 322 935 l 265 935 z m 365 942 l 376 940 l 399 940 b 401 940 400 940 400 940 l 407 939 b 410 939 408 939 408 939 b 399 939 406 939 403 939 l 375 936 b 364 936 371 936 368 936 z m 200 932 l 197 931 b 192 931 196 931 194 931 l 183 929 b 178 929 181 929 179 929 l 136 925 b 124 925 132 925 128 925 b 200 932 149 928 175 929 z m 99 929 l 111 932 l 111 929 l 115 925 b 117 924 115 925 117 925 b 113 922 117 922 114 922 l 96 922 z m 521 917 l 533 917 l 557 918 b 569 918 561 918 565 918 b 567 918 568 918 568 918 l 560 917 b 557 917 560 917 558 917 l 532 913 b 519 911 528 913 524 913 z m 104 911 b 181 917 129 915 154 915 b 104 911 165 915 135 914 z m 471 917 l 478 915 b 481 915 479 915 479 915 l 479 907 b 469 906 476 906 472 906 l 463 906 b 471 917 463 913 464 917 z m 718 917 l 726 917 l 715 914 z m 383 904 l 368 904 l 367 910 b 388 913 374 911 381 913 z m 674 906 b 632 894 660 903 646 899 b 621 900 631 899 625 900 b 614 900 618 900 617 900 b 674 906 633 901 653 904 z m 513 878 l 601 886 b 511 872 572 878 542 876 z m 264 874 l 271 874 b 282 879 275 874 281 874 l 310 879 b 267 872 296 876 281 874 z m 453 872 l 458 872 l 468 874 b 474 874 469 874 472 874 l 472 868 l 453 865 z m 400 872 l 400 871 b 403 864 400 868 403 865 b 401 863 403 863 401 863 l 397 863 b 400 872 397 865 399 869 z m 110 869 l 114 869 b 110 869 114 868 111 869 z m 142 857 b 136 861 140 858 139 861 b 150 863 142 863 146 863 b 244 868 182 865 213 868 b 146 857 213 863 178 857 z m 365 865 b 375 867 368 867 372 867 l 372 860 l 365 860 z m 450 843 l 469 846 b 433 563 456 753 439 657 b 426 483 432 536 431 510 b 450 843 432 603 440 724 z m 394 838 l 400 839 b 399 836 400 838 400 838 l 399 829 b 397 826 397 829 397 828 l 392 801 b 390 799 392 800 392 800 l 390 792 b 389 789 389 792 389 790 b 394 838 390 806 392 821 z m 365 838 l 371 838 b 357 639 365 785 368 682 b 365 838 358 706 363 771 z m 546 813 b 556 818 550 813 556 813 b 546 824 556 824 549 824 b 532 794 532 824 533 803 b 511 507 522 699 518 603 b 500 351 508 457 500 403 b 506 343 500 347 501 343 b 511 349 508 343 511 347 b 521 475 521 386 518 438 b 546 813 528 585 528 706 z m 260 790 l 256 796 b 46 782 186 796 115 793 b 38 775 42 782 38 781 b 49 771 39 771 44 771 b 199 783 99 771 149 782 b 260 790 208 783 260 782 z m 424 792 b 422 779 424 788 424 783 l 422 753 b 421 740 421 749 421 744 l 413 640 b 411 628 413 636 413 632 l 411 601 b 410 589 410 597 410 593 l 410 613 b 424 792 410 658 410 751 z m 328 689 b 340 788 331 722 335 754 b 335 685 338 753 336 719 z m 336 410 b 324 628 328 482 324 556 b 335 653 331 633 333 644 b 333 593 335 633 333 614 b 346 401 333 529 338 465 b 336 410 343 404 340 408 z m 394 393 b 383 615 389 467 383 542 l 383 642 l 388 646 b 388 632 388 642 388 636 l 386 606 b 396 390 386 533 390 463 z m 357 532 b 361 554 357 539 360 547 b 363 544 361 551 361 547 l 363 524 b 364 514 364 521 364 518 l 368 432 b 369 422 368 429 368 425 l 369 401 b 371 392 371 399 371 396 b 357 532 364 438 357 486 z m 278 -8 b 271 483 278 156 271 319 b 265 489 271 486 269 489 b 260 438 256 486 260 447 b 267 -7 260 290 267 142 b 272 -14 267 -10 269 -14 z m 340 365 b 346 397 340 376 344 386 b 361 319 350 374 361 343 b 361 296 361 313 361 304 l 358 250 b 358 226 358 242 358 235 b 340 365 351 269 340 321 z m 396 368 l 397 369 b 399 353 399 364 399 358 l 397 351 b 397 356 397 353 397 354 l 396 364 b 396 368 396 365 396 367 z m 436 296 l 438 299 b 440 272 439 290 440 282 b 438 258 440 268 439 263 b 436 296 436 271 436 283 z m 392 78 b 397 76 393 78 394 76 b 407 88 403 76 407 82 b 390 138 407 94 393 125 b 381 260 381 178 381 219 l 383 257 b 385 250 383 256 383 253 l 385 238 b 386 231 386 235 386 233 l 392 176 b 394 150 393 168 393 160 b 393 143 393 149 393 146 b 407 118 393 135 396 118 b 418 135 418 118 418 126 b 404 275 418 182 404 229 b 406 283 404 279 406 283 l 406 282 b 418 179 413 249 414 213 b 431 7 425 122 426 64 b 392 78 417 29 403 53 z "},"U":{"ha":838,"x_min":0,"x_max":0,"o":"m 699 413 l 699 431 l 703 436 l 699 442 b 701 501 699 461 697 483 b 761 918 725 625 761 792 b 753 924 761 924 758 928 b 782 1006 754 940 774 990 b 789 1017 785 1008 789 1013 b 778 1026 789 1022 783 1026 b 721 901 754 1026 728 922 b 718 964 721 922 721 944 b 731 974 725 963 731 967 b 715 989 731 982 724 989 b 664 883 689 989 671 906 b 672 974 665 913 672 944 b 669 982 672 976 671 979 b 658 1003 675 990 668 1003 b 631 936 643 1003 633 950 b 629 965 631 946 631 956 b 633 969 631 967 633 968 b 626 975 633 974 629 975 b 619 950 615 975 619 956 b 606 825 619 906 614 868 b 590 1000 604 853 613 1000 b 579 988 582 1000 579 994 b 583 806 579 928 581 865 b 589 742 585 785 589 763 b 586 724 589 736 586 724 l 586 725 b 575 922 581 789 585 858 b 564 933 574 929 571 933 b 553 917 554 933 553 925 b 558 806 553 879 556 843 l 564 732 b 569 611 567 692 569 651 l 565 594 l 565 613 l 564 667 b 564 693 564 676 564 685 b 546 906 563 764 549 835 b 544 919 546 910 546 914 l 546 922 b 536 936 546 929 542 936 b 531 931 533 936 532 932 l 525 931 b 522 924 522 931 521 926 l 519 914 l 524 907 l 524 900 b 533 676 524 826 533 751 b 524 518 533 624 526 569 b 504 275 517 438 513 356 b 457 163 500 236 478 194 b 408 128 453 156 417 133 b 368 119 403 125 376 121 l 364 122 b 236 733 265 294 236 536 b 263 936 236 763 240 921 b 269 946 267 939 269 940 b 256 957 269 954 263 957 b 246 951 244 957 257 951 l 246 953 l 250 982 b 260 996 257 983 260 989 b 244 1013 260 1004 254 1013 b 213 863 219 1013 215 885 b 213 897 213 874 213 886 l 215 964 b 215 999 215 975 215 988 b 208 1028 215 1003 214 1028 b 204 1003 206 1028 204 1006 b 194 1008 201 1006 199 1008 b 183 1001 190 1008 186 1006 b 176 1003 181 1003 178 1003 b 150 943 154 1003 153 958 b 146 1001 150 957 149 990 l 139 1010 b 119 1049 138 1019 132 1049 b 101 979 97 1049 101 993 b 92 999 93 982 99 999 b 82 985 86 999 82 990 b 86 979 82 983 85 981 l 74 968 l 74 983 b 67 1001 74 988 74 1001 b 57 993 63 1001 57 997 l 63 988 b 61 954 63 976 63 965 b 58 976 60 961 58 969 b 61 982 60 978 61 979 b 53 989 61 986 57 989 l 49 985 b 47 976 47 982 47 979 b 56 924 47 958 51 940 b 35 688 39 850 35 763 b 167 140 35 499 83 310 b 208 75 178 117 190 94 b 361 -7 269 8 290 24 b 413 -17 378 -14 394 -17 b 554 26 468 -17 508 -1 b 699 413 707 119 699 251 z m 176 631 b 201 985 176 681 190 949 b 206 996 203 989 206 992 l 207 996 b 208 999 208 996 208 997 l 208 875 l 204 685 b 204 590 204 653 204 622 b 213 440 204 540 207 490 l 210 439 b 197 506 208 450 206 506 l 192 501 l 192 497 b 206 375 192 457 203 415 b 242 178 210 308 224 242 b 224 200 236 183 226 192 b 176 631 189 338 176 489 z m 124 988 b 131 756 131 974 131 786 b 124 956 126 822 124 889 z m 650 919 b 658 954 651 932 657 943 b 654 910 657 939 656 925 z m 317 336 b 308 361 317 343 310 354 b 297 467 299 394 299 432 b 296 557 296 497 296 528 l 296 646 b 290 865 296 718 290 792 b 293 922 290 885 293 904 b 286 932 293 926 292 932 b 283 928 285 932 285 929 b 279 857 279 922 279 867 b 279 781 279 832 279 806 l 283 626 b 283 550 283 601 283 576 b 307 332 283 515 285 353 b 311 331 308 331 310 331 b 317 336 315 331 317 332 z m 83 931 b 85 919 85 926 85 924 b 81 906 85 914 83 910 b 83 931 81 914 82 922 z m 469 576 b 482 911 469 688 475 800 b 476 917 482 914 479 917 l 471 913 b 458 583 458 860 458 647 b 464 524 458 574 454 522 b 469 576 474 526 469 567 z m 697 915 b 697 910 697 914 697 911 l 699 900 b 699 894 699 899 699 896 l 690 890 b 697 915 692 899 694 907 z m 810 903 l 804 908 b 786 865 785 910 786 876 b 754 550 781 760 765 656 b 742 400 749 501 742 449 b 747 393 742 397 743 393 b 753 400 750 394 753 397 b 765 561 760 453 760 508 b 794 817 775 646 788 732 b 799 889 796 840 796 865 b 810 903 800 904 810 894 z m 108 592 b 101 800 99 653 101 736 l 101 886 b 103 900 101 890 101 896 b 117 589 106 796 113 693 z m 740 886 b 739 849 739 874 739 861 b 719 738 731 833 724 760 b 740 886 722 804 718 821 z m 656 742 b 660 739 656 740 657 739 b 664 803 669 739 664 793 b 686 876 664 811 682 867 b 679 758 683 838 688 796 b 656 674 674 731 663 701 z m 69 868 l 72 868 b 75 769 74 836 75 803 b 64 689 75 744 67 714 b 61 679 61 686 61 683 b 125 317 61 561 94 432 l 131 310 b 132 307 131 308 131 307 l 132 299 b 133 296 133 299 133 297 l 138 271 b 140 257 139 267 140 261 b 57 686 89 394 57 540 b 69 868 57 747 64 808 z m 628 821 b 633 844 628 826 632 839 b 633 829 633 839 633 835 l 635 796 b 635 781 635 790 635 786 b 631 765 635 779 631 768 b 628 821 629 783 628 803 z m 618 772 b 622 732 619 760 622 746 l 621 729 b 621 728 621 729 621 728 l 618 717 b 618 715 618 717 618 715 l 617 713 b 613 740 614 721 613 731 b 618 772 613 751 617 763 z m 75 674 b 79 719 75 689 76 706 b 82 631 82 690 82 660 b 75 674 82 644 75 660 z m 551 457 b 553 538 553 483 553 511 b 553 571 553 549 553 560 l 550 638 l 550 679 l 551 696 b 551 704 551 699 551 701 b 557 510 556 640 557 574 b 551 457 557 493 554 474 z m 625 647 b 632 682 625 658 632 671 b 642 624 642 663 642 644 b 633 592 642 617 636 599 b 625 647 631 610 625 629 z m 599 667 b 601 644 599 661 601 647 l 593 603 l 593 614 b 599 667 593 632 596 650 z m 642 535 b 672 649 651 572 661 611 b 649 471 667 589 660 529 b 642 535 647 492 644 514 z m 117 575 b 110 578 114 576 111 575 l 117 582 z m 611 579 b 618 538 614 565 618 550 b 596 444 618 532 599 457 b 611 579 597 490 604 535 z m 115 563 l 118 561 l 118 540 b 118 542 118 540 118 542 l 117 544 b 117 546 117 544 117 546 l 117 557 b 117 558 117 557 117 558 l 115 561 b 115 563 115 561 115 563 z m 542 550 b 519 304 542 468 540 385 b 542 550 529 386 536 468 z m 151 522 b 185 276 163 440 169 358 b 151 522 160 356 154 439 z m 229 503 b 315 165 243 388 265 271 b 229 503 257 251 236 400 z m 611 414 b 625 474 611 433 622 454 b 632 400 628 450 632 425 b 611 332 632 386 615 349 z m 567 404 b 435 114 565 308 542 146 b 567 404 524 167 553 310 z m 251 232 l 244 239 b 221 367 236 276 221 328 b 221 372 221 368 221 372 l 222 372 b 224 369 222 371 222 371 l 224 363 b 225 360 225 363 225 361 l 229 333 b 231 331 229 332 229 332 l 231 324 b 232 321 232 324 232 322 b 279 181 242 272 257 225 b 251 232 269 192 250 217 z m 39 325 b 47 347 39 340 47 339 b 39 351 47 353 42 351 b 28 325 32 351 28 329 b 42 267 28 306 36 285 b 319 -50 82 151 199 -8 l 321 -51 b 328 -46 325 -51 328 -49 b 322 -40 328 -44 324 -42 b 224 24 288 -19 254 -4 b 53 269 139 101 90 160 b 39 325 47 286 39 307 z m 600 326 b 596 293 599 317 599 300 z m 156 219 l 157 224 b 153 260 157 231 156 254 l 140 325 b 222 108 161 251 179 174 l 222 107 b 246 69 228 93 236 81 b 156 219 201 108 178 165 z m 657 317 l 657 314 b 651 285 656 304 654 294 l 650 278 b 653 301 650 285 651 294 b 657 317 653 303 656 317 z m 629 303 l 629 299 b 628 296 628 297 628 297 l 621 276 b 629 303 624 288 626 297 z m 569 247 l 569 238 b 565 228 569 236 567 228 b 569 247 565 231 568 243 z m 658 238 b 626 133 654 204 643 164 b 658 238 640 167 650 203 z m 558 221 l 563 224 b 553 206 560 218 556 213 b 558 221 554 211 556 217 z m 665 207 l 668 204 b 665 197 668 201 667 200 l 661 183 b 660 182 661 183 661 182 l 660 178 b 665 207 661 186 664 197 z m 540 -42 b 631 7 560 -42 614 -6 b 738 192 696 57 717 115 b 732 200 738 196 738 200 b 719 175 724 200 721 181 b 667 54 711 135 694 86 b 563 -22 643 26 596 -8 b 532 -35 557 -25 532 -29 b 540 -42 533 -39 536 -42 z m 611 194 b 543 90 599 156 576 115 b 611 194 569 122 592 158 z m 319 115 b 296 133 314 119 300 128 b 281 164 290 138 283 157 b 332 114 297 147 314 129 z m 656 146 b 608 78 643 121 626 99 b 656 146 624 100 642 122 z m 243 119 l 240 132 b 296 94 257 111 272 104 b 317 67 304 92 308 67 b 322 74 321 67 322 69 b 321 76 322 74 321 75 l 318 85 b 317 88 318 86 317 88 b 410 44 344 68 376 51 b 389 35 404 40 397 35 b 243 119 325 35 278 68 z m 518 115 b 506 101 514 110 510 106 l 513 110 b 518 115 514 111 515 115 z m 399 88 l 404 88 b 485 111 432 88 460 97 b 451 76 474 99 463 88 l 444 76 b 399 88 429 76 413 81 z m 353 92 b 350 93 351 93 351 93 l 353 93 z m 413 11 l 425 11 b 589 89 488 11 549 40 b 431 10 558 33 492 10 b 413 11 424 10 418 10 z m 549 67 b 453 24 521 44 488 29 b 492 43 467 29 479 36 b 549 67 510 53 531 56 z m 264 54 l 269 54 l 286 42 z m 376 4 b 371 6 376 4 371 4 b 376 4 371 7 375 4 z "}}}
